{
.appVersion = "3151";
DisplayStrings = (
"mooniak\012\012"
);
copyright = "Copyright (c) 2017, mooniak (Pvt) Ltd";
customParameters = (
{
name = Axes;
value = (
{
Name = Weight;
Tag = wght;
}
);
}
);
date = "2017-08-06 08:48:04 +0000";
designer = "Pathum Egodawatta";
designerURL = pathum.github.io;
disablesNiceNames = 1;
familyName = Moonface;
featurePrefixes = (
{
automatic = 1;
code = "languagesystem DFLT dflt;\012";
name = Languagesystems;
}
);
features = (
{
code = "sub [ less m o o n i a k greater] by logo.mooniak;";
name = aalt;
}
);
fontMaster = (
{
alignmentZones = (
"{800, 16}",
"{480, 7}",
"{15, 0}",
"{0, -15}",
"{0, -15}",
"{-200, -16}"
);
ascender = 800;
capHeight = 0;
descender = -200;
id = "B24528F6-199A-4A7E-931E-F430756048DC";
userData = {
GSCornerRadius = 15;
};
xHeight = 480;
},
{
alignmentZones = (
"{800, 16}",
"{480, 7}",
"{15, 0}",
"{0, -15}",
"{0, -15}",
"{-200, -16}"
);
ascender = 800;
capHeight = 0;
descender = -200;
id = "0EF112A6-69F8-47E9-9D72-C545F6D6A613";
weight = Bold;
weightValue = 900;
xHeight = 480;
}
);
glyphs = (
{
glyphname = a;
lastChange = "2023-10-16 10:57:28 +0000";
layers = (
{
layerId = "0EF112A6-69F8-47E9-9D72-C545F6D6A613";
paths = (
{
closed = 1;
nodes = (
"308 -20 OFFCURVE",
"364 45 OFFCURVE",
"378 96 CURVE",
"364 108 LINE",
"350 52 LINE",
"354 56 OFFCURVE",
"358 69 OFFCURVE",
"362 69 CURVE",
"374 0 LINE",
"566 0 LINE",
"565 107 OFFCURVE",
"563 262 OFFCURVE",
"563 341 CURVE SMOOTH",
"563 429 OFFCURVE",
"500 486 OFFCURVE",
"369 486 CURVE SMOOTH",
"248 486 OFFCURVE",
"159 434 OFFCURVE",
"110 377 CURVE",
"155 311 LINE",
"178 328 OFFCURVE",
"227 345 OFFCURVE",
"260 345 CURVE SMOOTH",
"317 345 OFFCURVE",
"349 331 OFFCURVE",
"349 283 CURVE",
"349 224 LINE",
"398 300 LINE",
"212 324 OFFCURVE",
"12 284 OFFCURVE",
"12 122 CURVE SMOOTH",
"12 33 OFFCURVE",
"83 -20 OFFCURVE",
"189 -20 CURVE SMOOTH"
);
},
{
closed = 1;
nodes = (
"234 110 OFFCURVE",
"215 131 OFFCURVE",
"215 151 CURVE SMOOTH",
"215 183 OFFCURVE",
"248 199 OFFCURVE",
"281 207 CURVE SMOOTH",
"316 215 OFFCURVE",
"355 213 OFFCURVE",
"411 213 CURVE",
"351 228 LINE",
"351 184 LINE",
"351 131 OFFCURVE",
"310 110 OFFCURVE",
"274 110 CURVE SMOOTH"
);
}
);
width = 606;
},
{
layerId = "B24528F6-199A-4A7E-931E-F430756048DC";
paths = (
{
closed = 1;
nodes = (
"293 -6 OFFCURVE",
"374 35 OFFCURVE",
"398 76 CURVE",
"364 108 LINE",
"350 52 LINE",
"354 56 OFFCURVE",
"358 69 OFFCURVE",
"362 69 CURVE",
"364 0 LINE",
"471 0 LINE",
"470 107 OFFCURVE",
"468 253 OFFCURVE",
"468 325 CURVE SMOOTH",
"468 420 OFFCURVE",
"419 487 OFFCURVE",
"290 487 CURVE SMOOTH",
"222 487 OFFCURVE",
"152 464 OFFCURVE",
"79 422 CURVE",
"112 343 LINE",
"157 364 OFFCURVE",
"212 384 OFFCURVE",
"254 384 CURVE SMOOTH",
"322 384 OFFCURVE",
"349 361 OFFCURVE",
"349 289 CURVE",
"349 234 LINE",
"416 260 LINE",
"357 282 OFFCURVE",
"301 300 OFFCURVE",
"222 300 CURVE SMOOTH",
"149 300 OFFCURVE",
"39 259 OFFCURVE",
"39 138 CURVE SMOOTH",
"39 68 OFFCURVE",
"94 -6 OFFCURVE",
"217 -6 CURVE SMOOTH"
);
},
{
closed = 1;
nodes = (
"176 93 OFFCURVE",
"144 115 OFFCURVE",
"144 150 CURVE SMOOTH",
"144 187 OFFCURVE",
"181 210 OFFCURVE",
"231 210 CURVE SMOOTH",
"306 210 OFFCURVE",
"371 195 OFFCURVE",
"401 173 CURVE",
"351 238 LINE",
"351 124 LINE",
"331 111 OFFCURVE",
"269 93 OFFCURVE",
"230 93 CURVE SMOOTH"
);
}
);
width = 521;
},
{
associatedMasterId = "B24528F6-199A-4A7E-931E-F430756048DC";
layerId = "D96C34BD-538A-4AB5-B25C-CE5723F9AC80";
name = "Oct 18 17, 22:30";
paths = (
{
closed = 1;
nodes = (
"266 -6 OFFCURVE",
"323 45 OFFCURVE",
"337 96 CURVE",
"323 108 LINE",
"309 52 LINE",
"313 56 OFFCURVE",
"317 69 OFFCURVE",
"321 69 CURVE",
"323 0 LINE",
"430 0 LINE",
"429 107 OFFCURVE",
"427 262 OFFCURVE",
"427 341 CURVE SMOOTH",
"427 429 OFFCURVE",
"369 487 OFFCURVE",
"264 487 CURVE SMOOTH",
"183 487 OFFCURVE",
"104 438 OFFCURVE",
"66 374 CURVE",
"133 321 LINE",
"154 353 OFFCURVE",
"204 380 OFFCURVE",
"235 380 CURVE SMOOTH",
"273 380 OFFCURVE",
"308 361 OFFCURVE",
"308 313 CURVE",
"308 234 LINE",
"357 298 LINE",
"328 308 OFFCURVE",
"251 308 OFFCURVE",
"195 297 CURVE SMOOTH",
"148 287 OFFCURVE",
"30 255 OFFCURVE",
"30 129 CURVE SMOOTH",
"30 70 OFFCURVE",
"71 -6 OFFCURVE",
"187 -6 CURVE SMOOTH"
);
},
{
closed = 1;
nodes = (
"172 96 OFFCURVE",
"143 115 OFFCURVE",
"143 144 CURVE SMOOTH",
"143 187 OFFCURVE",
"177 206 OFFCURVE",
"230 215 CURVE SMOOTH",
"275 221 OFFCURVE",
"314 223 OFFCURVE",
"370 223 CURVE",
"310 238 LINE",
"310 184 LINE",
"308 131 OFFCURVE",
"258 96 OFFCURVE",
"206 96 CURVE SMOOTH"
);
}
);
width = 470;
},
{
associatedMasterId = "B24528F6-199A-4A7E-931E-F430756048DC";
layerId = "4216596A-FB49-423D-B948-26752BE507FD";
name = "28 Sep 23, 06:39";
paths = (
{
closed = 1;
nodes = (
"266 -6 OFFCURVE",
"343 45 OFFCURVE",
"357 96 CURVE",
"343 108 LINE",
"329 52 LINE",
"333 56 OFFCURVE",
"337 69 OFFCURVE",
"341 69 CURVE",
"343 0 LINE",
"450 0 LINE",
"449 107 OFFCURVE",
"447 262 OFFCURVE",
"447 341 CURVE SMOOTH",
"447 429 OFFCURVE",
"389 487 OFFCURVE",
"264 487 CURVE SMOOTH",
"183 487 OFFCURVE",
"119 446 OFFCURVE",
"65 385 CURVE",
"131 324 LINE",
"155 354 OFFCURVE",
"200 378 OFFCURVE",
"235 378 CURVE SMOOTH",
"273 378 OFFCURVE",
"328 361 OFFCURVE",
"328 313 CURVE",
"328 234 LINE",
"377 298 LINE",
"348 308 OFFCURVE",
"251 308 OFFCURVE",
"195 297 CURVE SMOOTH",
"148 287 OFFCURVE",
"30 255 OFFCURVE",
"30 129 CURVE SMOOTH",
"30 70 OFFCURVE",
"71 -6 OFFCURVE",
"187 -6 CURVE SMOOTH"
);
},
{
closed = 1;
nodes = (
"172 96 OFFCURVE",
"143 115 OFFCURVE",
"143 144 CURVE SMOOTH",
"143 187 OFFCURVE",
"177 206 OFFCURVE",
"230 215 CURVE SMOOTH",
"275 221 OFFCURVE",
"334 223 OFFCURVE",
"390 223 CURVE",
"330 238 LINE",
"330 184 LINE",
"328 131 OFFCURVE",
"258 96 OFFCURVE",
"206 96 CURVE SMOOTH"
);
}
);
width = 509;
},
{
associatedMasterId = "B24528F6-199A-4A7E-931E-F430756048DC";
layerId = "CACC062F-95F7-406E-AF10-C34C805BFBDB";
name = "28 Sep 23, 06:42";
paths = (
{
closed = 1;
nodes = (
"276 -6 OFFCURVE",
"353 45 OFFCURVE",
"367 96 CURVE",
"353 108 LINE",
"339 52 LINE",
"343 56 OFFCURVE",
"347 69 OFFCURVE",
"351 69 CURVE",
"353 0 LINE",
"460 0 LINE",
"459 107 OFFCURVE",
"457 262 OFFCURVE",
"457 341 CURVE SMOOTH",
"457 429 OFFCURVE",
"399 487 OFFCURVE",
"280 487 CURVE SMOOTH",
"193 487 OFFCURVE",
"120 455 OFFCURVE",
"60 418 CURVE",
"101 334 LINE",
"135 359 OFFCURVE",
"200 378 OFFCURVE",
"235 378 CURVE SMOOTH",
"283 378 OFFCURVE",
"338 361 OFFCURVE",
"338 313 CURVE",
"338 234 LINE",
"387 298 LINE",
"358 308 OFFCURVE",
"261 308 OFFCURVE",
"195 297 CURVE SMOOTH",
"148 289 OFFCURVE",
"30 259 OFFCURVE",
"30 133 CURVE SMOOTH",
"30 74 OFFCURVE",
"81 -6 OFFCURVE",
"200 -6 CURVE SMOOTH"
);
},
{
closed = 1;
nodes = (
"172 96 OFFCURVE",
"143 115 OFFCURVE",
"143 147 CURVE SMOOTH",
"143 187 OFFCURVE",
"177 204 OFFCURVE",
"230 210 CURVE SMOOTH",
"285 216 OFFCURVE",
"344 218 OFFCURVE",
"400 218 CURVE",
"340 238 LINE",
"340 184 LINE",
"338 131 OFFCURVE",
"268 96 OFFCURVE",
"206 96 CURVE SMOOTH"
);
}
);
width = 509;
},
{
associatedMasterId = "B24528F6-199A-4A7E-931E-F430756048DC";
layerId = "875ACFEE-BA72-4665-BF9B-CA2D4BDAF5C9";
name = "28 Sep 23, 06:55";
paths = (
{
closed = 1;
nodes = (
"475 0 LINE",
"475 126 OFFCURVE",
"475 242 OFFCURVE",
"475 355 CURVE",
"475 442 OFFCURVE",
"406 487 OFFCURVE",
"333 487 CURVE SMOOTH",
"248 487 OFFCURVE",
"172 419 OFFCURVE",
"135 369 CURVE",
"165 287 LINE",
"186 333 OFFCURVE",
"248 366 OFFCURVE",
"288 366 CURVE SMOOTH",
"320 366 OFFCURVE",
"349 351 OFFCURVE",
"353 309 CURVE SMOOTH",
"358 253 OFFCURVE",
"356 110 OFFCURVE",
"356 0 CURVE"
);
}
);
visible = 1;
width = 520;
},
{
associatedMasterId = "B24528F6-199A-4A7E-931E-F430756048DC";
layerId = "3BD658D6-AD02-4DE4-9AA8-AFE1B033EF14";
name = "16 Oct 23 at 15:59";
paths = (
{
closed = 1;
nodes = (
"299 -6 OFFCURVE",
"380 35 OFFCURVE",
"404 76 CURVE",
"370 108 LINE",
"356 52 LINE",
"360 56 OFFCURVE",
"364 69 OFFCURVE",
"368 69 CURVE",
"370 0 LINE",
"477 0 LINE",
"476 107 OFFCURVE",
"474 253 OFFCURVE",
"474 335 CURVE SMOOTH",
"474 420 OFFCURVE",
"436 487 OFFCURVE",
"307 487 CURVE SMOOTH",
"230 487 OFFCURVE",
"167 475 OFFCURVE",
"107 438 CURVE",
"148 344 LINE",
"182 369 OFFCURVE",
"227 378 OFFCURVE",
"252 378 CURVE SMOOTH",
"330 378 OFFCURVE",
"355 351 OFFCURVE",
"355 283 CURVE",
"355 234 LINE",
"422 246 LINE",
"413 266 OFFCURVE",
"350 300 OFFCURVE",
"222 300 CURVE SMOOTH",
"155 300 OFFCURVE",
"45 259 OFFCURVE",
"45 138 CURVE SMOOTH",
"45 68 OFFCURVE",
"100 -6 OFFCURVE",
"223 -6 CURVE SMOOTH"
);
},
{
closed = 1;
nodes = (
"182 93 OFFCURVE",
"150 115 OFFCURVE",
"150 150 CURVE SMOOTH",
"150 187 OFFCURVE",
"187 210 OFFCURVE",
"237 210 CURVE SMOOTH",
"312 210 OFFCURVE",
"387 194 OFFCURVE",
"407 164 CURVE",
"357 238 LINE",
"357 124 LINE",
"337 111 OFFCURVE",
"275 93 OFFCURVE",
"236 93 CURVE SMOOTH"
);
}
);
width = 527;
}
);
rightMetricsKey = n;
unicode = 0061;
userData = {
com.typemytype.robofont.layerData = {
"Jan 31 17, 02:15" = {
anchors = (
);
components = (
);
contours = (
{
points = (
{
segmentType = line;
smooth = 0;
x = 337;
y = 258;
},
{
segmentType = line;
smooth = 0;
x = 398;
y = 196;
},
{
smooth = 0;
x = 203;
y = 262;
},
{
smooth = 0;
x = 147;
y = 196;
},
{
segmentType = curve;
smooth = 1;
x = 147.34;
y = 140.69;
},
{
smooth = 0;
x = 147.34;
y = 80.168;
},
{
smooth = 0;
x = 182.43401;
y = 56.967;
},
{
segmentType = curve;
smooth = 1;
x = 226.8;
y = 57.87;
},
{
smooth = 0;
x = 271.87701;
y = 58.85;
},
{
smooth = 0;
x = 315.39499;
y = 77.066;
},
{
segmentType = curve;
smooth = 0;
x = 337;
y = 114.331;
}
);
},
{
points = (
{
segmentType = curve;
smooth = 1;
x = 271.42001;
y = 491.31;
},
{
smooth = 0;
x = 360.78101;
y = 491.31;
},
{
smooth = 0;
x = 427.66;
y = 453.07401;
},
{
segmentType = curve;
smooth = 1;
x = 427.66;
y = 365.14999;
},
{
smooth = 0;
x = 427.66;
y = 281.51401;
},
{
smooth = 0;
x = 423.10001;
y = 165.65199;
},
{
segmentType = curve;
smooth = 1;
x = 423.10001;
y = 113.131;
},
{
smooth = 0;
x = 423.10001;
y = 54.032;
},
{
smooth = 0;
x = 448.11099;
y = 44.305;
},
{
segmentType = curve;
smooth = 0;
x = 483.5;
y = 45.25;
},
{
segmentType = line;
smooth = 0;
x = 492.23901;
y = 7.45;
},
{
smooth = 0;
x = 453.474;
y = -12.119;
},
{
smooth = 0;
x = 423.345;
y = -13.627;
},
{
segmentType = curve;
smooth = 1;
x = 400;
y = -10.524;
},
{
smooth = 0;
x = 351.465;
y = -4.496;
},
{
smooth = 0;
x = 340.75299;
y = 22.085;
},
{
segmentType = curve;
smooth = 0;
x = 340.12;
y = 55.971;
},
{
smooth = 0;
x = 319.254;
y = 36.344;
},
{
smooth = 0;
x = 286.03101;
y = -8.29;
},
{
segmentType = curve;
smooth = 1;
x = 195.22;
y = -8.29;
},
{
smooth = 0;
x = 111.486;
y = -8.29;
},
{
smooth = 0;
x = 51.5;
y = 42.136;
},
{
segmentType = curve;
smooth = 1;
x = 51.5;
y = 115.271;
},
{
smooth = 0;
x = 52;
y = 262;
},
{
smooth = 0;
x = 226;
y = 289;
},
{
segmentType = curve;
smooth = 0;
x = 367;
y = 289;
},
{
segmentType = line;
smooth = 0;
x = 335;
y = 244;
},
{
segmentType = line;
smooth = 0;
x = 335;
y = 333;
},
{
smooth = 0;
x = 335;
y = 401;
},
{
smooth = 0;
x = 292.66901;
y = 424;
},
{
segmentType = curve;
smooth = 1;
x = 217;
y = 421;
},
{
smooth = 0;
x = 169.591;
y = 419.12;
},
{
smooth = 0;
x = 133.19901;
y = 407.71399;
},
{
segmentType = curve;
smooth = 0;
x = 93.45;
y = 390.271;
},
{
segmentType = line;
smooth = 0;
x = 87.15;
y = 435.95001;
},
{
smooth = 0;
x = 127;
y = 464;
},
{
smooth = 0;
x = 202.043;
y = 491.31;
}
);
}
);
lib = {
};
name = a;
unicodes = (
);
width = 541;
};
};
};
},
{
glyphname = b;
lastChange = "2017-08-07 12:01:36 +0000";
layers = (
{
layerId = "0EF112A6-69F8-47E9-9D72-C545F6D6A613";
paths = (
{
closed = 1;
nodes = (
"172 100 LINE",
"172 682 LINE",
"52 682 LINE",
"54 170 LINE",
"54 114 OFFCURVE",
"53 87 OFFCURVE",
"52 31 CURVE",
"162 1 LINE"
);
},
{
closed = 1;
nodes = (
"52 31 LINE",
"125 0 OFFCURVE",
"206 -6 OFFCURVE",
"233 -6 CURVE SMOOTH",
"405 -6 OFFCURVE",
"465 108 OFFCURVE",
"465 257 CURVE SMOOTH",
"465 407 OFFCURVE",
"374 484 OFFCURVE",
"275 484 CURVE SMOOTH",
"176 484 OFFCURVE",
"116 433 OFFCURVE",
"79 383 CURVE",
"137 314 LINE",
"158 360 OFFCURVE",
"215 374 OFFCURVE",
"245 374 CURVE SMOOTH",
"297 374 OFFCURVE",
"355 344 OFFCURVE",
"355 231 CURVE SMOOTH",
"355 178 OFFCURVE",
"337 92 OFFCURVE",
"249 92 CURVE SMOOTH",
"212 92 OFFCURVE",
"176 109 OFFCURVE",
"172 142 CURVE"
);
}
);
width = 500;
},
{
layerId = "B24528F6-199A-4A7E-931E-F430756048DC";
paths = (
{
closed = 1;
nodes = (
"172 100 LINE",
"172 682 LINE",
"52 682 LINE",
"54 170 LINE",
"54 114 OFFCURVE",
"53 87 OFFCURVE",
"52 31 CURVE",
"162 1 LINE"
);
},
{
closed = 1;
nodes = (
"52 31 LINE",
"125 0 OFFCURVE",
"206 -6 OFFCURVE",
"233 -6 CURVE SMOOTH",
"405 -6 OFFCURVE",
"465 108 OFFCURVE",
"465 257 CURVE SMOOTH",
"465 407 OFFCURVE",
"374 484 OFFCURVE",
"275 484 CURVE SMOOTH",
"176 484 OFFCURVE",
"116 433 OFFCURVE",
"79 383 CURVE",
"137 314 LINE",
"158 360 OFFCURVE",
"215 374 OFFCURVE",
"245 374 CURVE SMOOTH",
"297 374 OFFCURVE",
"355 344 OFFCURVE",
"355 231 CURVE SMOOTH",
"355 178 OFFCURVE",
"337 92 OFFCURVE",
"249 92 CURVE SMOOTH",
"212 92 OFFCURVE",
"176 109 OFFCURVE",
"172 142 CURVE"
);
}
);
width = 500;
}
);
leftMetricsKey = l;
rightMetricsKey = p;
unicode = 0062;
userData = {
com.schriftgestaltung.Glyphs.leftMetricsKey = l;
com.schriftgestaltung.Glyphs.rightMetricsKey = p;
};
},
{
glyphname = c;
lastChange = "2017-08-07 12:01:36 +0000";
layers = (
{
layerId = "0EF112A6-69F8-47E9-9D72-C545F6D6A613";
paths = (
{
closed = 1;
nodes = (
"422 432 LINE",
"396 452 OFFCURVE",
"350 482 OFFCURVE",
"266 482 CURVE SMOOTH",
"133 482 OFFCURVE",
"36 390 OFFCURVE",
"36 223 CURVE SMOOTH",
"36 60 OFFCURVE",
"132 -19 OFFCURVE",
"273 -19 CURVE SMOOTH",
"347 -19 OFFCURVE",
"407 19 OFFCURVE",
"426 51 CURVE",
"396 126 LINE",
"362 104 OFFCURVE",
"338 91 OFFCURVE",
"292 91 CURVE SMOOTH",
"218 91 OFFCURVE",
"163 134 OFFCURVE",
"162 227 CURVE SMOOTH",
"161 321 OFFCURVE",
"213 372 OFFCURVE",
"285 372 CURVE SMOOTH",
"319 372 OFFCURVE",
"358 357 OFFCURVE",
"383 341 CURVE"
);
}
);
width = 442;
},
{
layerId = "B24528F6-199A-4A7E-931E-F430756048DC";
paths = (
{
closed = 1;
nodes = (
"422 432 LINE",
"396 452 OFFCURVE",
"350 482 OFFCURVE",
"266 482 CURVE SMOOTH",
"133 482 OFFCURVE",
"36 390 OFFCURVE",
"36 223 CURVE SMOOTH",
"36 60 OFFCURVE",
"132 -19 OFFCURVE",
"273 -19 CURVE SMOOTH",
"347 -19 OFFCURVE",
"407 19 OFFCURVE",
"426 51 CURVE",
"396 126 LINE",
"362 104 OFFCURVE",
"338 91 OFFCURVE",
"292 91 CURVE SMOOTH",
"218 91 OFFCURVE",
"163 134 OFFCURVE",
"162 227 CURVE SMOOTH",
"161 321 OFFCURVE",
"213 372 OFFCURVE",
"285 372 CURVE SMOOTH",
"319 372 OFFCURVE",
"358 357 OFFCURVE",
"383 341 CURVE"
);
}
);
width = 442;
}
);
unicode = 0063;
userData = {
com.schriftgestaltung.Glyphs.ColorIndex = 0;
};
},
{
glyphname = d;
lastChange = "2017-08-09 10:49:32 +0000";
layers = (
{
layerId = "0EF112A6-69F8-47E9-9D72-C545F6D6A613";
paths = (
{
closed = 1;
nodes = (
"623 0 LINE",
"622 56 OFFCURVE",
"621 113 OFFCURVE",
"621 169 CURVE",
"623 680 LINE",
"403 670 LINE",
"403 99 LINE",
"423 0 LINE"
);
},
{
closed = 1;
nodes = (
"405 153 OFFCURVE",
"373 119 OFFCURVE",
"338 119 CURVE SMOOTH",
"278 119 OFFCURVE",
"256 177 OFFCURVE",
"256 230 CURVE SMOOTH",
"256 302 OFFCURVE",
"287 362 OFFCURVE",
"349 362 CURVE SMOOTH",
"359 362 OFFCURVE",
"417 358 OFFCURVE",
"438 312 CURVE",
"496 381 LINE",
"459 431 OFFCURVE",
"389 482 OFFCURVE",
"264 482 CURVE SMOOTH",
"150 482 OFFCURVE",
"37 404 OFFCURVE",
"37 234 CURVE SMOOTH",
"37 36 OFFCURVE",
"165 -17 OFFCURVE",
"285 -17 CURVE SMOOTH",
"379 -17 OFFCURVE",
"429 42 OFFCURVE",
"446 125 CURVE",
"403 210 LINE"
);
}
);
width = 703;
},
{
layerId = "B24528F6-199A-4A7E-931E-F430756048DC";
paths = (
{
closed = 1;
nodes = (
"448 0 LINE",
"447 56 OFFCURVE",
"446 113 OFFCURVE",
"446 169 CURVE",
"448 680 LINE",
"328 675 LINE",
"328 99 LINE",
"338 0 LINE"
);
},
{
closed = 1;
nodes = (
"330 123 OFFCURVE",
"288 99 OFFCURVE",
"251 99 CURVE SMOOTH",
"173 99 OFFCURVE",
"155 177 OFFCURVE",
"155 230 CURVE SMOOTH",
"155 342 OFFCURVE",
"202 372 OFFCURVE",
"254 372 CURVE SMOOTH",
"284 372 OFFCURVE",
"342 358 OFFCURVE",
"363 312 CURVE",
"421 381 LINE",
"384 431 OFFCURVE",
"324 482 OFFCURVE",
"239 482 CURVE SMOOTH",
"126 482 OFFCURVE",
"35 405 OFFCURVE",
"35 225 CURVE SMOOTH",
"35 107 OFFCURVE",
"85 -7 OFFCURVE",
"227 -7 CURVE SMOOTH",
"294 -7 OFFCURVE",
"354 42 OFFCURVE",
"371 125 CURVE",
"328 180 LINE"
);
}
);
width = 498;
}
);
unicode = 0064;
userData = {
com.schriftgestaltung.Glyphs.ColorIndex = 0;
};
},
{
glyphname = e;
lastChange = "2017-08-09 11:16:48 +0000";
layers = (
{
layerId = "0EF112A6-69F8-47E9-9D72-C545F6D6A613";
paths = (
{
closed = 1;
nodes = (
"133 207 LINE",
"451 207 LINE",
"461 360 OFFCURVE",
"402 487 OFFCURVE",
"254 487 CURVE SMOOTH",
"131 487 OFFCURVE",
"35 390 OFFCURVE",
"35 225 CURVE SMOOTH",
"35 60 OFFCURVE",
"139 -19 OFFCURVE",
"264 -19 CURVE SMOOTH",
"342 -19 OFFCURVE",
"405 13 OFFCURVE",
"432 53 CURVE",
"400 125 LINE",
"366 103 OFFCURVE",
"337 87 OFFCURVE",
"290 87 CURVE SMOOTH",
"217 87 OFFCURVE",
"160 121 OFFCURVE",
"157 214 CURVE",
"155 257 LINE",
"155 276 LINE",
"155 328 OFFCURVE",
"186 391 OFFCURVE",
"252 391 CURVE SMOOTH",
"301 391 OFFCURVE",
"335 350 OFFCURVE",
"334 293 CURVE",
"96 293 LINE"
);
}
);
width = 495;
},
{
layerId = "B24528F6-199A-4A7E-931E-F430756048DC";
paths = (
{
closed = 1;
nodes = (
"133 207 LINE",
"451 207 LINE",
"461 360 OFFCURVE",
"402 487 OFFCURVE",
"254 487 CURVE SMOOTH",
"131 487 OFFCURVE",
"35 390 OFFCURVE",
"35 225 CURVE SMOOTH",
"35 60 OFFCURVE",
"139 -19 OFFCURVE",
"264 -19 CURVE SMOOTH",
"342 -19 OFFCURVE",
"405 13 OFFCURVE",
"432 53 CURVE",
"400 125 LINE",
"366 103 OFFCURVE",
"337 87 OFFCURVE",
"290 87 CURVE SMOOTH",
"217 87 OFFCURVE",
"160 121 OFFCURVE",
"157 214 CURVE",
"155 257 LINE",
"155 276 LINE",
"155 328 OFFCURVE",
"186 391 OFFCURVE",
"252 391 CURVE SMOOTH",
"301 391 OFFCURVE",
"335 350 OFFCURVE",
"334 293 CURVE",
"96 293 LINE"
);
}
);
width = 497;
}
);
unicode = 0065;
},
{
glyphname = f;
lastChange = "2017-08-07 12:01:36 +0000";
layers = (
{
layerId = "0EF112A6-69F8-47E9-9D72-C545F6D6A613";
paths = (
{
closed = 1;
nodes = (
"90 650 OFFCURVE",
"51 596 OFFCURVE",
"51 519 CURVE",
"53 2 LINE",
"165 0 LINE",
"165 486 LINE",
"165 515 OFFCURVE",
"171 551 OFFCURVE",
"220 551 CURVE SMOOTH",
"247 551 OFFCURVE",
"269 542 OFFCURVE",
"269 542 CURVE",
"282 629 LINE",
"259 643 OFFCURVE",
"218 650 OFFCURVE",
"181 650 CURVE SMOOTH"
);
},
{
closed = 1;
nodes = (
"0 328 LINE",
"251 328 LINE",
"251 417 LINE",
"0 417 LINE"
);
}
);
width = 282;
},
{
layerId = "B24528F6-199A-4A7E-931E-F430756048DC";
paths = (
{
closed = 1;
nodes = (
"90 650 OFFCURVE",
"47 596 OFFCURVE",
"47 519 CURVE",
"49 2 LINE",
"165 0 LINE",
"165 486 LINE",
"165 515 OFFCURVE",
"171 551 OFFCURVE",
"220 551 CURVE SMOOTH",
"247 551 OFFCURVE",
"269 542 OFFCURVE",
"269 542 CURVE",
"282 629 LINE",
"259 643 OFFCURVE",
"218 650 OFFCURVE",
"181 650 CURVE SMOOTH"
);
},
{
closed = 1;
nodes = (
"0 328 LINE",
"251 328 LINE",
"251 417 LINE",
"0 417 LINE"
);
}
);
width = 282;
}
);
unicode = 0066;
userData = {
com.schriftgestaltung.Glyphs.ColorIndex = 0;
};
},
{
glyphname = g;
lastChange = "2018-07-29 16:58:10 +0000";
layers = (
{
layerId = "0EF112A6-69F8-47E9-9D72-C545F6D6A613";
paths = (
{
closed = 1;
nodes = (
"53 231 OFFCURVE",
"95 133 OFFCURVE",
"253 133 CURVE SMOOTH",
"345 133 OFFCURVE",
"436 186 OFFCURVE",
"436 312 CURVE SMOOTH",
"436 404 OFFCURVE",
"350 475 OFFCURVE",
"248 474 CURVE SMOOTH",
"125 473 OFFCURVE",
"55 393 OFFCURVE",
"54 300 CURVE SMOOTH"
);
},
{
closed = 1;
nodes = (
"153 340 OFFCURVE",
"180 374 OFFCURVE",
"246 373 CURVE SMOOTH",
"292 373 OFFCURVE",
"339 353 OFFCURVE",
"339 299 CURVE SMOOTH",
"339 268 OFFCURVE",
"314 231 OFFCURVE",
"251 230 CURVE SMOOTH",
"182 229 OFFCURVE",
"153 265 OFFCURVE",
"153 301 CURVE SMOOTH"
);
},
{
closed = 1;
nodes = (
"188 175 LINE",
"187 18 LINE",
"185 11 OFFCURVE",
"369 18 OFFCURVE",
"369 -28 CURVE SMOOTH",
"369 -83 OFFCURVE",
"319 -103 OFFCURVE",
"239 -103 CURVE SMOOTH",
"211 -103 OFFCURVE",
"152 -93 OFFCURVE",
"152 -51 CURVE SMOOTH",
"152 -7 OFFCURVE",
"211 12 OFFCURVE",
"255 12 CURVE",
"220 73 LINE",
"123 77 OFFCURVE",
"49 10 OFFCURVE",
"49 -58 CURVE SMOOTH",
"49 -125 OFFCURVE",
"85 -207 OFFCURVE",
"263 -201 CURVE SMOOTH",
"401 -197 OFFCURVE",
"469 -130 OFFCURVE",
"468 -37 CURVE SMOOTH",
"467 89 OFFCURVE",
"323 94 OFFCURVE",
"284 86 CURVE",
"282 185 LINE"
);
},
{
closed = 1;
nodes = (
"365 408 LINE",
"385 374 LINE",
"429 396 OFFCURVE",
"475 405 OFFCURVE",
"510 405 CURVE",
"486 497 LINE",
"433 497 OFFCURVE",
"350 441 OFFCURVE",
"312 423 CURVE"
);
}
);
width = 490;
},
{
layerId = "B24528F6-199A-4A7E-931E-F430756048DC";
paths = (
{
closed = 1;
nodes = (
"41 242 OFFCURVE",
"90 150 OFFCURVE",
"234 150 CURVE SMOOTH",
"333 150 OFFCURVE",
"426 198 OFFCURVE",
"426 316 CURVE SMOOTH",
"426 416 OFFCURVE",
"348 486 OFFCURVE",
"237 485 CURVE SMOOTH",
"116 484 OFFCURVE",
"43 414 OFFCURVE",
"42 312 CURVE SMOOTH"
);
},
{
closed = 1;
nodes = (
"149 354 OFFCURVE",
"184 384 OFFCURVE",
"233 384 CURVE SMOOTH",
"282 384 OFFCURVE",
"316 355 OFFCURVE",
"316 320 CURVE SMOOTH",
"316 281 OFFCURVE",
"282 253 OFFCURVE",
"234 253 CURVE SMOOTH",
"179 253 OFFCURVE",
"149 282 OFFCURVE",
"149 316 CURVE SMOOTH"
);
},
{
closed = 1;
nodes = (
"167 186 LINE",
"245 14 LINE",
"299 14 OFFCURVE",
"342 -8 OFFCURVE",
"342 -43 CURVE SMOOTH",
"342 -83 OFFCURVE",
"298 -106 OFFCURVE",
"249 -106 CURVE SMOOTH",
"187 -106 OFFCURVE",
"148 -82 OFFCURVE",
"148 -46 CURVE SMOOTH",
"148 -8 OFFCURVE",
"188 14 OFFCURVE",
"245 14 CURVE",
"226 109 LINE",
"133 109 OFFCURVE",
"40 45 OFFCURVE",
"40 -54 CURVE SMOOTH",
"40 -131 OFFCURVE",
"97 -213 OFFCURVE",
"251 -213 CURVE SMOOTH",
"365 -213 OFFCURVE",
"451 -141 OFFCURVE",
"450 -46 CURVE SMOOTH",
"449 45 OFFCURVE",
"361 109 OFFCURVE",
"256 109 CURVE",
"323 57 LINE",
"270 196 LINE"
);
},
{
closed = 1;
nodes = (
"373 400 LINE",
"393 366 LINE",
"437 388 OFFCURVE",
"484 392 OFFCURVE",
"519 392 CURVE",
"494 489 LINE",
"441 489 OFFCURVE",
"378 456 OFFCURVE",
"360 425 CURVE"
);
}
);
width = 504;
},
{
associatedMasterId = "B24528F6-199A-4A7E-931E-F430756048DC";
layerId = "BBBA9109-4423-4F4B-87C3-3A982AA2ED1D";
name = "Aug 7 17, 15:43";
paths = (
{
closed = 1;
nodes = (
"55 231 OFFCURVE",
"95 133 OFFCURVE",
"253 133 CURVE SMOOTH",
"345 133 OFFCURVE",
"434 186 OFFCURVE",
"434 312 CURVE SMOOTH",
"434 404 OFFCURVE",
"350 475 OFFCURVE",
"248 474 CURVE SMOOTH",
"125 473 OFFCURVE",
"57 393 OFFCURVE",
"56 300 CURVE SMOOTH"
);
},
{
closed = 1;
nodes = (
"152 334 OFFCURVE",
"184 374 OFFCURVE",
"246 373 CURVE SMOOTH",
"292 372 OFFCURVE",
"339 353 OFFCURVE",
"339 305 CURVE SMOOTH",
"339 268 OFFCURVE",
"311 230 OFFCURVE",
"250 230 CURVE SMOOTH",
"182 230 OFFCURVE",
"152 263 OFFCURVE",
"152 299 CURVE SMOOTH"
);
},
{
closed = 1;
nodes = (
"198 175 LINE",
"217 28 LINE",
"275 31 OFFCURVE",
"369 18 OFFCURVE",
"369 -38 CURVE SMOOTH",
"369 -83 OFFCURVE",
"318 -107 OFFCURVE",
"268 -107 CURVE SMOOTH",
"210 -107 OFFCURVE",
"157 -87 OFFCURVE",
"157 -45 CURVE SMOOTH",
"157 9 OFFCURVE",
"211 28 OFFCURVE",
"255 28 CURVE",
"230 93 LINE",
"133 97 OFFCURVE",
"54 33 OFFCURVE",
"54 -52 CURVE SMOOTH",
"54 -115 OFFCURVE",
"95 -201 OFFCURVE",
"263 -201 CURVE SMOOTH",
"401 -201 OFFCURVE",
"469 -130 OFFCURVE",
"468 -37 CURVE SMOOTH",
"467 79 OFFCURVE",
"333 103 OFFCURVE",
"294 106 CURVE",
"282 185 LINE"
);
},
{
closed = 1;
nodes = (
"365 408 LINE",
"385 374 LINE",
"429 396 OFFCURVE",
"475 405 OFFCURVE",
"510 405 CURVE",
"486 497 LINE",
"433 497 OFFCURVE",
"340 444 OFFCURVE",
"312 423 CURVE"
);
}
);
width = 490;
}
);
unicode = 0067;
userData = {
com.schriftgestaltung.Glyphs.ColorIndex = 0;
};
},
{
glyphname = h;
lastChange = "2017-08-09 10:43:39 +0000";
layers = (
{
layerId = "0EF112A6-69F8-47E9-9D72-C545F6D6A613";
paths = (
{
closed = 1;
nodes = (
"554 0 LINE",
"554 126 OFFCURVE",
"554 242 OFFCURVE",
"554 355 CURVE",
"554 442 OFFCURVE",
"487 487 OFFCURVE",
"404 487 CURVE SMOOTH",
"323 487 OFFCURVE",
"237 436 OFFCURVE",
"202 386 CURVE",
"230 227 LINE",
"239 273 OFFCURVE",
"260 306 OFFCURVE",
"289 306 CURVE SMOOTH",
"307 306 OFFCURVE",
"330 291 OFFCURVE",
"334 249 CURVE SMOOTH",
"339 193 OFFCURVE",
"337 110 OFFCURVE",
"337 0 CURVE"
);
},
{
closed = 1;
nodes = (
"233 0 LINE",
"230 111 OFFCURVE",
"230 264 OFFCURVE",
"231 394 CURVE",
"221 406 LINE",
"220 680 LINE",
"10 670 LINE",
"10 504 OFFCURVE",
"11 161 OFFCURVE",
"13 0 CURVE"
);
}
);
width = 619;
},
{
layerId = "B24528F6-199A-4A7E-931E-F430756048DC";
paths = (
{
closed = 1;
nodes = (
"474 0 LINE",
"474 126 OFFCURVE",
"474 242 OFFCURVE",
"474 355 CURVE",
"474 442 OFFCURVE",
"407 487 OFFCURVE",
"334 487 CURVE SMOOTH",
"253 487 OFFCURVE",
"187 436 OFFCURVE",
"152 386 CURVE",
"180 287 LINE",
"199 333 OFFCURVE",
"252 366 OFFCURVE",
"289 366 CURVE SMOOTH",
"321 366 OFFCURVE",
"348 351 OFFCURVE",
"352 309 CURVE SMOOTH",
"357 253 OFFCURVE",
"355 110 OFFCURVE",
"355 0 CURVE"
);
},
{
closed = 1;
nodes = (
"183 0 LINE",
"180 111 OFFCURVE",
"180 264 OFFCURVE",
"181 394 CURVE",
"178 406 LINE",
"177 680 LINE",
"58 676 LINE",
"58 510 OFFCURVE",
"59 161 OFFCURVE",
"61 0 CURVE"
);
}
);
width = 529;
}
);
rightMetricsKey = n;
unicode = 0068;
userData = {
com.schriftgestaltung.Glyphs.rightMetricsKey = n;
};
},
{
glyphname = i;
lastChange = "2023-10-16 10:27:21 +0000";
layers = (
{
layerId = "0EF112A6-69F8-47E9-9D72-C545F6D6A613";
paths = (
{
closed = 1;
nodes = (
"187 0 LINE",
"187 73 OFFCURVE",
"186 313 OFFCURVE",
"183 479 CURVE",
"66 474 LINE",
"68 308 OFFCURVE",
"70 158 OFFCURVE",
"70 0 CURVE"
);
},
{
closed = 1;
nodes = (
"168 549 OFFCURVE",
"200 582 OFFCURVE",
"200 623 CURVE SMOOTH",
"200 665 OFFCURVE",
"168 698 OFFCURVE",
"126 698 CURVE SMOOTH",
"84 698 OFFCURVE",
"52 665 OFFCURVE",
"52 623 CURVE SMOOTH",
"52 582 OFFCURVE",
"84 549 OFFCURVE",
"126 549 CURVE SMOOTH"
);
}
);
width = 252;
},
{
layerId = "B24528F6-199A-4A7E-931E-F430756048DC";
paths = (
{
closed = 1;
nodes = (
"196 0 LINE",
"195 73 OFFCURVE",
"194 313 OFFCURVE",
"192 479 CURVE",
"73 474 LINE",
"75 308 OFFCURVE",
"77 158 OFFCURVE",
"77 0 CURVE"
);
},
{
closed = 1;
nodes = (
"175 549 OFFCURVE",
"207 582 OFFCURVE",
"207 623 CURVE SMOOTH",
"207 665 OFFCURVE",
"175 698 OFFCURVE",
"133 698 CURVE SMOOTH",
"91 698 OFFCURVE",
"59 665 OFFCURVE",
"59 623 CURVE SMOOTH",
"59 582 OFFCURVE",
"91 549 OFFCURVE",
"133 549 CURVE SMOOTH"
);
}
);
width = 266;
}
);
unicode = 0069;
},
{
glyphname = j;
lastChange = "2017-08-07 12:01:36 +0000";
layers = (
{
layerId = "B24528F6-199A-4A7E-931E-F430756048DC";
paths = (
{
closed = 1;
nodes = (
"196 549 OFFCURVE",
"228 582 OFFCURVE",
"228 623 CURVE SMOOTH",
"228 665 OFFCURVE",
"196 698 OFFCURVE",
"154 698 CURVE SMOOTH",
"112 698 OFFCURVE",
"80 665 OFFCURVE",
"80 623 CURVE SMOOTH",
"80 582 OFFCURVE",
"112 549 OFFCURVE",
"154 549 CURVE SMOOTH"
);
},
{
closed = 1;
nodes = (
"179 -147 OFFCURVE",
"218 -103 OFFCURVE",
"218 -26 CURVE",
"217 324 LINE",
"217 486 LINE",
"100 483 LINE",
"104 17 LINE SMOOTH",
"104 -12 OFFCURVE",
"98 -48 OFFCURVE",
"49 -48 CURVE SMOOTH",
"22 -48 OFFCURVE",
"0 -39 OFFCURVE",
"0 -39 CURVE",
"-13 -121 LINE",
"10 -135 OFFCURVE",
"51 -147 OFFCURVE",
"88 -147 CURVE SMOOTH"
);
}
);
width = 268;
},
{
layerId = "0EF112A6-69F8-47E9-9D72-C545F6D6A613";
width = 600;
}
);
unicode = 006A;
},
{
glyphname = k;
lastChange = "2023-10-16 10:56:21 +0000";
layers = (
{
layerId = "0EF112A6-69F8-47E9-9D72-C545F6D6A613";
paths = (
{
closed = 1;
nodes = (
"476 0 LINE",
"175 388 LINE",
"173 217 LINE",
"211 147 LINE",
"332 0 LINE"
);
},
{
closed = 1;
nodes = (
"179 0 LINE",
"181 680 LINE",
"58 674 LINE",
"62 0 LINE"
);
},
{
closed = 1;
nodes = (
"434 481 LINE",
"312 479 LINE",
"191 248 LINE",
"281 186 LINE"
);
}
);
width = 476;
},
{
layerId = "B24528F6-199A-4A7E-931E-F430756048DC";
paths = (
{
closed = 1;
nodes = (
"542 0 LINE",
"284 259 LINE",
"256 275 LINE",
"176 346 LINE",
"176 212 LINE",
"237 147 LINE",
"388 0 LINE"
);
},
{
closed = 1;
nodes = (
"180 0 LINE",
"181 228 OFFCURVE",
"180 455 OFFCURVE",
"181 683 CURVE",
"60 680 LINE",
"61 453 OFFCURVE",
"61 227 OFFCURVE",
"59 0 CURVE"
);
},
{
closed = 1;
nodes = (
"496 479 LINE",
"362 476 LINE",
"214 278 LINE",
"299 215 LINE"
);
}
);
width = 527;
},
{
associatedMasterId = "B24528F6-199A-4A7E-931E-F430756048DC";
layerId = "99CCFA8E-6C3C-4B36-BFDC-6B2821FDD4E2";
name = "16 Oct 23 at 16:23";
paths = (
{
closed = 1;
nodes = (
"537 0 LINE",
"176 353 LINE",
"166 222 LINE",
"232 147 LINE",
"383 0 LINE"
);
},
{
closed = 1;
nodes = (
"180 0 LINE",
"180 228 OFFCURVE",
"180 455 OFFCURVE",
"181 683 CURVE",
"60 680 LINE",
"61 453 OFFCURVE",
"61 227 OFFCURVE",
"59 0 CURVE"
);
},
{
closed = 1;
nodes = (
"491 479 LINE",
"357 476 LINE",
"209 278 LINE",
"294 215 LINE"
);
}
);
width = 527;
}
);
unicode = 006B;
},
{
glyphname = l;
lastChange = "2017-08-07 12:01:36 +0000";
layers = (
{
layerId = "0EF112A6-69F8-47E9-9D72-C545F6D6A613";
paths = (
{
closed = 1;
nodes = (
"166 0 LINE",
"168 678 LINE",
"52 676 LINE",
"56 0 LINE"
);
}
);
width = 220;
},
{
layerId = "B24528F6-199A-4A7E-931E-F430756048DC";
paths = (
{
closed = 1;
nodes = (
"169 0 LINE",
"171 678 LINE",
"50 678 LINE",
"54 0 LINE"
);
}
);
width = 221;
}
);
unicode = 006C;
},
{
glyphname = m;
lastChange = "2023-10-16 10:43:37 +0000";
layers = (
{
layerId = "0EF112A6-69F8-47E9-9D72-C545F6D6A613";
paths = (
{
closed = 1;
nodes = (
"574 0 LINE",
"574 126 OFFCURVE",
"574 242 OFFCURVE",
"574 355 CURVE",
"574 442 OFFCURVE",
"507 487 OFFCURVE",
"424 487 CURVE SMOOTH",
"343 487 OFFCURVE",
"277 436 OFFCURVE",
"222 386 CURVE",
"270 227 LINE",
"289 273 OFFCURVE",
"300 306 OFFCURVE",
"329 306 CURVE SMOOTH",
"347 306 OFFCURVE",
"351 291 OFFCURVE",
"355 249 CURVE SMOOTH",
"360 193 OFFCURVE",
"358 110 OFFCURVE",
"358 0 CURVE"
);
},
{
closed = 1;
nodes = (
"273 0 LINE",
"270 111 OFFCURVE",
"270 264 OFFCURVE",
"271 394 CURVE",
"261 406 LINE",
"260 480 LINE",
"30 476 LINE",
"30 310 OFFCURVE",
"31 161 OFFCURVE",
"33 0 CURVE"
);
},
{
closed = 1;
nodes = (
"874 0 LINE",
"874 126 OFFCURVE",
"874 242 OFFCURVE",
"874 355 CURVE",
"874 442 OFFCURVE",
"807 487 OFFCURVE",
"724 487 CURVE SMOOTH",
"643 487 OFFCURVE",
"577 436 OFFCURVE",
"522 386 CURVE",
"570 227 LINE",
"589 273 OFFCURVE",
"600 306 OFFCURVE",
"629 306 CURVE SMOOTH",
"647 306 OFFCURVE",
"651 291 OFFCURVE",
"655 249 CURVE SMOOTH",
"660 193 OFFCURVE",
"658 110 OFFCURVE",
"658 0 CURVE"
);
}
);
width = 904;
},
{
layerId = "B24528F6-199A-4A7E-931E-F430756048DC";
paths = (
{
closed = 1;
nodes = (
"776 0 LINE",
"776 126 OFFCURVE",
"776 242 OFFCURVE",
"776 338 CURVE SMOOTH",
"776 442 OFFCURVE",
"707 487 OFFCURVE",
"634 487 CURVE SMOOTH",
"549 487 OFFCURVE",
"473 419 OFFCURVE",
"436 369 CURVE",
"466 287 LINE",
"487 333 OFFCURVE",
"549 366 OFFCURVE",
"589 366 CURVE SMOOTH",
"621 366 OFFCURVE",
"650 351 OFFCURVE",
"654 309 CURVE SMOOTH",
"659 253 OFFCURVE",
"657 110 OFFCURVE",
"657 0 CURVE"
);
},
{
closed = 1;
nodes = (
"172 0 LINE",
"169 111 OFFCURVE",
"169 244 OFFCURVE",
"170 374 CURVE",
"160 386 LINE",
"159 483 LINE",
"50 479 LINE",
"50 304 OFFCURVE",
"51 161 OFFCURVE",
"53 0 CURVE"
);
},
{
closed = 1;
nodes = (
"471 0 LINE",
"471 126 OFFCURVE",
"471 242 OFFCURVE",
"471 355 CURVE",
"471 442 OFFCURVE",
"414 486 OFFCURVE",
"343 486 CURVE SMOOTH",
"261 486 OFFCURVE",
"178 419 OFFCURVE",
"141 369 CURVE",
"169 287 LINE",
"190 333 OFFCURVE",
"244 366 OFFCURVE",
"284 366 CURVE SMOOTH",
"316 366 OFFCURVE",
"345 351 OFFCURVE",
"349 309 CURVE SMOOTH",
"354 253 OFFCURVE",
"352 110 OFFCURVE",
"352 0 CURVE"
);
}
);
width = 826;
},
{
associatedMasterId = "B24528F6-199A-4A7E-931E-F430756048DC";
layerId = "893059F4-3D10-4C5C-9713-7F5FAD8B601D";
name = "28 Sep 23, 06:33";
paths = (
{
closed = 1;
nodes = (
"773 0 LINE",
"773 126 OFFCURVE",
"773 242 OFFCURVE",
"773 355 CURVE",
"773 442 OFFCURVE",
"704 487 OFFCURVE",
"631 487 CURVE SMOOTH",
"546 487 OFFCURVE",
"470 436 OFFCURVE",
"433 386 CURVE",
"463 287 LINE",
"484 333 OFFCURVE",
"546 366 OFFCURVE",
"586 366 CURVE SMOOTH",
"618 366 OFFCURVE",
"647 351 OFFCURVE",
"651 309 CURVE SMOOTH",
"656 253 OFFCURVE",
"654 110 OFFCURVE",
"654 0 CURVE"
);
},
{
closed = 1;
nodes = (
"169 0 LINE",
"166 111 OFFCURVE",
"166 264 OFFCURVE",
"167 394 CURVE",
"157 406 LINE",
"156 483 LINE",
"47 479 LINE",
"47 304 OFFCURVE",
"48 161 OFFCURVE",
"50 0 CURVE"
);
},
{
closed = 1;
nodes = (
"468 0 LINE",
"468 126 OFFCURVE",
"468 242 OFFCURVE",
"468 355 CURVE",
"468 442 OFFCURVE",
"411 486 OFFCURVE",
"340 486 CURVE SMOOTH",
"258 486 OFFCURVE",
"175 436 OFFCURVE",
"138 386 CURVE",
"166 287 LINE",
"187 333 OFFCURVE",
"241 366 OFFCURVE",
"281 366 CURVE SMOOTH",
"313 366 OFFCURVE",
"342 351 OFFCURVE",
"346 309 CURVE SMOOTH",
"351 253 OFFCURVE",
"349 110 OFFCURVE",
"349 0 CURVE"
);
}
);
width = 826;
}
);
leftMetricsKey = n;
rightMetricsKey = "=n";
unicode = 006D;
userData = {
com.schriftgestaltung.Glyphs.rightMetricsKey = "=n";
};
},
{
color = 0;
glyphname = n;
lastChange = "2023-10-16 10:42:59 +0000";
layers = (
{
layerId = "0EF112A6-69F8-47E9-9D72-C545F6D6A613";
paths = (
{
closed = 1;
nodes = (
"273 0 LINE",
"270 111 OFFCURVE",
"270 264 OFFCURVE",
"271 394 CURVE",
"261 406 LINE",
"260 480 LINE",
"30 476 LINE",
"30 310 OFFCURVE",
"31 161 OFFCURVE",
"33 0 CURVE"
);
},
{
closed = 1;
nodes = (
"574 0 LINE",
"574 126 OFFCURVE",
"574 242 OFFCURVE",
"574 355 CURVE",
"574 442 OFFCURVE",
"507 487 OFFCURVE",
"424 487 CURVE SMOOTH",
"343 487 OFFCURVE",
"277 436 OFFCURVE",
"222 386 CURVE",
"270 227 LINE",
"278 273 OFFCURVE",
"300 306 OFFCURVE",
"329 306 CURVE SMOOTH",
"347 306 OFFCURVE",
"351 291 OFFCURVE",
"355 249 CURVE SMOOTH",
"360 193 OFFCURVE",
"358 110 OFFCURVE",
"358 0 CURVE"
);
}
);
width = 604;
},
{
background = {
paths = (
{
closed = 1;
nodes = (
"172 0 LINE",
"169 111 OFFCURVE",
"169 244 OFFCURVE",
"170 374 CURVE",
"160 386 LINE",
"159 483 LINE",
"50 479 LINE",
"50 304 OFFCURVE",
"51 161 OFFCURVE",
"53 0 CURVE"
);
}
);
};
layerId = "B24528F6-199A-4A7E-931E-F430756048DC";
paths = (
{
closed = 1;
nodes = (
"172 0 LINE",
"169 111 OFFCURVE",
"170 264 OFFCURVE",
"171 394 CURVE",
"161 386 LINE",
"160 482 LINE",
"50 480 LINE",
"50 308 OFFCURVE",
"51 161 OFFCURVE",
"53 0 CURVE"
);
},
{
closed = 1;
nodes = (
"475 0 LINE",
"475 126 OFFCURVE",
"475 242 OFFCURVE",
"475 335 CURVE SMOOTH",
"475 442 OFFCURVE",
"406 487 OFFCURVE",
"333 487 CURVE SMOOTH",
"248 487 OFFCURVE",
"172 419 OFFCURVE",
"135 369 CURVE",
"165 287 LINE",
"186 333 OFFCURVE",
"248 366 OFFCURVE",
"288 366 CURVE SMOOTH",
"320 366 OFFCURVE",
"349 355 OFFCURVE",
"354 309 CURVE SMOOTH",
"360 253 OFFCURVE",
"356 110 OFFCURVE",
"356 0 CURVE"
);
}
);
width = 525;
}
);
unicode = 006E;
},
{
glyphname = o;
lastChange = "2023-10-16 10:56:49 +0000";
layers = (
{
layerId = "0EF112A6-69F8-47E9-9D72-C545F6D6A613";
paths = (
{
closed = 1;
nodes = (
"429 -12 OFFCURVE",
"514 96 OFFCURVE",
"514 242 CURVE SMOOTH",
"514 377 OFFCURVE",
"434 486 OFFCURVE",
"277 486 CURVE SMOOTH",
"140 486 OFFCURVE",
"40 385 OFFCURVE",
"40 229 CURVE SMOOTH",
"40 95 OFFCURVE",
"124 -12 OFFCURVE",
"278 -12 CURVE SMOOTH"
);
},
{
closed = 1;
nodes = (
"216 103 OFFCURVE",
"159 150 OFFCURVE",
"159 235 CURVE SMOOTH",
"159 316 OFFCURVE",
"205 369 OFFCURVE",
"274 369 CURVE SMOOTH",
"337 369 OFFCURVE",
"393 323 OFFCURVE",
"393 233 CURVE SMOOTH",
"393 152 OFFCURVE",
"350 103 OFFCURVE",
"283 103 CURVE SMOOTH"
);
}
);
width = 555;
},
{
layerId = "B24528F6-199A-4A7E-931E-F430756048DC";
paths = (
{
closed = 1;
nodes = (
"440 -12 OFFCURVE",
"535 98 OFFCURVE",
"535 237 CURVE SMOOTH",
"535 389 OFFCURVE",
"437 486 OFFCURVE",
"289 486 CURVE SMOOTH",
"138 486 OFFCURVE",
"43 371 OFFCURVE",
"43 237 CURVE SMOOTH",
"43 98 OFFCURVE",
"138 -12 OFFCURVE",
"289 -12 CURVE SMOOTH"
);
},
{
closed = 1;
nodes = (
"218 99 OFFCURVE",
"162 149 OFFCURVE",
"162 237 CURVE SMOOTH",
"162 325 OFFCURVE",
"218 372 OFFCURVE",
"289 372 CURVE SMOOTH",
"360 372 OFFCURVE",
"416 325 OFFCURVE",
"416 237 CURVE SMOOTH",
"416 149 OFFCURVE",
"360 99 OFFCURVE",
"289 99 CURVE SMOOTH"
);
}
);
width = 578;
},
{
associatedMasterId = "B24528F6-199A-4A7E-931E-F430756048DC";
layerId = "B5262D3B-CF60-4F97-8785-34DEF67330A4";
name = "28 Sep 23, 06:37";
paths = (
{
closed = 1;
nodes = (
"423 -12 OFFCURVE",
"504 99 OFFCURVE",
"504 245 CURVE SMOOTH",
"504 370 OFFCURVE",
"419 486 OFFCURVE",
"269 486 CURVE SMOOTH",
"136 486 OFFCURVE",
"40 389 OFFCURVE",
"40 236 CURVE SMOOTH",
"40 109 OFFCURVE",
"116 -12 OFFCURVE",
"278 -12 CURVE SMOOTH"
);
},
{
closed = 1;
nodes = (
"209 99 OFFCURVE",
"151 156 OFFCURVE",
"151 237 CURVE SMOOTH",
"151 318 OFFCURVE",
"196 372 OFFCURVE",
"265 372 CURVE SMOOTH",
"338 372 OFFCURVE",
"389 320 OFFCURVE",
"389 230 CURVE SMOOTH",
"389 149 OFFCURVE",
"343 99 OFFCURVE",
"276 99 CURVE SMOOTH"
);
}
);
width = 543;
},
{
associatedMasterId = "B24528F6-199A-4A7E-931E-F430756048DC";
layerId = "0D65C777-E0B3-4B9A-91E9-A610DD093C43";
name = "16 Oct 23 at 13:40";
paths = (
{
closed = 1;
nodes = (
"435 -12 OFFCURVE",
"504 115 OFFCURVE",
"504 237 CURVE SMOOTH",
"504 376 OFFCURVE",
"415 486 OFFCURVE",
"271 486 CURVE SMOOTH",
"136 486 OFFCURVE",
"40 388 OFFCURVE",
"40 241 CURVE SMOOTH",
"40 109 OFFCURVE",
"117 -12 OFFCURVE",
"274 -12 CURVE SMOOTH"
);
},
{
closed = 1;
nodes = (
"209 99 OFFCURVE",
"151 154 OFFCURVE",
"151 241 CURVE SMOOTH",
"151 316 OFFCURVE",
"195 372 OFFCURVE",
"267 372 CURVE SMOOTH",
"336 372 OFFCURVE",
"389 321 OFFCURVE",
"389 232 CURVE SMOOTH",
"389 149 OFFCURVE",
"343 99 OFFCURVE",
"278 99 CURVE SMOOTH"
);
}
);
width = 543;
}
);
unicode = 006F;
},
{
glyphname = p;
lastChange = "2017-08-09 10:50:09 +0000";
layers = (
{
layerId = "0EF112A6-69F8-47E9-9D72-C545F6D6A613";
paths = (
{
closed = 1;
nodes = (
"20 473 LINE",
"21 417 OFFCURVE",
"22 360 OFFCURVE",
"22 304 CURVE",
"20 -207 LINE",
"240 -197 LINE",
"240 374 LINE",
"220 473 LINE"
);
},
{
closed = 1;
nodes = (
"238 320 OFFCURVE",
"270 354 OFFCURVE",
"305 354 CURVE SMOOTH",
"365 354 OFFCURVE",
"387 296 OFFCURVE",
"387 243 CURVE SMOOTH",
"387 171 OFFCURVE",
"356 111 OFFCURVE",
"294 111 CURVE SMOOTH",
"284 111 OFFCURVE",
"226 115 OFFCURVE",
"205 161 CURVE",
"147 92 LINE",
"184 42 OFFCURVE",
"254 -9 OFFCURVE",
"379 -9 CURVE SMOOTH",
"493 -9 OFFCURVE",
"606 69 OFFCURVE",
"606 239 CURVE SMOOTH",
"606 437 OFFCURVE",
"478 490 OFFCURVE",
"358 490 CURVE SMOOTH",
"264 490 OFFCURVE",
"214 431 OFFCURVE",
"197 348 CURVE",
"240 263 LINE"
);
}
);
width = 636;
},
{
layerId = "B24528F6-199A-4A7E-931E-F430756048DC";
paths = (
{
closed = 1;
nodes = (
"48 478 LINE",
"49 422 OFFCURVE",
"49 364 OFFCURVE",
"49 308 CURVE",
"47 -173 LINE",
"167 -173 LINE",
"167 378 LINE",
"162 480 LINE"
);
},
{
closed = 1;
nodes = (
"165 349 OFFCURVE",
"207 378 OFFCURVE",
"244 378 CURVE SMOOTH",
"322 378 OFFCURVE",
"339 300 OFFCURVE",
"339 243 CURVE SMOOTH",
"339 134 OFFCURVE",
"293 104 OFFCURVE",
"241 104 CURVE SMOOTH",
"211 104 OFFCURVE",
"153 118 OFFCURVE",
"132 164 CURVE",
"74 95 LINE",
"111 45 OFFCURVE",
"171 -6 OFFCURVE",
"256 -6 CURVE SMOOTH",
"372 -6 OFFCURVE",
"462 71 OFFCURVE",
"462 247 CURVE SMOOTH",
"462 372 OFFCURVE",
"410 484 OFFCURVE",
"284 484 CURVE SMOOTH",
"201 484 OFFCURVE",
"141 435 OFFCURVE",
"124 352 CURVE",
"167 292 LINE"
);
}
);
width = 502;
}
);
leftMetricsKey = n;
unicode = 0070;
userData = {
com.schriftgestaltung.Glyphs.leftMetricsKey = n;
com.schriftgestaltung.Glyphs.rightMetricsKey = d;
};
},
{
glyphname = q;
lastChange = "2017-08-07 12:01:36 +0000";
layers = (
{
layerId = "B24528F6-199A-4A7E-931E-F430756048DC";
paths = (
{
closed = 1;
nodes = (
"335 378 LINE",
"335 -173 LINE",
"455 -173 LINE",
"453 308 LINE",
"453 364 OFFCURVE",
"453 428 OFFCURVE",
"454 484 CURVE",
"344 480 LINE"
);
},
{
closed = 1;
nodes = (
"378 352 LINE",
"361 435 OFFCURVE",
"301 484 OFFCURVE",
"218 484 CURVE SMOOTH",
"92 484 OFFCURVE",
"40 372 OFFCURVE",
"40 247 CURVE SMOOTH",
"40 71 OFFCURVE",
"130 -6 OFFCURVE",
"246 -6 CURVE SMOOTH",
"331 -6 OFFCURVE",
"391 45 OFFCURVE",
"428 95 CURVE",
"370 164 LINE",
"349 118 OFFCURVE",
"291 104 OFFCURVE",
"261 104 CURVE SMOOTH",
"209 104 OFFCURVE",
"163 134 OFFCURVE",
"163 243 CURVE SMOOTH",
"163 300 OFFCURVE",
"180 378 OFFCURVE",
"258 378 CURVE SMOOTH",
"295 378 OFFCURVE",
"337 349 OFFCURVE",
"335 292 CURVE"
);
}
);
width = 502;
},
{
layerId = "0EF112A6-69F8-47E9-9D72-C545F6D6A613";
width = 600;
}
);
unicode = 0071;
},
{
glyphname = r;
lastChange = "2017-08-07 12:01:36 +0000";
layers = (
{
layerId = "0EF112A6-69F8-47E9-9D72-C545F6D6A613";
paths = (
{
closed = 1;
nodes = (
"165 0 LINE",
"159 108 OFFCURVE",
"164 241 OFFCURVE",
"165 364 CURVE",
"162 409 LINE",
"165 484 LINE",
"47 482 LINE",
"51 0 LINE"
);
},
{
closed = 1;
nodes = (
"177 318 OFFCURVE",
"224 386 OFFCURVE",
"334 347 CURVE",
"358 474 LINE",
"262 507 OFFCURVE",
"193 453 OFFCURVE",
"152 402 CURVE",
"163 277 LINE"
);
}
);
width = 358;
},
{
layerId = "B24528F6-199A-4A7E-931E-F430756048DC";
paths = (
{
closed = 1;
nodes = (
"165 0 LINE",
"159 108 OFFCURVE",
"164 241 OFFCURVE",
"165 364 CURVE",
"162 409 LINE",
"165 484 LINE",
"47 482 LINE",
"51 0 LINE"
);
},
{
closed = 1;
nodes = (
"177 318 OFFCURVE",
"224 386 OFFCURVE",
"334 347 CURVE",
"358 474 LINE",
"262 507 OFFCURVE",
"193 453 OFFCURVE",
"152 402 CURVE",
"163 277 LINE"
);
}
);
width = 358;
}
);
leftMetricsKey = "=n";
unicode = 0072;
userData = {
com.schriftgestaltung.Glyphs.leftMetricsKey = "=n";
};
},
{
glyphname = s;
lastChange = "2017-08-26 22:08:29 +0000";
layers = (
{
layerId = "0EF112A6-69F8-47E9-9D72-C545F6D6A613";
paths = (
{
closed = 1;
nodes = (
"281 -15 OFFCURVE",
"352 41 OFFCURVE",
"353 134 CURVE SMOOTH",
"355 254 OFFCURVE",
"166 297 OFFCURVE",
"166 358 CURVE SMOOTH",
"166 378 OFFCURVE",
"180 392 OFFCURVE",
"207 392 CURVE SMOOTH",
"240 392 OFFCURVE",
"271 381 OFFCURVE",
"309 359 CURVE",
"342 446 LINE",
"319 462 OFFCURVE",
"260 486 OFFCURVE",
"207 486 CURVE SMOOTH",
"88 486 OFFCURVE",
"44 420 OFFCURVE",
"44 350 CURVE SMOOTH",
"44 218 OFFCURVE",
"227 202 OFFCURVE",
"227 130 CURVE SMOOTH",
"227 102 OFFCURVE",
"212 84 OFFCURVE",
"181 84 CURVE SMOOTH",
"134 84 OFFCURVE",
"93 113 OFFCURVE",
"71 125 CURVE",
"35 38 LINE",
"58 22 OFFCURVE",
"111 -15 OFFCURVE",
"199 -15 CURVE SMOOTH"
);
}
);
width = 386;
},
{
layerId = "B24528F6-199A-4A7E-931E-F430756048DC";
paths = (
{
closed = 1;
nodes = (
"282 -16 OFFCURVE",
"349 46 OFFCURVE",
"350 126 CURVE SMOOTH",
"351 268 OFFCURVE",
"163 295 OFFCURVE",
"163 356 CURVE SMOOTH",
"163 378 OFFCURVE",
"184 392 OFFCURVE",
"214 392 CURVE SMOOTH",
"244 392 OFFCURVE",
"269 382 OFFCURVE",
"306 353 CURVE",
"350 428 LINE",
"327 454 OFFCURVE",
"271 486 OFFCURVE",
"199 486 CURVE SMOOTH",
"94 486 OFFCURVE",
"41 417 OFFCURVE",
"41 349 CURVE SMOOTH",
"41 209 OFFCURVE",
"226 200 OFFCURVE",
"226 128 CURVE SMOOTH",
"226 100 OFFCURVE",
"205 83 OFFCURVE",
"170 83 CURVE SMOOTH",
"127 83 OFFCURVE",
"89 102 OFFCURVE",
"57 123 CURVE",
"25 41 LINE",
"47 24 OFFCURVE",
"102 -16 OFFCURVE",
"190 -16 CURVE SMOOTH"
);
}
);
width = 381;
},
{
associatedMasterId = "B24528F6-199A-4A7E-931E-F430756048DC";
layerId = "902186E6-34AE-47F7-ADEB-81DA94DFFD47";
name = "Aug 7 17, 22:26";
paths = (
{
closed = 1;
nodes = (
"287 -15 OFFCURVE",
"348 41 OFFCURVE",
"349 127 CURVE SMOOTH",
"351 254 OFFCURVE",
"163 280 OFFCURVE",
"163 347 CURVE SMOOTH",
"163 381 OFFCURVE",
"186 392 OFFCURVE",
"216 392 CURVE SMOOTH",
"246 392 OFFCURVE",
"277 381 OFFCURVE",
"315 359 CURVE",
"348 446 LINE",
"325 462 OFFCURVE",
"266 486 OFFCURVE",
"209 486 CURVE SMOOTH",
"94 486 OFFCURVE",
"41 422 OFFCURVE",
"41 351 CURVE SMOOTH",
"41 214 OFFCURVE",
"225 201 OFFCURVE",
"225 129 CURVE SMOOTH",
"225 101 OFFCURVE",
"208 84 OFFCURVE",
"177 84 CURVE SMOOTH",
"130 84 OFFCURVE",
"89 113 OFFCURVE",
"67 125 CURVE",
"31 38 LINE",
"54 22 OFFCURVE",
"107 -15 OFFCURVE",
"195 -15 CURVE SMOOTH"
);
}
);
width = 381;
}
);
unicode = 0073;
},
{
glyphname = t;
lastChange = "2017-08-09 10:53:08 +0000";
layers = (
{
layerId = "0EF112A6-69F8-47E9-9D72-C545F6D6A613";
paths = (
{
closed = 1;
nodes = (
"318 -16 OFFCURVE",
"369 -1 OFFCURVE",
"392 13 CURVE",
"379 95 LINE",
"379 95 OFFCURVE",
"357 86 OFFCURVE",
"320 83 CURVE SMOOTH",
"271 79 OFFCURVE",
"265 139 OFFCURVE",
"265 168 CURVE SMOOTH",
"268 443 LINE",
"269 474 LINE",
"269 634 LINE",
"61 622 LINE",
"52 455 LINE",
"51 155 LINE",
"51 8 OFFCURVE",
"190 -16 OFFCURVE",
"281 -16 CURVE SMOOTH"
);
},
{
closed = 1;
nodes = (
"371 367 LINE",
"371 480 LINE",
"0 480 LINE",
"0 367 LINE"
);
}
);
width = 422;
},
{
layerId = "B24528F6-199A-4A7E-931E-F430756048DC";
paths = (
{
closed = 1;
nodes = (
"238 -16 OFFCURVE",
"279 -4 OFFCURVE",
"302 10 CURVE",
"289 92 LINE",
"289 92 OFFCURVE",
"267 83 OFFCURVE",
"240 83 CURVE SMOOTH",
"191 83 OFFCURVE",
"185 119 OFFCURVE",
"185 148 CURVE SMOOTH",
"188 443 LINE",
"189 474 LINE",
"189 634 LINE",
"81 631 LINE",
"72 455 LINE",
"71 105 LINE",
"71 28 OFFCURVE",
"110 -16 OFFCURVE",
"201 -16 CURVE SMOOTH"
);
},
{
closed = 1;
nodes = (
"279 387 LINE",
"281 480 LINE",
"20 480 LINE",
"17 387 LINE"
);
}
);
width = 332;
}
);
unicode = 0074;
},
{
glyphname = u;
lastChange = "2017-08-09 10:49:14 +0000";
layers = (
{
layerId = "0EF112A6-69F8-47E9-9D72-C545F6D6A613";
paths = (
{
closed = 1;
nodes = (
"20 477 LINE",
"20 351 OFFCURVE",
"20 235 OFFCURVE",
"20 122 CURVE",
"20 35 OFFCURVE",
"87 -10 OFFCURVE",
"170 -10 CURVE SMOOTH",
"251 -10 OFFCURVE",
"317 41 OFFCURVE",
"372 91 CURVE",
"324 250 LINE",
"305 204 OFFCURVE",
"294 171 OFFCURVE",
"265 171 CURVE SMOOTH",
"247 171 OFFCURVE",
"243 186 OFFCURVE",
"239 228 CURVE SMOOTH",
"234 284 OFFCURVE",
"236 367 OFFCURVE",
"236 477 CURVE"
);
},
{
closed = 1;
nodes = (
"321 477 LINE",
"324 366 OFFCURVE",
"324 213 OFFCURVE",
"323 83 CURVE",
"333 71 LINE",
"334 -3 LINE",
"564 1 LINE",
"564 167 OFFCURVE",
"563 316 OFFCURVE",
"561 477 CURVE"
);
}
);
width = 594;
},
{
layerId = "B24528F6-199A-4A7E-931E-F430756048DC";
paths = (
{
closed = 1;
nodes = (
"280 -7 OFFCURVE",
"337 34 OFFCURVE",
"374 86 CURVE",
"346 185 LINE",
"325 139 OFFCURVE",
"280 114 OFFCURVE",
"240 114 CURVE SMOOTH",
"208 114 OFFCURVE",
"189 129 OFFCURVE",
"185 171 CURVE SMOOTH",
"180 228 OFFCURVE",
"182 371 OFFCURVE",
"182 481 CURVE",
"65 481 LINE",
"65 355 OFFCURVE",
"65 239 OFFCURVE",
"65 126 CURVE",
"65 39 OFFCURVE",
"122 -7 OFFCURVE",
"205 -7 CURVE SMOOTH"
);
},
{
closed = 1;
nodes = (
"463 1 LINE",
"463 162 OFFCURVE",
"463 319 OFFCURVE",
"461 481 CURVE",
"344 481 LINE",
"347 369 OFFCURVE",
"346 208 OFFCURVE",
"345 78 CURVE",
"355 66 LINE",
"356 1 LINE"
);
}
);
width = 518;
}
);
rightMetricsKey = "=n";
unicode = 0075;
userData = {
com.schriftgestaltung.Glyphs.rightMetricsKey = "=n";
};
},
{
glyphname = v;
lastChange = "2017-08-07 12:01:36 +0000";
layers = (
{
layerId = "0EF112A6-69F8-47E9-9D72-C545F6D6A613";
paths = (
{
closed = 1;
nodes = (
"227 2 LINE",
"204 252 LINE",
"133 479 LINE",
"6 479 LINE",
"157 2 LINE"
);
},
{
closed = 1;
nodes = (
"272 2 LINE",
"434 479 LINE",
"326 479 LINE",
"197 90 LINE",
"166 2 LINE"
);
}
);
width = 438;
},
{
layerId = "B24528F6-199A-4A7E-931E-F430756048DC";
paths = (
{
closed = 1;
nodes = (
"227 2 LINE",
"204 252 LINE",
"133 479 LINE",
"6 479 LINE",
"157 2 LINE"
);
},
{
closed = 1;
nodes = (
"272 2 LINE",
"434 479 LINE",
"326 479 LINE",
"197 90 LINE",
"166 2 LINE"
);
}
);
width = 438;
}
);
unicode = 0076;
userData = {
com.schriftgestaltung.Glyphs.ColorIndex = 0;
};
},
{
glyphname = w;
lastChange = "2017-08-09 10:47:30 +0000";
layers = (
{
layerId = "0EF112A6-69F8-47E9-9D72-C545F6D6A613";
paths = (
{
closed = 1;
nodes = (
"211 2 LINE",
"193 252 LINE",
"120 479 LINE",
"-90 479 LINE",
"51 2 LINE"
);
},
{
closed = 1;
nodes = (
"266 2 LINE",
"374 388 LINE",
"359 479 LINE",
"290 479 LINE",
"181 90 LINE",
"60 2 LINE"
);
},
{
closed = 1;
nodes = (
"481 2 LINE",
"458 241 LINE",
"378 479 LINE",
"300 479 LINE",
"294 344 LINE",
"411 2 LINE"
);
},
{
closed = 1;
nodes = (
"529 2 LINE",
"668 479 LINE",
"560 479 LINE",
"451 90 LINE",
"420 2 LINE"
);
}
);
width = 668;
},
{
layerId = "B24528F6-199A-4A7E-931E-F430756048DC";
paths = (
{
closed = 1;
nodes = (
"211 2 LINE",
"193 252 LINE",
"120 479 LINE",
"0 479 LINE",
"141 2 LINE"
);
},
{
closed = 1;
nodes = (
"266 2 LINE",
"374 388 LINE",
"359 479 LINE",
"290 479 LINE",
"181 90 LINE",
"150 2 LINE"
);
},
{
closed = 1;
nodes = (
"481 2 LINE",
"458 241 LINE",
"378 479 LINE",
"300 479 LINE",
"294 344 LINE",
"411 2 LINE"
);
},
{
closed = 1;
nodes = (
"529 2 LINE",
"668 479 LINE",
"560 479 LINE",
"451 90 LINE",
"420 2 LINE"
);
}
);
width = 668;
}
);
unicode = 0077;
},
{
glyphname = x;
lastChange = "2017-08-07 12:01:36 +0000";
layers = (
{
layerId = "0EF112A6-69F8-47E9-9D72-C545F6D6A613";
paths = (
{
closed = 1;
nodes = (
"420 0 LINE",
"265 255 LINE",
"251 269 LINE",
"132 481 LINE",
"5 481 LINE",
"164 207 LINE",
"184 189 LINE",
"288 0 LINE"
);
},
{
closed = 1;
nodes = (
"129 0 LINE",
"233 204 LINE",
"264 224 LINE",
"405 481 LINE",
"291 482 LINE",
"175 258 LINE",
"150 245 LINE",
"5 0 LINE"
);
}
);
width = 425;
},
{
layerId = "B24528F6-199A-4A7E-931E-F430756048DC";
paths = (
{
closed = 1;
nodes = (
"420 0 LINE",
"265 255 LINE",
"251 269 LINE",
"132 481 LINE",
"5 481 LINE",
"164 207 LINE",
"184 189 LINE",
"288 0 LINE"
);
},
{
closed = 1;
nodes = (
"129 0 LINE",
"233 204 LINE",
"264 224 LINE",
"405 481 LINE",
"291 482 LINE",
"175 258 LINE",
"150 245 LINE",
"5 0 LINE"
);
}
);
width = 425;
}
);
unicode = 0078;
},
{
glyphname = y;
lastChange = "2017-08-07 12:01:36 +0000";
layers = (
{
layerId = "0EF112A6-69F8-47E9-9D72-C545F6D6A613";
paths = (
{
closed = 1;
nodes = (
"225 157 LINE",
"218 283 LINE",
"132 479 LINE",
"5 479 LINE",
"176 59 LINE"
);
},
{
closed = 1;
nodes = (
"230 -136 LINE",
"453 479 LINE",
"327 479 LINE",
"106 -135 LINE"
);
}
);
width = 448;
},
{
layerId = "B24528F6-199A-4A7E-931E-F430756048DC";
paths = (
{
closed = 1;
nodes = (
"225 157 LINE",
"218 283 LINE",
"132 479 LINE",
"5 479 LINE",
"176 59 LINE"
);
},
{
closed = 1;
nodes = (
"230 -136 LINE",
"453 479 LINE",
"327 479 LINE",
"106 -135 LINE"
);
}
);
width = 448;
}
);
unicode = 0079;
userData = {
com.schriftgestaltung.Glyphs.ColorIndex = 0;
};
},
{
glyphname = tml_I;
lastChange = "2017-08-07 23:54:18 +0000";
layers = (
{
layerId = "B24528F6-199A-4A7E-931E-F430756048DC";
paths = (
{
closed = 1;
nodes = (
"481 524 OFFCURVE",
"456 519 OFFCURVE",
"433 508 CURVE",
"443 508 LINE SMOOTH",
"495 508 OFFCURVE",
"563 469 OFFCURVE",
"563 376 CURVE SMOOTH",
"563 352 OFFCURVE",
"558 330 OFFCURVE",
"547 310 CURVE SMOOTH",
"524 269 OFFCURVE",
"487 249 OFFCURVE",
"436 249 CURVE SMOOTH",
"412 249 OFFCURVE",
"390 254 OFFCURVE",
"370 265 CURVE SMOOTH",
"327 288 OFFCURVE",
"305 328 OFFCURVE",
"305 385 CURVE SMOOTH",
"305 472 OFFCURVE",
"372 573 OFFCURVE",
"513 573 CURVE SMOOTH",
"622 573 OFFCURVE",
"746 498 OFFCURVE",
"746 307 CURVE SMOOTH",
"746 252 OFFCURVE",
"734 196 OFFCURVE",
"711 141 CURVE",
"788 91 OFFCURVE",
"826 28 OFFCURVE",
"827 -48 CURVE SMOOTH",
"827 -85 OFFCURVE",
"817 -116 OFFCURVE",
"796 -143 CURVE SMOOTH",
"761 -188 OFFCURVE",
"704 -210 OFFCURVE",
"626 -210 CURVE SMOOTH",
"560 -210 OFFCURVE",
"493 -193 OFFCURVE",
"424 -158 CURVE",
"355 -192 OFFCURVE",
"291 -209 OFFCURVE",
"230 -210 CURVE SMOOTH",
"194 -210 OFFCURVE",
"162 -203 OFFCURVE",
"133 -190 CURVE SMOOTH",
"12 -135 OFFCURVE",
"9 35 OFFCURVE",
"146 134 CURVE",
"114 206 OFFCURVE",
"98 282 OFFCURVE",
"98 361 CURVE SMOOTH",
"98 565 OFFCURVE",
"212 754 OFFCURVE",
"525 754 CURVE SMOOTH",
"596 754 OFFCURVE",
"658 744 OFFCURVE",
"711 724 CURVE SMOOTH",
"874 663 OFFCURVE",
"955 501 OFFCURVE",
"955 239 CURVE SMOOTH",
"955 0 LINE",
"904 0 LINE",
"904 223 LINE SMOOTH",
"904 308 OFFCURVE",
"896 381 OFFCURVE",
"879 443 CURVE SMOOTH",
"832 616 OFFCURVE",
"713 703 OFFCURVE",
"524 703 CURVE SMOOTH",
"320 703 OFFCURVE",
"152 597 OFFCURVE",
"152 357 CURVE SMOOTH",
"152 290 OFFCURVE",
"166 224 OFFCURVE",
"193 161 CURVE",
"265 198 OFFCURVE",
"346 216 OFFCURVE",
"436 216 CURVE SMOOTH",
"519 216 OFFCURVE",
"595 199 OFFCURVE",
"665 166 CURVE",
"686 214 OFFCURVE",
"696 263 OFFCURVE",
"696 314 CURVE SMOOTH",
"696 417 OFFCURVE",
"638 524 OFFCURVE",
"509 524 CURVE SMOOTH"
);
},
{
closed = 1;
nodes = (
"449 296 OFFCURVE",
"460 298 OFFCURVE",
"471 303 CURVE SMOOTH",
"501 317 OFFCURVE",
"516 342 OFFCURVE",
"516 379 CURVE SMOOTH",
"516 391 OFFCURVE",
"514 402 OFFCURVE",
"510 413 CURVE SMOOTH",
"498 446 OFFCURVE",
"473 463 OFFCURVE",
"435 463 CURVE SMOOTH",
"422 463 OFFCURVE",
"409 460 OFFCURVE",
"398 455 CURVE SMOOTH",
"369 442 OFFCURVE",
"354 418 OFFCURVE",
"353 383 CURVE SMOOTH",
"353 382 LINE SMOOTH",
"353 367 OFFCURVE",
"356 354 OFFCURVE",
"361 342 CURVE SMOOTH",
"375 311 OFFCURVE",
"400 296 OFFCURVE",
"436 296 CURVE SMOOTH"
);
},
{
closed = 1;
nodes = (
"346 166 OFFCURVE",
"274 150 OFFCURVE",
"214 119 CURVE",
"265 26 OFFCURVE",
"335 -47 OFFCURVE",
"425 -100 CURVE",
"428 -98 OFFCURVE",
"432 -96 OFFCURVE",
"437 -93 CURVE SMOOTH",
"526 -37 OFFCURVE",
"595 34 OFFCURVE",
"643 121 CURVE",
"581 151 OFFCURVE",
"510 166 OFFCURVE",
"430 166 CURVE SMOOTH"
);
},
{
closed = 1;
nodes = (
"690 -161 OFFCURVE",
"775 -137 OFFCURVE",
"775 -48 CURVE",
"773 3 OFFCURVE",
"744 51 OFFCURVE",
"689 94 CURVE",
"640 5 OFFCURVE",
"569 -69 OFFCURVE",
"478 -127 CURVE",
"529 -150 OFFCURVE",
"579 -161 OFFCURVE",
"627 -161 CURVE SMOOTH"
);
},
{
closed = 1;
nodes = (
"273 -161 OFFCURVE",
"320 -150 OFFCURVE",
"371 -127 CURVE",
"286 -73 OFFCURVE",
"219 -1 OFFCURVE",
"168 89 CURVE",
"119 50 OFFCURVE",
"94 4 OFFCURVE",
"93 -47 CURVE SMOOTH",
"93 -69 OFFCURVE",
"99 -89 OFFCURVE",
"110 -106 CURVE SMOOTH",
"135 -143 OFFCURVE",
"174 -161 OFFCURVE",
"229 -161 CURVE SMOOTH"
);
}
);
width = 1005;
},
{
layerId = "0EF112A6-69F8-47E9-9D72-C545F6D6A613";
width = 600;
}
);
note = tml_I;
unicode = 0B87;
},
{
glyphname = tml_Ii;
lastChange = "2017-08-09 15:37:24 +0000";
layers = (
{
components = (
{
name = tml_Ra.alt;
}
);
layerId = "B24528F6-199A-4A7E-931E-F430756048DC";
paths = (
{
closed = 1;
nodes = (
"270 160 OFFCURVE",
"294 184 OFFCURVE",
"294 214 CURVE SMOOTH",
"294 243 OFFCURVE",
"270 267 OFFCURVE",
"241 267 CURVE SMOOTH",
"211 267 OFFCURVE",
"187 243 OFFCURVE",
"187 214 CURVE SMOOTH",
"187 184 OFFCURVE",
"211 160 OFFCURVE",
"241 160 CURVE SMOOTH"
);
},
{
closed = 1;
nodes = (
"530 160 OFFCURVE",
"554 184 OFFCURVE",
"554 214 CURVE SMOOTH",
"554 243 OFFCURVE",
"530 267 OFFCURVE",
"501 267 CURVE SMOOTH",
"471 267 OFFCURVE",
"447 243 OFFCURVE",
"447 214 CURVE SMOOTH",
"447 184 OFFCURVE",
"471 160 OFFCURVE",
"501 160 CURVE SMOOTH"
);
}
);
width = 637;
},
{
layerId = "0EF112A6-69F8-47E9-9D72-C545F6D6A613";
width = 600;
}
);
note = tml_Ii;
unicode = 0B88;
},
{
glyphname = tml_U;
lastChange = "2017-08-07 23:54:18 +0000";
layers = (
{
layerId = "B24528F6-199A-4A7E-931E-F430756048DC";
paths = (
{
closed = 1;
nodes = (
"173 0 LINE SMOOTH",
"152 0 OFFCURVE",
"132 3 OFFCURVE",
"115 8 CURVE SMOOTH",
"70 22 OFFCURVE",
"48 51 OFFCURVE",
"48 95 CURVE SMOOTH",
"48 111 OFFCURVE",
"51 126 OFFCURVE",
"57 140 CURVE SMOOTH",
"74 179 OFFCURVE",
"109 198 OFFCURVE",
"163 198 CURVE SMOOTH",
"211 198 LINE SMOOTH",
"344 199 OFFCURVE",
"411 258 OFFCURVE",
"412 376 CURVE SMOOTH",
"412 422 OFFCURVE",
"400 460 OFFCURVE",
"376 491 CURVE SMOOTH",
"313 570 OFFCURVE",
"205 557 OFFCURVE",
"156 524 CURVE",
"165 525 OFFCURVE",
"172 526 OFFCURVE",
"178 526 CURVE SMOOTH",
"199 526 OFFCURVE",
"219 522 OFFCURVE",
"238 515 CURVE SMOOTH",
"290 494 OFFCURVE",
"316 452 OFFCURVE",
"316 389 CURVE SMOOTH",
"316 326 OFFCURVE",
"277 247 OFFCURVE",
"184 247 CURVE SMOOTH",
"124 247 OFFCURVE",
"42 286 OFFCURVE",
"42 402 CURVE SMOOTH",
"42 490 OFFCURVE",
"97 596 OFFCURVE",
"248 597 CURVE SMOOTH",
"349 597 OFFCURVE",
"462 539 OFFCURVE",
"462 376 CURVE SMOOTH",
"462 337 OFFCURVE",
"455 301 OFFCURVE",
"442 270 CURVE SMOOTH",
"408 191 OFFCURVE",
"339 151 OFFCURVE",
"236 150 CURVE SMOOTH",
"159 149 LINE SMOOTH",
"155 149 OFFCURVE",
"151 149 OFFCURVE",
"146 148 CURVE",
"82 139 OFFCURVE",
"76 50 OFFCURVE",
"169 49 CURVE SMOOTH",
"786 49 LINE",
"786 0 LINE"
);
},
{
closed = 1;
nodes = (
"198 295 OFFCURVE",
"214 299 OFFCURVE",
"228 308 CURVE SMOOTH",
"255 325 OFFCURVE",
"268 353 OFFCURVE",
"268 390 CURVE SMOOTH",
"268 407 OFFCURVE",
"265 422 OFFCURVE",
"259 435 CURVE SMOOTH",
"244 466 OFFCURVE",
"218 482 OFFCURVE",
"179 482 CURVE SMOOTH",
"169 482 OFFCURVE",
"159 481 OFFCURVE",
"150 478 CURVE",
"111 467 OFFCURVE",
"91 436 OFFCURVE",
"91 385 CURVE SMOOTH",
"91 384 LINE SMOOTH",
"91 370 OFFCURVE",
"94 357 OFFCURVE",
"101 344 CURVE",
"117 311 OFFCURVE",
"144 295 OFFCURVE",
"181 295 CURVE SMOOTH"
);
}
);
width = 828;
},
{
layerId = "0EF112A6-69F8-47E9-9D72-C545F6D6A613";
width = 600;
}
);
note = tml_U;
unicode = 0B89;
},
{
glyphname = tml_Uu;
lastChange = "2017-08-07 23:54:18 +0000";
layers = (
{
layerId = "B24528F6-199A-4A7E-931E-F430756048DC";
paths = (
{
closed = 1;
nodes = (
"145 0 OFFCURVE",
"129 2 OFFCURVE",
"114 6 CURVE SMOOTH",
"70 19 OFFCURVE",
"48 49 OFFCURVE",
"48 94 CURVE SMOOTH",
"48 113 OFFCURVE",
"52 129 OFFCURVE",
"61 144 CURVE SMOOTH",
"80 175 OFFCURVE",
"112 191 OFFCURVE",
"157 191 CURVE SMOOTH",
"229 191 LINE SMOOTH",
"357 192 OFFCURVE",
"422 249 OFFCURVE",
"423 362 CURVE SMOOTH",
"423 458 OFFCURVE",
"364 542 OFFCURVE",
"244 542 CURVE SMOOTH",
"209 542 OFFCURVE",
"178 533 OFFCURVE",
"153 516 CURVE",
"164 517 OFFCURVE",
"173 518 OFFCURVE",
"180 518 CURVE SMOOTH",
"201 518 OFFCURVE",
"222 514 OFFCURVE",
"241 505 CURVE SMOOTH",
"290 483 OFFCURVE",
"314 442 OFFCURVE",
"314 383 CURVE SMOOTH",
"314 322 OFFCURVE",
"279 239 OFFCURVE",
"180 239 CURVE SMOOTH",
"151 239 OFFCURVE",
"126 247 OFFCURVE",
"103 263 CURVE SMOOTH",
"62 292 OFFCURVE",
"42 337 OFFCURVE",
"42 397 CURVE SMOOTH",
"42 481 OFFCURVE",
"95 588 OFFCURVE",
"247 589 CURVE SMOOTH",
"358 589 OFFCURVE",
"474 523 OFFCURVE",
"474 363 CURVE SMOOTH",
"474 329 OFFCURVE",
"469 298 OFFCURVE",
"458 270 CURVE SMOOTH",
"427 187 OFFCURVE",
"356 144 OFFCURVE",
"246 142 CURVE SMOOTH",
"159 141 LINE SMOOTH",
"154 141 OFFCURVE",
"149 141 OFFCURVE",
"144 140 CURVE",
"87 131 OFFCURVE",
"80 50 OFFCURVE",
"168 49 CURVE SMOOTH",
"1156 49 LINE",
"1156 0 LINE",
"162 0 LINE SMOOTH"
);
},
{
closed = 1;
nodes = (
"196 287 OFFCURVE",
"211 291 OFFCURVE",
"224 298 CURVE",
"252 315 OFFCURVE",
"266 343 OFFCURVE",
"266 384 CURVE SMOOTH",
"266 401 OFFCURVE",
"263 416 OFFCURVE",
"257 429 CURVE SMOOTH",
"242 460 OFFCURVE",
"215 475 OFFCURVE",
"176 475 CURVE SMOOTH",
"165 475 OFFCURVE",
"154 473 OFFCURVE",
"143 469 CURVE SMOOTH",
"108 456 OFFCURVE",
"90 425 OFFCURVE",
"90 376 CURVE SMOOTH",
"90 362 OFFCURVE",
"93 348 OFFCURVE",
"100 335 CURVE SMOOTH",
"117 303 OFFCURVE",
"144 287 OFFCURVE",
"181 287 CURVE SMOOTH"
);
},
{
closed = 1;
nodes = (
"621 100 OFFCURVE",
"602 106 OFFCURVE",
"585 119 CURVE SMOOTH",
"544 152 OFFCURVE",
"524 213 OFFCURVE",
"524 302 CURVE SMOOTH",
"524 365 OFFCURVE",
"535 418 OFFCURVE",
"558 462 CURVE SMOOTH",
"623 589 OFFCURVE",
"766 579 OFFCURVE",
"826 488 CURVE",
"826 547 LINE",
"1153 547 LINE",
"1153 499 LINE",
"1061 499 LINE",
"1061 123 LINE",
"1015 123 LINE",
"1015 499 LINE",
"873 499 LINE",
"873 123 LINE",
"825 123 LINE",
"825 332 LINE SMOOTH",
"825 361 OFFCURVE",
"822 388 OFFCURVE",
"816 411 CURVE SMOOTH",
"799 477 OFFCURVE",
"763 510 OFFCURVE",
"706 510 CURVE SMOOTH",
"693 510 OFFCURVE",
"681 508 OFFCURVE",
"669 504 CURVE SMOOTH",
"617 487 OFFCURVE",
"585 440 OFFCURVE",
"574 361 CURVE",
"592 387 OFFCURVE",
"616 400 OFFCURVE",
"646 401 CURVE SMOOTH",
"660 401 OFFCURVE",
"673 398 OFFCURVE",
"686 393 CURVE",
"731 373 OFFCURVE",
"753 326 OFFCURVE",
"753 251 CURVE SMOOTH",
"753 195 OFFCURVE",
"735 100 OFFCURVE",
"642 100 CURVE SMOOTH"
);
},
{
closed = 1;
nodes = (
"651 145 OFFCURVE",
"659 147 OFFCURVE",
"666 150 CURVE SMOOTH",
"695 163 OFFCURVE",
"709 197 OFFCURVE",
"709 252 CURVE SMOOTH",
"709 287 OFFCURVE",
"703 356 OFFCURVE",
"644 356 CURVE SMOOTH",
"631 356 OFFCURVE",
"620 352 OFFCURVE",
"609 344 CURVE",
"584 324 OFFCURVE",
"572 291 OFFCURVE",
"574 244 CURVE",
"583 179 OFFCURVE",
"607 146 OFFCURVE",
"644 145 CURVE SMOOTH"
);
}
);
width = 1198;
},
{
layerId = "0EF112A6-69F8-47E9-9D72-C545F6D6A613";
width = 600;
}
);
note = tml_Uu;
unicode = 0B8A;
},
{
glyphname = tml_E;
lastChange = "2017-08-08 00:00:50 +0000";
layers = (
{
layerId = "B24528F6-199A-4A7E-931E-F430756048DC";
paths = (
{
closed = 1;
nodes = (
"304 389 LINE",
"203 387 OFFCURVE",
"141 338 OFFCURVE",
"135 239 CURVE SMOOTH",
"133 207 OFFCURVE",
"141 79 OFFCURVE",
"235 79 CURVE SMOOTH",
"263 79 OFFCURVE",
"284 96 OFFCURVE",
"284 125 CURVE SMOOTH",
"284 157 OFFCURVE",
"263 179 OFFCURVE",
"227 179 CURVE SMOOTH",
"195 179 OFFCURVE",
"148 152 OFFCURVE",
"138 117 CURVE",
"111 180 LINE",
"120 230 OFFCURVE",
"179 274 OFFCURVE",
"241 274 CURVE SMOOTH",
"339 274 OFFCURVE",
"380 202 OFFCURVE",
"380 133 CURVE SMOOTH",
"380 53 OFFCURVE",
"330 -12 OFFCURVE",
"230 -12 CURVE SMOOTH",
"113 -12 OFFCURVE",
"40 78 OFFCURVE",
"40 219 CURVE SMOOTH",
"40 430 OFFCURVE",
"207 483 OFFCURVE",
"304 483 CURVE"
);
},
{
closed = 1;
nodes = (
"587 483 LINE",
"707 483 LINE",
"696 396 LINE",
"586 397 LINE",
"586 0 LINE",
"468 -1 LINE",
"468 389 LINE",
"304 389 LINE",
"304 483 LINE"
);
}
);
width = 727;
},
{
layerId = "0EF112A6-69F8-47E9-9D72-C545F6D6A613";
width = 600;
}
);
note = tml_E;
unicode = 0B8E;
},
{
glyphname = tml_Ee;
lastChange = "2017-08-26 22:06:29 +0000";
layers = (
{
components = (
{
name = tml_E;
}
);
layerId = "B24528F6-199A-4A7E-931E-F430756048DC";
paths = (
{
closed = 1;
nodes = (
"585 0 LINE",
"339 -201 LINE",
"267 -127 LINE",
"468 59 LINE"
);
}
);
width = 727;
},
{
layerId = "0EF112A6-69F8-47E9-9D72-C545F6D6A613";
width = 600;
}
);
note = tml_Ee;
rightMetricsKey = tml_E;
unicode = 0B8F;
},
{
glyphname = tml_Ai;
lastChange = "2017-08-07 23:54:18 +0000";
layers = (
{
layerId = "B24528F6-199A-4A7E-931E-F430756048DC";
paths = (
{
closed = 1;
nodes = (
"45 40 OFFCURVE",
"47 57 OFFCURVE",
"51 74 CURVE",
"84 195 OFFCURVE",
"195 200 OFFCURVE",
"380 221 CURVE SMOOTH",
"568 242 OFFCURVE",
"687 264 OFFCURVE",
"687 401 CURVE SMOOTH",
"687 414 OFFCURVE",
"686 427 OFFCURVE",
"684 439 CURVE SMOOTH",
"672 501 OFFCURVE",
"633 532 OFFCURVE",
"566 532 CURVE SMOOTH",
"547 532 OFFCURVE",
"530 528 OFFCURVE",
"515 521 CURVE SMOOTH",
"458 492 OFFCURVE",
"429 418 OFFCURVE",
"430 299 CURVE",
"380 299 LINE",
"380 316 OFFCURVE",
"380 333 OFFCURVE",
"379 349 CURVE SMOOTH",
"370 473 OFFCURVE",
"324 535 OFFCURVE",
"240 535 CURVE SMOOTH",
"190 535 OFFCURVE",
"151 518 OFFCURVE",
"124 485 CURVE",
"137 492 OFFCURVE",
"152 495 OFFCURVE",
"169 495 CURVE SMOOTH",
"183 495 OFFCURVE",
"197 492 OFFCURVE",
"211 487 CURVE",
"260 467 OFFCURVE",
"284 425 OFFCURVE",
"284 362 CURVE SMOOTH",
"284 309 OFFCURVE",
"261 234 OFFCURVE",
"164 234 CURVE SMOOTH",
"145 234 OFFCURVE",
"127 238 OFFCURVE",
"111 245 CURVE SMOOTH",
"18 286 OFFCURVE",
"32 437 OFFCURVE",
"75 502 CURVE SMOOTH",
"146 610 OFFCURVE",
"349 618 OFFCURVE",
"406 465 CURVE",
"436 542 OFFCURVE",
"489 580 OFFCURVE",
"566 581 CURVE SMOOTH",
"601 581 OFFCURVE",
"632 573 OFFCURVE",
"659 558 CURVE SMOOTH",
"763 498 OFFCURVE",
"785 274 OFFCURVE",
"584 203 CURVE SMOOTH",
"546 191 OFFCURVE",
"478 180 OFFCURVE",
"381 170 CURVE",
"379 170 LINE",
"378 170 LINE",
"163 146 OFFCURVE",
"96 125 OFFCURVE",
"96 22 CURVE SMOOTH",
"96 -4 OFFCURVE",
"104 -28 OFFCURVE",
"119 -49 CURVE SMOOTH",
"146 -86 OFFCURVE",
"185 -105 OFFCURVE",
"236 -105 CURVE SMOOTH",
"250 -105 OFFCURVE",
"263 -104 OFFCURVE",
"276 -101 CURVE",
"344 -88 OFFCURVE",
"378 -29 OFFCURVE",
"378 74 CURVE",
"430 74 LINE",
"431 -44 OFFCURVE",
"473 -103 OFFCURVE",
"557 -104 CURVE",
"632 -101 OFFCURVE",
"696 -37 OFFCURVE",
"659 74 CURVE",
"709 81 LINE",
"721 42 OFFCURVE",
"722 2 OFFCURVE",
"712 -39 CURVE SMOOTH",
"676 -191 OFFCURVE",
"474 -175 OFFCURVE",
"415 -83 CURVE",
"407 -66 OFFCURVE",
"403 -57 OFFCURVE",
"403 -57 CURVE SMOOTH",
"403 -57 OFFCURVE",
"400 -64 OFFCURVE",
"394 -79 CURVE",
"366 -130 OFFCURVE",
"311 -155 OFFCURVE",
"230 -155 CURVE SMOOTH",
"195 -155 OFFCURVE",
"162 -147 OFFCURVE",
"132 -131 CURVE SMOOTH",
"74 -100 OFFCURVE",
"45 -49 OFFCURVE",
"45 21 CURVE SMOOTH"
);
},
{
closed = 1;
nodes = (
"179 280 OFFCURVE",
"192 284 OFFCURVE",
"203 292 CURVE",
"227 308 OFFCURVE",
"239 332 OFFCURVE",
"239 363 CURVE SMOOTH",
"239 377 OFFCURVE",
"237 390 OFFCURVE",
"233 402 CURVE SMOOTH",
"222 435 OFFCURVE",
"201 451 OFFCURVE",
"170 451 CURVE SMOOTH",
"154 451 OFFCURVE",
"140 447 OFFCURVE",
"127 440 CURVE SMOOTH",
"102 426 OFFCURVE",
"90 403 OFFCURVE",
"90 370 CURVE SMOOTH",
"90 355 OFFCURVE",
"92 342 OFFCURVE",
"96 329 CURVE SMOOTH",
"107 296 OFFCURVE",
"130 280 OFFCURVE",
"164 280 CURVE SMOOTH"
);
}
);
width = 779;
},
{
layerId = "0EF112A6-69F8-47E9-9D72-C545F6D6A613";
width = 600;
}
);
note = tml_Ai;
unicode = 0B90;
},
{
glyphname = tml_O;
lastChange = "2017-08-07 23:54:18 +0000";
layers = (
{
layerId = "B24528F6-199A-4A7E-931E-F430756048DC";
paths = (
{
closed = 1;
nodes = (
"188 194 OFFCURVE",
"201 197 OFFCURVE",
"214 204 CURVE",
"243 221 OFFCURVE",
"257 248 OFFCURVE",
"257 286 CURVE SMOOTH",
"257 299 OFFCURVE",
"255 312 OFFCURVE",
"251 323 CURVE SMOOTH",
"238 358 OFFCURVE",
"214 375 OFFCURVE",
"177 375 CURVE SMOOTH",
"164 375 OFFCURVE",
"153 373 OFFCURVE",
"142 369 CURVE SMOOTH",
"108 357 OFFCURVE",
"91 331 OFFCURVE",
"90 290 CURVE",
"91 277 OFFCURVE",
"93 264 OFFCURVE",
"96 252 CURVE",
"109 213 OFFCURVE",
"134 194 OFFCURVE",
"173 194 CURVE SMOOTH"
);
},
{
closed = 1;
nodes = (
"248 -164 OFFCURVE",
"149 -108 OFFCURVE",
"149 23 CURVE",
"198 23 LINE",
"198 0 OFFCURVE",
"203 -22 OFFCURVE",
"214 -43 CURVE SMOOTH",
"238 -90 OFFCURVE",
"278 -114 OFFCURVE",
"334 -114 CURVE SMOOTH",
"355 -114 OFFCURVE",
"375 -110 OFFCURVE",
"392 -103 CURVE SMOOTH",
"442 -82 OFFCURVE",
"469 -37 OFFCURVE",
"474 31 CURVE",
"459 32 OFFCURVE",
"445 36 OFFCURVE",
"432 41 CURVE",
"387 62 OFFCURVE",
"364 104 OFFCURVE",
"364 169 CURVE SMOOTH",
"364 299 LINE",
"414 299 LINE",
"414 292 OFFCURVE",
"415 284 OFFCURVE",
"416 277 CURVE SMOOTH",
"423 226 OFFCURVE",
"447 200 OFFCURVE",
"490 200 CURVE SMOOTH",
"506 200 OFFCURVE",
"521 203 OFFCURVE",
"534 210 CURVE SMOOTH",
"574 231 OFFCURVE",
"594 276 OFFCURVE",
"594 345 CURVE SMOOTH",
"594 469 OFFCURVE",
"490 561 OFFCURVE",
"355 561 CURVE SMOOTH",
"324 561 OFFCURVE",
"294 557 OFFCURVE",
"266 548 CURVE SMOOTH",
"191 525 OFFCURVE",
"139 477 OFFCURVE",
"110 403 CURVE",
"131 416 OFFCURVE",
"155 422 OFFCURVE",
"182 422 CURVE SMOOTH",
"206 422 OFFCURVE",
"228 415 OFFCURVE",
"249 401 CURVE SMOOTH",
"286 376 OFFCURVE",
"304 337 OFFCURVE",
"304 285 CURVE SMOOTH",
"304 225 OFFCURVE",
"268 146 OFFCURVE",
"177 146 CURVE SMOOTH",
"154 146 OFFCURVE",
"133 151 OFFCURVE",
"114 160 CURVE SMOOTH",
"66 184 OFFCURVE",
"42 233 OFFCURVE",
"42 307 CURVE SMOOTH",
"42 458 OFFCURVE",
"132 610 OFFCURVE",
"355 610 CURVE SMOOTH",
"506 610 OFFCURVE",
"644 513 OFFCURVE",
"644 341 CURVE SMOOTH",
"644 252 OFFCURVE",
"598 152 OFFCURVE",
"490 152 CURVE SMOOTH",
"459 152 OFFCURVE",
"433 161 OFFCURVE",
"412 179 CURVE",
"412 168 LINE SMOOTH",
"413 108 OFFCURVE",
"438 77 OFFCURVE",
"487 76 CURVE SMOOTH",
"608 76 LINE",
"608 29 LINE",
"522 29 LINE",
"518 -54 OFFCURVE",
"472 -164 OFFCURVE",
"333 -164 CURVE SMOOTH"
);
}
);
width = 686;
},
{
layerId = "0EF112A6-69F8-47E9-9D72-C545F6D6A613";
width = 600;
}
);
note = tml_O;
unicode = 0B92;
},
{
glyphname = tml_Oo;
lastChange = "2017-08-07 23:54:18 +0000";
layers = (
{
layerId = "B24528F6-199A-4A7E-931E-F430756048DC";
paths = (
{
closed = 1;
nodes = (
"188 194 OFFCURVE",
"201 197 OFFCURVE",
"214 204 CURVE",
"243 221 OFFCURVE",
"257 248 OFFCURVE",
"257 286 CURVE SMOOTH",
"257 299 OFFCURVE",
"255 312 OFFCURVE",
"251 323 CURVE SMOOTH",
"238 358 OFFCURVE",
"214 375 OFFCURVE",
"177 375 CURVE SMOOTH",
"164 375 OFFCURVE",
"153 373 OFFCURVE",
"142 369 CURVE SMOOTH",
"108 357 OFFCURVE",
"91 331 OFFCURVE",
"90 290 CURVE",
"91 277 OFFCURVE",
"93 264 OFFCURVE",
"96 252 CURVE",
"109 213 OFFCURVE",
"134 194 OFFCURVE",
"173 194 CURVE SMOOTH"
);
},
{
closed = 1;
nodes = (
"247 -164 OFFCURVE",
"129 -122 OFFCURVE",
"129 1 CURVE SMOOTH",
"129 61 OFFCURVE",
"165 121 OFFCURVE",
"246 121 CURVE SMOOTH",
"261 121 OFFCURVE",
"276 119 OFFCURVE",
"291 114 CURVE SMOOTH",
"383 81 OFFCURVE",
"379 -54 OFFCURVE",
"298 -114 CURVE",
"311 -115 OFFCURVE",
"321 -116 OFFCURVE",
"330 -116 CURVE SMOOTH",
"355 -116 OFFCURVE",
"377 -111 OFFCURVE",
"397 -101 CURVE SMOOTH",
"444 -78 OFFCURVE",
"470 -34 OFFCURVE",
"473 31 CURVE",
"460 32 OFFCURVE",
"447 36 OFFCURVE",
"434 41 CURVE",
"387 61 OFFCURVE",
"364 104 OFFCURVE",
"364 169 CURVE SMOOTH",
"364 299 LINE",
"414 299 LINE",
"414 292 OFFCURVE",
"415 284 OFFCURVE",
"416 277 CURVE SMOOTH",
"423 226 OFFCURVE",
"447 200 OFFCURVE",
"490 200 CURVE SMOOTH",
"506 200 OFFCURVE",
"521 203 OFFCURVE",
"534 210 CURVE SMOOTH",
"574 231 OFFCURVE",
"594 276 OFFCURVE",
"594 345 CURVE SMOOTH",
"594 469 OFFCURVE",
"490 561 OFFCURVE",
"355 561 CURVE SMOOTH",
"324 561 OFFCURVE",
"294 557 OFFCURVE",
"266 548 CURVE SMOOTH",
"191 525 OFFCURVE",
"139 477 OFFCURVE",
"110 403 CURVE",
"131 416 OFFCURVE",
"155 422 OFFCURVE",
"182 422 CURVE SMOOTH",
"206 422 OFFCURVE",
"228 415 OFFCURVE",
"249 401 CURVE SMOOTH",
"286 376 OFFCURVE",
"304 337 OFFCURVE",
"304 285 CURVE SMOOTH",
"304 225 OFFCURVE",
"268 146 OFFCURVE",
"177 146 CURVE SMOOTH",
"154 146 OFFCURVE",
"133 151 OFFCURVE",
"114 160 CURVE SMOOTH",
"66 184 OFFCURVE",
"42 233 OFFCURVE",
"42 307 CURVE SMOOTH",
"42 458 OFFCURVE",
"132 610 OFFCURVE",
"355 610 CURVE SMOOTH",
"506 610 OFFCURVE",
"644 513 OFFCURVE",
"644 341 CURVE SMOOTH",
"644 252 OFFCURVE",
"598 152 OFFCURVE",
"490 152 CURVE SMOOTH",
"459 152 OFFCURVE",
"433 161 OFFCURVE",
"412 179 CURVE",
"412 168 LINE SMOOTH",
"413 108 OFFCURVE",
"438 77 OFFCURVE",
"487 76 CURVE SMOOTH",
"608 76 LINE",
"608 29 LINE",
"522 29 LINE",
"518 -56 OFFCURVE",
"468 -164 OFFCURVE",
"331 -164 CURVE SMOOTH"
);
},
{
closed = 1;
nodes = (
"177 -3 OFFCURVE",
"177 -7 OFFCURVE",
"178 -12 CURVE",
"183 -50 OFFCURVE",
"205 -78 OFFCURVE",
"244 -97 CURVE",
"245 -97 OFFCURVE",
"245 -97 OFFCURVE",
"246 -96 CURVE",
"291 -71 OFFCURVE",
"314 -38 OFFCURVE",
"314 3 CURVE SMOOTH",
"314 13 OFFCURVE",
"312 23 OFFCURVE",
"309 32 CURVE SMOOTH",
"299 60 OFFCURVE",
"278 74 OFFCURVE",
"247 74 CURVE SMOOTH",
"237 74 OFFCURVE",
"227 72 OFFCURVE",
"218 69 CURVE SMOOTH",
"191 59 OFFCURVE",
"177 36 OFFCURVE",
"177 1 CURVE SMOOTH"
);
}
);
width = 686;
},
{
layerId = "0EF112A6-69F8-47E9-9D72-C545F6D6A613";
width = 600;
}
);
note = tml_Oo;
unicode = 0B93;
},
{
glyphname = tml_Au;
lastChange = "2017-08-07 23:58:39 +0000";
layers = (
{
layerId = "B24528F6-199A-4A7E-931E-F430756048DC";
paths = (
{
closed = 1;
nodes = (
"823 -21 OFFCURVE",
"798 -12 OFFCURVE",
"777 7 CURVE SMOOTH",
"730 49 OFFCURVE",
"706 126 OFFCURVE",
"706 238 CURVE SMOOTH",
"706 320 OFFCURVE",
"719 389 OFFCURVE",
"746 445 CURVE SMOOTH",
"827 613 OFFCURVE",
"1020 601 OFFCURVE",
"1096 477 CURVE",
"1096 560 LINE",
"1527 560 LINE",
"1527 511 LINE",
"1395 511 LINE",
"1395 1 LINE",
"1345 1 LINE",
"1345 511 LINE",
"1146 511 LINE",
"1146 1 LINE",
"1094 1 LINE",
"1094 278 LINE SMOOTH",
"1094 379 OFFCURVE",
"1071 524 OFFCURVE",
"934 524 CURVE SMOOTH",
"905 524 OFFCURVE",
"879 516 OFFCURVE",
"855 501 CURVE SMOOTH",
"800 465 OFFCURVE",
"768 397 OFFCURVE",
"758 298 CURVE",
"783 335 OFFCURVE",
"816 354 OFFCURVE",
"857 355 CURVE SMOOTH",
"879 355 OFFCURVE",
"899 349 OFFCURVE",
"918 336 CURVE SMOOTH",
"963 305 OFFCURVE",
"986 250 OFFCURVE",
"986 171 CURVE SMOOTH",
"986 86 OFFCURVE",
"953 -21 OFFCURVE",
"850 -21 CURVE SMOOTH"
);
},
{
closed = 1;
nodes = (
"865 29 OFFCURVE",
"877 32 OFFCURVE",
"888 39 CURVE SMOOTH",
"921 60 OFFCURVE",
"938 105 OFFCURVE",
"938 173 CURVE SMOOTH",
"938 225 OFFCURVE",
"926 310 OFFCURVE",
"853 310 CURVE SMOOTH",
"832 310 OFFCURVE",
"814 302 OFFCURVE",
"798 285 CURVE SMOOTH",
"769 255 OFFCURVE",
"757 210 OFFCURVE",
"762 150 CURVE",
"776 71 OFFCURVE",
"806 30 OFFCURVE",
"852 29 CURVE SMOOTH"
);
},
{
closed = 1;
nodes = (
"188 194 OFFCURVE",
"201 197 OFFCURVE",
"214 204 CURVE",
"243 221 OFFCURVE",
"257 248 OFFCURVE",
"257 286 CURVE SMOOTH",
"257 299 OFFCURVE",
"255 312 OFFCURVE",
"251 323 CURVE SMOOTH",
"238 358 OFFCURVE",
"214 375 OFFCURVE",
"177 375 CURVE SMOOTH",
"164 375 OFFCURVE",
"151 373 OFFCURVE",
"140 369 CURVE SMOOTH",
"107 356 OFFCURVE",
"91 330 OFFCURVE",
"91 291 CURVE SMOOTH",
"91 278 OFFCURVE",
"93 266 OFFCURVE",
"97 254 CURVE",
"108 214 OFFCURVE",
"134 194 OFFCURVE",
"173 194 CURVE SMOOTH"
);
},
{
closed = 1;
nodes = (
"248 -164 OFFCURVE",
"149 -108 OFFCURVE",
"149 23 CURVE",
"199 23 LINE",
"199 1 OFFCURVE",
"204 -20 OFFCURVE",
"214 -41 CURVE SMOOTH",
"237 -90 OFFCURVE",
"277 -114 OFFCURVE",
"334 -114 CURVE SMOOTH",
"355 -114 OFFCURVE",
"375 -110 OFFCURVE",
"394 -102 CURVE SMOOTH",
"443 -81 OFFCURVE",
"470 -36 OFFCURVE",
"474 32 CURVE",
"459 33 OFFCURVE",
"444 37 OFFCURVE",
"431 43 CURVE SMOOTH",
"386 64 OFFCURVE",
"364 106 OFFCURVE",
"364 169 CURVE SMOOTH",
"364 299 LINE",
"414 299 LINE",
"414 292 OFFCURVE",
"415 284 OFFCURVE",
"416 277 CURVE SMOOTH",
"423 226 OFFCURVE",
"447 200 OFFCURVE",
"490 200 CURVE SMOOTH",
"506 200 OFFCURVE",
"521 203 OFFCURVE",
"534 210 CURVE SMOOTH",
"574 231 OFFCURVE",
"594 276 OFFCURVE",
"594 345 CURVE SMOOTH",
"594 469 OFFCURVE",
"490 561 OFFCURVE",
"355 561 CURVE SMOOTH",
"322 561 OFFCURVE",
"291 556 OFFCURVE",
"262 547 CURVE SMOOTH",
"189 524 OFFCURVE",
"139 476 OFFCURVE",
"111 403 CURVE",
"151 427 OFFCURVE",
"208 429 OFFCURVE",
"249 401 CURVE SMOOTH",
"286 376 OFFCURVE",
"304 337 OFFCURVE",
"304 285 CURVE SMOOTH",
"304 225 OFFCURVE",
"268 146 OFFCURVE",
"177 146 CURVE SMOOTH",
"154 146 OFFCURVE",
"133 151 OFFCURVE",
"114 160 CURVE SMOOTH",
"66 184 OFFCURVE",
"42 233 OFFCURVE",
"42 307 CURVE SMOOTH",
"42 458 OFFCURVE",
"132 610 OFFCURVE",
"355 610 CURVE SMOOTH",
"506 610 OFFCURVE",
"644 513 OFFCURVE",
"644 341 CURVE SMOOTH",
"644 252 OFFCURVE",
"598 152 OFFCURVE",
"490 152 CURVE SMOOTH",
"459 152 OFFCURVE",
"434 161 OFFCURVE",
"413 179 CURVE",
"413 168 LINE SMOOTH",
"414 108 OFFCURVE",
"438 77 OFFCURVE",
"487 76 CURVE SMOOTH",
"608 76 LINE",
"608 29 LINE",
"522 29 LINE",
"518 -54 OFFCURVE",
"472 -164 OFFCURVE",
"333 -164 CURVE SMOOTH"
);
}
);
width = 1525;
},
{
layerId = "0EF112A6-69F8-47E9-9D72-C545F6D6A613";
width = 600;
}
);
note = tml_Au;
unicode = 0B94;
},
{
glyphname = tml_Ka;
lastChange = "2017-08-07 23:31:23 +0000";
layers = (
{
layerId = "B24528F6-199A-4A7E-931E-F430756048DC";
paths = (
{
closed = 1;
nodes = (
"36 253 OFFCURVE",
"98 309 OFFCURVE",
"216 309 CURVE SMOOTH",
"467 309 LINE SMOOTH",
"541 309 OFFCURVE",
"653 280 OFFCURVE",
"653 146 CURVE SMOOTH",
"653 16 OFFCURVE",
"554 -21 OFFCURVE",
"472 -21 CURVE SMOOTH",
"451 -21 LINE",
"441 57 LINE",
"512 59 OFFCURVE",
"539 106 OFFCURVE",
"539 147 CURVE SMOOTH",
"539 204 OFFCURVE",
"484 219 OFFCURVE",
"443 219 CURVE SMOOTH",
"207 221 LINE SMOOTH",
"154 221 OFFCURVE",
"126 192 OFFCURVE",
"126 152 CURVE SMOOTH",
"126 109 OFFCURVE",
"168 68 OFFCURVE",
"229 68 CURVE SMOOTH",
"284 68 OFFCURVE",
"328 109 OFFCURVE",
"328 186 CURVE SMOOTH",
"328 257 LINE",
"338 269 LINE",
"338 398 LINE",
"240 398 LINE",
"240 277 LINE",
"155 277 LINE",
"155 480 LINE",
"544 480 LINE",
"537 398 LINE",
"441 398 LINE",
"441 176 LINE SMOOTH",
"441 72 OFFCURVE",
"381 -23 OFFCURVE",
"238 -23 CURVE SMOOTH",
"98 -23 OFFCURVE",
"36 70 OFFCURVE",
"36 145 CURVE SMOOTH"
);
}
);
width = 665;
},
{
layerId = "0EF112A6-69F8-47E9-9D72-C545F6D6A613";
width = 600;
}
);
note = tml_Ka;
unicode = 0B95;
},
{
glyphname = tml_Nga;
lastChange = "2017-08-26 22:00:25 +0000";
layers = (
{
layerId = "B24528F6-199A-4A7E-931E-F430756048DC";
paths = (
{
closed = 1;
nodes = (
"57 481 LINE",
"488 481 LINE",
"483 380 LINE",
"363 380 LINE",
"363 165 LINE",
"253 165 LINE",
"253 380 LINE",
"173 380 LINE",
"173 -5 LINE",
"57 -5 LINE"
);
},
{
closed = 1;
nodes = (
"748 -4 LINE",
"278 -4 LINE",
"295 90 LINE",
"427 90 LINE",
"482 150 OFFCURVE",
"453 227 OFFCURVE",
"409 227 CURVE SMOOTH",
"372 227 OFFCURVE",
"364 202 OFFCURVE",
"364 166 CURVE",
"310 193 LINE",
"312 236 OFFCURVE",
"338 322 OFFCURVE",
"450 321 CURVE SMOOTH",
"550 320 OFFCURVE",
"624 196 OFFCURVE",
"542 90 CURVE",
"629 90 LINE",
"629 480 LINE",
"747 470 LINE",
"747 82 LINE"
);
}
);
width = 798;
},
{
layerId = "0EF112A6-69F8-47E9-9D72-C545F6D6A613";
width = 600;
}
);
note = tml_Nga;
unicode = 0B99;
},
{
glyphname = tml_Ca;
lastChange = "2017-08-26 22:03:21 +0000";
layers = (
{
layerId = "B24528F6-199A-4A7E-931E-F430756048DC";
paths = (
{
closed = 1;
nodes = (
"36 253 OFFCURVE",
"98 309 OFFCURVE",
"216 309 CURVE SMOOTH",
"537 309 LINE",
"535 219 LINE",
"207 221 LINE SMOOTH",
"154 221 OFFCURVE",
"126 192 OFFCURVE",
"126 152 CURVE SMOOTH",
"126 109 OFFCURVE",
"168 68 OFFCURVE",
"229 68 CURVE SMOOTH",
"284 68 OFFCURVE",
"328 109 OFFCURVE",
"328 186 CURVE SMOOTH",
"328 257 LINE",
"338 269 LINE",
"338 398 LINE",
"240 398 LINE",
"240 277 LINE",
"155 277 LINE",
"155 480 LINE",
"546 480 LINE",
"544 398 LINE",
"441 398 LINE",
"441 176 LINE SMOOTH",
"441 72 OFFCURVE",
"381 -23 OFFCURVE",
"238 -23 CURVE SMOOTH",
"98 -23 OFFCURVE",
"36 70 OFFCURVE",
"36 145 CURVE SMOOTH"
);
}
);
width = 567;
},
{
layerId = "0EF112A6-69F8-47E9-9D72-C545F6D6A613";
width = 600;
}
);
note = tml_Ca;
unicode = 0B9A;
},
{
glyphname = tml_Ja;
lastChange = "2017-08-07 23:54:18 +0000";
layers = (
{
layerId = "B24528F6-199A-4A7E-931E-F430756048DC";
paths = (
{
closed = 1;
nodes = (
"191 -155 OFFCURVE",
"160 -148 OFFCURVE",
"133 -135 CURVE SMOOTH",
"74 -105 OFFCURVE",
"45 -53 OFFCURVE",
"45 21 CURVE SMOOTH",
"45 43 OFFCURVE",
"48 63 OFFCURVE",
"54 82 CURVE SMOOTH",
"95 199 OFFCURVE",
"200 198 OFFCURVE",
"380 222 CURVE",
"381 222 LINE",
"382 222 LINE",
"383 222 LINE",
"384 223 LINE",
"385 223 LINE",
"386 223 LINE",
"387 223 LINE",
"388 223 LINE",
"389 223 LINE",
"390 223 LINE",
"391 224 LINE",
"392 224 LINE",
"393 224 LINE",
"394 224 LINE",
"395 224 LINE",
"396 224 LINE",
"581 251 OFFCURVE",
"686 270 OFFCURVE",
"686 401 CURVE SMOOTH",
"686 418 OFFCURVE",
"684 434 OFFCURVE",
"680 449 CURVE SMOOTH",
"666 504 OFFCURVE",
"630 531 OFFCURVE",
"573 531 CURVE SMOOTH",
"564 531 OFFCURVE",
"554 530 OFFCURVE",
"545 528 CURVE SMOOTH",
"470 513 OFFCURVE",
"432 441 OFFCURVE",
"432 312 CURVE SMOOTH",
"432 299 LINE",
"381 299 LINE",
"381 314 LINE SMOOTH",
"381 347 OFFCURVE",
"378 376 OFFCURVE",
"373 403 CURVE SMOOTH",
"354 491 OFFCURVE",
"310 535 OFFCURVE",
"241 535 CURVE SMOOTH",
"190 535 OFFCURVE",
"151 518 OFFCURVE",
"124 485 CURVE",
"137 492 OFFCURVE",
"152 495 OFFCURVE",
"169 495 CURVE SMOOTH",
"183 495 OFFCURVE",
"197 492 OFFCURVE",
"210 487 CURVE SMOOTH",
"259 468 OFFCURVE",
"284 426 OFFCURVE",
"284 362 CURVE SMOOTH",
"284 309 OFFCURVE",
"261 234 OFFCURVE",
"164 234 CURVE SMOOTH",
"146 234 OFFCURVE",
"129 237 OFFCURVE",
"114 243 CURVE SMOOTH",
"17 284 OFFCURVE",
"32 437 OFFCURVE",
"75 502 CURVE SMOOTH",
"147 610 OFFCURVE",
"347 619 OFFCURVE",
"407 463 CURVE",
"436 541 OFFCURVE",
"491 580 OFFCURVE",
"573 581 CURVE SMOOTH",
"601 581 OFFCURVE",
"626 576 OFFCURVE",
"649 566 CURVE SMOOTH",
"708 539 OFFCURVE",
"737 484 OFFCURVE",
"737 401 CURVE SMOOTH",
"736 209 OFFCURVE",
"576 191 OFFCURVE",
"379 170 CURVE SMOOTH",
"202 149 OFFCURVE",
"97 133 OFFCURVE",
"97 22 CURVE SMOOTH",
"97 -2 OFFCURVE",
"103 -24 OFFCURVE",
"114 -43 CURVE SMOOTH",
"138 -83 OFFCURVE",
"176 -103 OFFCURVE",
"229 -103 CURVE SMOOTH",
"251 -103 OFFCURVE",
"272 -97 OFFCURVE",
"293 -85 CURVE",
"314 -72 OFFCURVE",
"344 -44 OFFCURVE",
"381 0 CURVE SMOOTH",
"398 21 OFFCURVE",
"412 36 OFFCURVE",
"421 46 CURVE SMOOTH",
"472 99 OFFCURVE",
"526 126 OFFCURVE",
"583 126 CURVE SMOOTH",
"610 126 OFFCURVE",
"635 121 OFFCURVE",
"656 110 CURVE SMOOTH",
"701 87 OFFCURVE",
"724 46 OFFCURVE",
"724 -14 CURVE SMOOTH",
"724 -78 OFFCURVE",
"678 -157 OFFCURVE",
"574 -154 CURVE SMOOTH",
"478 -154 LINE",
"478 -104 LINE",
"571 -104 LINE SMOOTH",
"578 -104 OFFCURVE",
"586 -103 OFFCURVE",
"594 -102 CURVE",
"645 -93 OFFCURVE",
"671 -63 OFFCURVE",
"671 -13 CURVE SMOOTH",
"671 -3 OFFCURVE",
"670 6 OFFCURVE",
"668 15 CURVE",
"657 56 OFFCURVE",
"627 76 OFFCURVE",
"576 76 CURVE SMOOTH",
"554 76 OFFCURVE",
"533 70 OFFCURVE",
"512 58 CURVE",
"491 45 OFFCURVE",
"464 17 OFFCURVE",
"430 -26 CURVE SMOOTH",
"413 -48 OFFCURVE",
"399 -64 OFFCURVE",
"389 -75 CURVE SMOOTH",
"340 -128 OFFCURVE",
"285 -155 OFFCURVE",
"224 -155 CURVE SMOOTH"
);
},
{
closed = 1;
nodes = (
"179 280 OFFCURVE",
"192 284 OFFCURVE",
"203 292 CURVE",
"227 308 OFFCURVE",
"239 332 OFFCURVE",
"239 363 CURVE SMOOTH",
"239 377 OFFCURVE",
"237 390 OFFCURVE",
"233 402 CURVE SMOOTH",
"222 435 OFFCURVE",
"201 451 OFFCURVE",
"170 451 CURVE SMOOTH",
"156 451 OFFCURVE",
"143 448 OFFCURVE",
"132 443 CURVE SMOOTH",
"105 430 OFFCURVE",
"91 405 OFFCURVE",
"90 370 CURVE SMOOTH",
"90 357 OFFCURVE",
"92 345 OFFCURVE",
"95 334 CURVE SMOOTH",
"106 298 OFFCURVE",
"129 280 OFFCURVE",
"164 280 CURVE SMOOTH"
);
}
);
width = 745;
},
{
layerId = "0EF112A6-69F8-47E9-9D72-C545F6D6A613";
width = 600;
}
);
note = tml_Ja;
unicode = 0B9C;
},
{
glyphname = tml_Nya;
lastChange = "2017-08-07 23:54:18 +0000";
layers = (
{
layerId = "B24528F6-199A-4A7E-931E-F430756048DC";
paths = (
{
closed = 1;
nodes = (
"332 -24 OFFCURVE",
"309 -15 OFFCURVE",
"288 2 CURVE SMOOTH",
"239 43 OFFCURVE",
"215 121 OFFCURVE",
"215 235 CURVE SMOOTH",
"215 399 OFFCURVE",
"282 557 OFFCURVE",
"449 560 CURVE SMOOTH",
"767 560 LINE",
"767 512 LINE",
"635 512 LINE",
"635 316 LINE",
"678 368 OFFCURVE",
"752 362 OFFCURVE",
"793 337 CURVE SMOOTH",
"848 303 OFFCURVE",
"876 231 OFFCURVE",
"876 122 CURVE SMOOTH",
"876 42 OFFCURVE",
"861 -28 OFFCURVE",
"832 -89 CURVE SMOOTH",
"771 -214 OFFCURVE",
"657 -276 OFFCURVE",
"492 -275 CURVE SMOOTH",
"229 -274 OFFCURVE",
"42 -89 OFFCURVE",
"42 227 CURVE SMOOTH",
"42 360 OFFCURVE",
"75 475 OFFCURVE",
"140 572 CURVE",
"183 547 LINE",
"124 458 OFFCURVE",
"95 352 OFFCURVE",
"94 227 CURVE SMOOTH",
"94 -17 OFFCURVE",
"229 -224 OFFCURVE",
"493 -224 CURVE SMOOTH",
"688 -224 OFFCURVE",
"826 -112 OFFCURVE",
"826 125 CURVE SMOOTH",
"826 150 OFFCURVE",
"824 174 OFFCURVE",
"821 195 CURVE SMOOTH",
"808 272 OFFCURVE",
"774 310 OFFCURVE",
"719 310 CURVE SMOOTH",
"709 310 OFFCURVE",
"699 309 OFFCURVE",
"690 306 CURVE SMOOTH",
"655 295 OFFCURVE",
"636 265 OFFCURVE",
"635 218 CURVE SMOOTH",
"635 1 LINE",
"585 1 LINE",
"585 512 LINE",
"453 512 LINE SMOOTH",
"422 512 OFFCURVE",
"394 504 OFFCURVE",
"369 488 CURVE SMOOTH",
"312 453 OFFCURVE",
"278 389 OFFCURVE",
"267 295 CURVE",
"292 332 OFFCURVE",
"325 351 OFFCURVE",
"366 352 CURVE SMOOTH",
"388 352 OFFCURVE",
"409 345 OFFCURVE",
"428 332 CURVE SMOOTH",
"473 301 OFFCURVE",
"495 246 OFFCURVE",
"495 168 CURVE SMOOTH",
"495 83 OFFCURVE",
"462 -24 OFFCURVE",
"359 -24 CURVE SMOOTH"
);
},
{
closed = 1;
nodes = (
"374 25 OFFCURVE",
"387 29 OFFCURVE",
"398 36 CURVE SMOOTH",
"431 58 OFFCURVE",
"447 102 OFFCURVE",
"447 169 CURVE SMOOTH",
"447 221 OFFCURVE",
"435 306 OFFCURVE",
"362 306 CURVE SMOOTH",
"341 306 OFFCURVE",
"322 298 OFFCURVE",
"306 281 CURVE SMOOTH",
"278 251 OFFCURVE",
"266 206 OFFCURVE",
"271 147 CURVE",
"285 67 OFFCURVE",
"315 26 OFFCURVE",
"361 25 CURVE SMOOTH"
);
}
);
width = 918;
},
{
layerId = "0EF112A6-69F8-47E9-9D72-C545F6D6A613";
width = 600;
}
);
note = tml_Nya;
unicode = 0B9E;
},
{
glyphname = tml_Tta;
lastChange = "2017-08-26 22:03:09 +0000";
layers = (
{
layerId = "B24528F6-199A-4A7E-931E-F430756048DC";
paths = (
{
closed = 1;
nodes = (
"47 -1 LINE",
"48 85 LINE",
"48 477 LINE",
"166 483 LINE",
"166 93 LINE",
"580 93 LINE",
"578 -1 LINE"
);
}
);
width = 606;
},
{
layerId = "0EF112A6-69F8-47E9-9D72-C545F6D6A613";
width = 600;
}
);
note = tml_Tta;
unicode = 0B9F;
},
{
glyphname = tml_Nna;
lastChange = "2017-08-07 23:54:18 +0000";
layers = (
{
layerId = "B24528F6-199A-4A7E-931E-F430756048DC";
paths = (
{
closed = 1;
nodes = (
"160 -21 OFFCURVE",
"135 -12 OFFCURVE",
"113 7 CURVE SMOOTH",
"66 49 OFFCURVE",
"42 126 OFFCURVE",
"42 237 CURVE SMOOTH",
"42 426 OFFCURVE",
"161 572 OFFCURVE",
"340 572 CURVE SMOOTH",
"403 572 OFFCURVE",
"458 557 OFFCURVE",
"507 528 CURVE",
"556 557 OFFCURVE",
"613 572 OFFCURVE",
"678 572 CURVE SMOOTH",
"743 572 OFFCURVE",
"801 556 OFFCURVE",
"852 525 CURVE",
"895 549 OFFCURVE",
"945 561 OFFCURVE",
"1001 561 CURVE SMOOTH",
"1259 561 LINE",
"1259 511 LINE",
"1143 511 LINE",
"1143 1 LINE",
"1092 1 LINE",
"1092 511 LINE",
"1002 511 LINE SMOOTH",
"964 511 OFFCURVE",
"929 504 OFFCURVE",
"898 491 CURVE",
"966 427 OFFCURVE",
"1000 336 OFFCURVE",
"1001 217 CURVE SMOOTH",
"1001 186 OFFCURVE",
"999 157 OFFCURVE",
"995 131 CURVE SMOOTH",
"978 28 OFFCURVE",
"930 -23 OFFCURVE",
"851 -23 CURVE SMOOTH",
"824 -23 OFFCURVE",
"801 -16 OFFCURVE",
"780 -3 CURVE SMOOTH",
"725 32 OFFCURVE",
"698 105 OFFCURVE",
"698 214 CURVE SMOOTH",
"698 338 OFFCURVE",
"734 431 OFFCURVE",
"806 494 CURVE",
"767 514 OFFCURVE",
"725 524 OFFCURVE",
"678 524 CURVE SMOOTH",
"631 524 OFFCURVE",
"589 515 OFFCURVE",
"552 496 CURVE",
"623 433 OFFCURVE",
"658 339 OFFCURVE",
"659 216 CURVE SMOOTH",
"659 179 OFFCURVE",
"656 146 OFFCURVE",
"650 115 CURVE SMOOTH",
"630 23 OFFCURVE",
"583 -23 OFFCURVE",
"510 -23 CURVE SMOOTH",
"483 -23 OFFCURVE",
"458 -16 OFFCURVE",
"437 -2 CURVE SMOOTH",
"330 70 OFFCURVE",
"323 364 OFFCURVE",
"464 495 CURVE",
"425 514 OFFCURVE",
"384 524 OFFCURVE",
"339 524 CURVE SMOOTH",
"247 523 OFFCURVE",
"125 469 OFFCURVE",
"96 301 CURVE",
"121 336 OFFCURVE",
"154 354 OFFCURVE",
"193 355 CURVE SMOOTH",
"213 355 OFFCURVE",
"232 349 OFFCURVE",
"250 338 CURVE SMOOTH",
"295 309 OFFCURVE",
"317 253 OFFCURVE",
"317 171 CURVE SMOOTH",
"317 91 OFFCURVE",
"292 -21 OFFCURVE",
"187 -21 CURVE SMOOTH"
);
},
{
closed = 1;
nodes = (
"525 25 OFFCURVE",
"540 30 OFFCURVE",
"553 39 CURVE SMOOTH",
"590 66 OFFCURVE",
"609 123 OFFCURVE",
"609 211 CURVE SMOOTH",
"609 325 OFFCURVE",
"575 410 OFFCURVE",
"508 467 CURVE",
"503 463 OFFCURVE",
"498 459 OFFCURVE",
"493 454 CURVE SMOOTH",
"436 397 OFFCURVE",
"407 316 OFFCURVE",
"407 212 CURVE SMOOTH",
"407 151 OFFCURVE",
"415 25 OFFCURVE",
"510 25 CURVE SMOOTH"
);
},
{
closed = 1;
nodes = (
"866 25 OFFCURVE",
"879 29 OFFCURVE",
"892 37 CURVE",
"931 63 OFFCURVE",
"950 122 OFFCURVE",
"950 213 CURVE SMOOTH",
"950 326 OFFCURVE",
"917 409 OFFCURVE",
"852 464 CURVE",
"849 461 OFFCURVE",
"845 459 OFFCURVE",
"842 456 CURVE",
"780 403 OFFCURVE",
"749 322 OFFCURVE",
"749 213 CURVE SMOOTH",
"749 150 OFFCURVE",
"759 25 OFFCURVE",
"851 25 CURVE SMOOTH"
);
},
{
closed = 1;
nodes = (
"201 27 OFFCURVE",
"214 31 OFFCURVE",
"226 39 CURVE SMOOTH",
"258 61 OFFCURVE",
"274 106 OFFCURVE",
"274 173 CURVE SMOOTH",
"274 224 OFFCURVE",
"262 310 OFFCURVE",
"189 310 CURVE SMOOTH",
"168 310 OFFCURVE",
"149 302 OFFCURVE",
"134 285 CURVE SMOOTH",
"105 254 OFFCURVE",
"93 209 OFFCURVE",
"98 150 CURVE",
"98 148 OFFCURVE",
"98 146 OFFCURVE",
"99 144 CURVE",
"112 66 OFFCURVE",
"142 27 OFFCURVE",
"188 27 CURVE SMOOTH"
);
}
);
width = 1301;
},
{
layerId = "0EF112A6-69F8-47E9-9D72-C545F6D6A613";
width = 600;
}
);
note = tml_Nna;
unicode = 0BA3;
},
{
glyphname = tml_Ta;
lastChange = "2017-08-07 23:54:18 +0000";
layers = (
{
layerId = "B24528F6-199A-4A7E-931E-F430756048DC";
paths = (
{
closed = 1;
nodes = (
"189 -141 OFFCURVE",
"149 -152 OFFCURVE",
"146 -236 CURVE",
"95 -236 LINE",
"95 -232 OFFCURVE",
"95 -228 OFFCURVE",
"95 -223 CURVE",
"100 -135 OFFCURVE",
"145 -91 OFFCURVE",
"228 -91 CURVE SMOOTH",
"335 -91 LINE SMOOTH",
"374 -90 OFFCURVE",
"410 -81 OFFCURVE",
"445 -64 CURVE SMOOTH",
"516 -27 OFFCURVE",
"552 31 OFFCURVE",
"552 112 CURVE SMOOTH",
"552 199 OFFCURVE",
"541 284 OFFCURVE",
"404 291 CURVE",
"404 207 LINE SMOOTH",
"404 185 OFFCURVE",
"402 164 OFFCURVE",
"399 144 CURVE",
"380 49 OFFCURVE",
"322 1 OFFCURVE",
"225 1 CURVE SMOOTH",
"189 1 OFFCURVE",
"157 8 OFFCURVE",
"130 22 CURVE SMOOTH",
"73 51 OFFCURVE",
"44 102 OFFCURVE",
"42 175 CURVE SMOOTH",
"41 201 OFFCURVE",
"45 225 OFFCURVE",
"53 247 CURVE SMOOTH",
"72 297 OFFCURVE",
"107 327 OFFCURVE",
"160 338 CURVE",
"160 560 LINE",
"525 560 LINE",
"525 511 LINE",
"404 511 LINE",
"404 341 LINE",
"408 341 OFFCURVE",
"412 341 OFFCURVE",
"416 340 CURVE",
"542 331 OFFCURVE",
"605 256 OFFCURVE",
"605 113 CURVE SMOOTH",
"605 -27 OFFCURVE",
"502 -139 OFFCURVE",
"343 -140 CURVE SMOOTH",
"233 -141 LINE SMOOTH"
);
},
{
closed = 1;
nodes = (
"355 341 LINE",
"355 511 LINE",
"207 511 LINE",
"207 341 LINE"
);
},
{
closed = 1;
nodes = (
"236 50 OFFCURVE",
"250 52 OFFCURVE",
"263 56 CURVE SMOOTH",
"324 73 OFFCURVE",
"354 124 OFFCURVE",
"354 207 CURVE SMOOTH",
"354 289 LINE",
"354 292 LINE",
"212 292 LINE SMOOTH",
"194 292 OFFCURVE",
"177 290 OFFCURVE",
"162 285 CURVE SMOOTH",
"115 269 OFFCURVE",
"92 233 OFFCURVE",
"92 177 CURVE SMOOTH",
"92 153 OFFCURVE",
"97 132 OFFCURVE",
"107 113 CURVE SMOOTH",
"129 71 OFFCURVE",
"167 50 OFFCURVE",
"221 50 CURVE SMOOTH"
);
}
);
width = 647;
},
{
layerId = "0EF112A6-69F8-47E9-9D72-C545F6D6A613";
width = 600;
}
);
note = tml_Ta;
unicode = 0BA4;
},
{
glyphname = tml_Na;
lastChange = "2017-08-07 23:30:20 +0000";
layers = (
{
layerId = "B24528F6-199A-4A7E-931E-F430756048DC";
paths = (
{
closed = 1;
nodes = (
"143 -224 LINE",
"144 -189 OFFCURVE",
"164 -155 OFFCURVE",
"225 -154 CURVE SMOOTH",
"331 -153 LINE SMOOTH",
"523 -151 OFFCURVE",
"622 -29 OFFCURVE",
"622 122 CURVE SMOOTH",
"622 247 OFFCURVE",
"559 323 OFFCURVE",
"459 324 CURVE SMOOTH",
"367 325 OFFCURVE",
"331 239 OFFCURVE",
"329 196 CURVE",
"383 169 LINE",
"383 205 OFFCURVE",
"400 232 OFFCURVE",
"437 232 CURVE SMOOTH",
"481 232 OFFCURVE",
"505 179 OFFCURVE",
"504 127 CURVE SMOOTH",
"501 -7 OFFCURVE",
"436 -60 OFFCURVE",
"306 -60 CURVE SMOOTH",
"200 -60 LINE SMOOTH",
"72 -60 OFFCURVE",
"32 -120 OFFCURVE",
"31 -208 CURVE"
);
},
{
closed = 1;
nodes = (
"153 -5 LINE",
"153 380 LINE",
"283 380 LINE",
"283 -5 LINE",
"393 -5 LINE",
"393 380 LINE",
"483 380 LINE",
"488 481 LINE",
"37 481 LINE",
"37 -5 LINE"
);
}
);
width = 652;
},
{
layerId = "0EF112A6-69F8-47E9-9D72-C545F6D6A613";
width = 600;
}
);
note = tml_Na;
unicode = 0BA8;
},
{
glyphname = tml_Nnna;
lastChange = "2017-08-07 23:54:18 +0000";
layers = (
{
layerId = "B24528F6-199A-4A7E-931E-F430756048DC";
paths = (
{
closed = 1;
nodes = (
"287 524 OFFCURVE",
"247 513 OFFCURVE",
"212 492 CURVE SMOOTH",
"149 454 OFFCURVE",
"110 391 OFFCURVE",
"96 304 CURVE",
"147 372 OFFCURVE",
"216 363 OFFCURVE",
"255 336 CURVE SMOOTH",
"300 305 OFFCURVE",
"323 250 OFFCURVE",
"323 172 CURVE SMOOTH",
"323 89 OFFCURVE",
"293 -20 OFFCURVE",
"186 -20 CURVE SMOOTH",
"159 -20 OFFCURVE",
"135 -11 OFFCURVE",
"114 7 CURVE SMOOTH",
"66 48 OFFCURVE",
"42 125 OFFCURVE",
"42 238 CURVE SMOOTH",
"42 413 OFFCURVE",
"135 572 OFFCURVE",
"331 572 CURVE SMOOTH",
"344 572 LINE SMOOTH",
"404 572 OFFCURVE",
"459 557 OFFCURVE",
"509 528 CURVE",
"551 550 OFFCURVE",
"599 561 OFFCURVE",
"652 561 CURVE SMOOTH",
"921 561 LINE",
"921 512 LINE",
"805 512 LINE",
"805 1 LINE",
"755 1 LINE",
"755 512 LINE",
"651 512 LINE SMOOTH",
"615 512 OFFCURVE",
"583 506 OFFCURVE",
"554 494 CURVE",
"625 430 OFFCURVE",
"661 337 OFFCURVE",
"662 214 CURVE SMOOTH",
"661 57 OFFCURVE",
"612 -22 OFFCURVE",
"514 -23 CURVE SMOOTH",
"490 -23 OFFCURVE",
"468 -18 OFFCURVE",
"448 -7 CURVE SMOOTH",
"391 26 OFFCURVE",
"362 100 OFFCURVE",
"362 214 CURVE SMOOTH",
"362 342 OFFCURVE",
"396 436 OFFCURVE",
"464 497 CURVE",
"427 515 OFFCURVE",
"386 524 OFFCURVE",
"342 524 CURVE SMOOTH",
"331 524 LINE SMOOTH"
);
},
{
closed = 1;
nodes = (
"527 26 OFFCURVE",
"540 29 OFFCURVE",
"552 36 CURVE SMOOTH",
"592 61 OFFCURVE",
"612 120 OFFCURVE",
"612 214 CURVE SMOOTH",
"612 328 OFFCURVE",
"578 413 OFFCURVE",
"509 468 CURVE",
"446 419 OFFCURVE",
"414 334 OFFCURVE",
"413 214 CURVE SMOOTH",
"413 150 OFFCURVE",
"425 26 OFFCURVE",
"514 26 CURVE SMOOTH"
);
},
{
closed = 1;
nodes = (
"201 29 OFFCURVE",
"212 32 OFFCURVE",
"223 38 CURVE",
"257 59 OFFCURVE",
"274 104 OFFCURVE",
"274 173 CURVE SMOOTH",
"274 222 OFFCURVE",
"265 309 OFFCURVE",
"189 309 CURVE SMOOTH",
"168 309 OFFCURVE",
"149 300 OFFCURVE",
"133 283 CURVE SMOOTH",
"105 252 OFFCURVE",
"93 208 OFFCURVE",
"98 151 CURVE",
"112 71 OFFCURVE",
"142 30 OFFCURVE",
"188 29 CURVE SMOOTH"
);
}
);
width = 963;
},
{
layerId = "0EF112A6-69F8-47E9-9D72-C545F6D6A613";
width = 600;
}
);
note = tml_Nnna;
unicode = 0BA9;
},
{
glyphname = tml_Pa;
lastChange = "2017-08-26 22:05:14 +0000";
layers = (
{
layerId = "B24528F6-199A-4A7E-931E-F430756048DC";
paths = (
{
closed = 1;
nodes = (
"50 -1 LINE",
"51 85 LINE",
"51 478 LINE",
"169 483 LINE",
"169 93 LINE",
"423 93 LINE",
"423 478 LINE",
"540 483 LINE",
"540 -1 LINE"
);
}
);
width = 590;
},
{
layerId = "0EF112A6-69F8-47E9-9D72-C545F6D6A613";
width = 600;
}
);
note = tml_Pa;
unicode = 0BAA;
},
{
glyphname = tml_Ma;
lastChange = "2017-08-26 22:06:46 +0000";
layers = (
{
layerId = "B24528F6-199A-4A7E-931E-F430756048DC";
paths = (
{
closed = 1;
nodes = (
"410 3 LINE",
"415 104 LINE",
"166 104 LINE",
"166 486 LINE",
"46 480 LINE",
"46 3 LINE"
);
},
{
closed = 1;
nodes = (
"550 3 OFFCURVE",
"629 95 OFFCURVE",
"628 230 CURVE SMOOTH",
"627 371 OFFCURVE",
"555 496 OFFCURVE",
"405 494 CURVE SMOOTH",
"330 493 OFFCURVE",
"277 449 OFFCURVE",
"277 373 CURVE SMOOTH",
"277 65 LINE",
"392 65 LINE",
"392 332 LINE SMOOTH",
"392 364 OFFCURVE",
"400 383 OFFCURVE",
"426 383 CURVE SMOOTH",
"479 383 OFFCURVE",
"520 325 OFFCURVE",
"520 237 CURVE SMOOTH",
"520 177 OFFCURVE",
"498 103 OFFCURVE",
"408 104 CURVE",
"406 3 LINE"
);
}
);
width = 663;
},
{
layerId = "0EF112A6-69F8-47E9-9D72-C545F6D6A613";
width = 600;
}
);
note = tml_Ma;
unicode = 0BAE;
},
{
glyphname = tml_Ya;
lastChange = "2017-08-26 22:05:59 +0000";
layers = (
{
layerId = "B24528F6-199A-4A7E-931E-F430756048DC";
paths = (
{
closed = 1;
nodes = (
"340 51 OFFCURVE",
"292 -17 OFFCURVE",
"185 -17 CURVE SMOOTH",
"121 -17 OFFCURVE",
"50 29 OFFCURVE",
"50 121 CURVE SMOOTH",
"50 473 LINE",
"168 483 LINE",
"168 164 LINE SMOOTH",
"168 108 OFFCURVE",
"197 82 OFFCURVE",
"230 82 CURVE SMOOTH",
"269 82 OFFCURVE",
"313 110 OFFCURVE",
"313 163 CURVE",
"365 136 LINE"
);
},
{
closed = 1;
nodes = (
"330 -1 LINE",
"303 85 LINE",
"303 473 LINE",
"421 483 LINE",
"421 93 LINE",
"582 93 LINE",
"582 473 LINE",
"699 483 LINE",
"699 -1 LINE"
);
}
);
width = 749;
},
{
layerId = "0EF112A6-69F8-47E9-9D72-C545F6D6A613";
width = 600;
}
);
leftMetricsKey = tml_Pa;
note = tml_Ya;
rightMetricsKey = tml_Pa;
unicode = 0BAF;
},
{
glyphname = tml_Ra;
lastChange = "2017-08-08 00:03:57 +0000";
layers = (
{
components = (
{
name = tml_Ra.alt;
}
);
layerId = "B24528F6-199A-4A7E-931E-F430756048DC";
paths = (
{
closed = 1;
nodes = (
"426 0 LINE",
"200 -191 LINE",
"128 -117 LINE",
"309 59 LINE"
);
}
);
width = 597;
},
{
layerId = "0EF112A6-69F8-47E9-9D72-C545F6D6A613";
width = 600;
}
);
note = tml_Ra;
unicode = 0BB0;
},
{
glyphname = tml_Ra.alt;
lastChange = "2017-08-26 22:06:05 +0000";
layers = (
{
layerId = "B24528F6-199A-4A7E-931E-F430756048DC";
paths = (
{
closed = 1;
nodes = (
"537 482 LINE",
"533 388 LINE",
"427 388 LINE",
"427 -1 LINE",
"310 -1 LINE",
"310 389 LINE",
"166 389 LINE",
"166 -1 LINE",
"48 -1 LINE",
"48 397 LINE",
"47 483 LINE",
"427 483 LINE"
);
}
);
width = 547;
},
{
layerId = "0EF112A6-69F8-47E9-9D72-C545F6D6A613";
width = 600;
}
);
note = tml_Ra.alt;
},
{
glyphname = tml_Rra;
lastChange = "2017-08-07 23:54:18 +0000";
layers = (
{
layerId = "B24528F6-199A-4A7E-931E-F430756048DC";
paths = (
{
closed = 1;
nodes = (
"302 412 OFFCURVE",
"300 431 OFFCURVE",
"296 448 CURVE SMOOTH",
"285 498 OFFCURVE",
"253 523 OFFCURVE",
"200 523 CURVE SMOOTH",
"189 523 OFFCURVE",
"177 522 OFFCURVE",
"166 519 CURVE SMOOTH",
"117 504 OFFCURVE",
"93 462 OFFCURVE",
"93 393 CURVE SMOOTH",
"93 0 LINE",
"42 0 LINE",
"42 405 LINE SMOOTH",
"42 474 OFFCURVE",
"72 575 OFFCURVE",
"204 574 CURVE SMOOTH",
"208 574 OFFCURVE",
"212 574 OFFCURVE",
"216 573 CURVE",
"274 568 OFFCURVE",
"313 540 OFFCURVE",
"333 488 CURVE",
"334 492 OFFCURVE",
"336 496 OFFCURVE",
"339 501 CURVE",
"363 549 OFFCURVE",
"405 573 OFFCURVE",
"465 573 CURVE SMOOTH",
"519 573 OFFCURVE",
"560 555 OFFCURVE",
"589 520 CURVE SMOOTH",
"626 473 OFFCURVE",
"645 377 OFFCURVE",
"645 234 CURVE SMOOTH",
"645 -2 OFFCURVE",
"602 -140 OFFCURVE",
"375 -141 CURVE SMOOTH",
"184 -142 LINE SMOOTH",
"171 -142 OFFCURVE",
"159 -144 OFFCURVE",
"148 -147 CURVE",
"115 -158 OFFCURVE",
"97 -188 OFFCURVE",
"96 -237 CURVE",
"45 -237 LINE",
"45 -231 OFFCURVE",
"45 -225 OFFCURVE",
"46 -218 CURVE",
"53 -133 OFFCURVE",
"97 -91 OFFCURVE",
"179 -91 CURVE SMOOTH",
"369 -91 LINE SMOOTH",
"534 -91 OFFCURVE",
"594 -10 OFFCURVE",
"594 234 CURVE SMOOTH",
"594 340 OFFCURVE",
"586 414 OFFCURVE",
"569 456 CURVE SMOOTH",
"532 549 OFFCURVE",
"369 564 OFFCURVE",
"354 408 CURVE",
"352 0 LINE",
"302 0 LINE",
"302 390 LINE SMOOTH"
);
}
);
width = 687;
},
{
layerId = "0EF112A6-69F8-47E9-9D72-C545F6D6A613";
width = 600;
}
);
note = tml_Rra;
unicode = 0BB1;
},
{
glyphname = tml_La;
lastChange = "2017-08-07 23:54:18 +0000";
layers = (
{
layerId = "B24528F6-199A-4A7E-931E-F430756048DC";
paths = (
{
closed = 1;
nodes = (
"159 -20 OFFCURVE",
"135 -11 OFFCURVE",
"114 7 CURVE SMOOTH",
"66 48 OFFCURVE",
"42 125 OFFCURVE",
"42 238 CURVE SMOOTH",
"42 402 OFFCURVE",
"99 571 OFFCURVE",
"263 571 CURVE SMOOTH",
"308 571 OFFCURVE",
"346 560 OFFCURVE",
"377 537 CURVE SMOOTH",
"432 496 OFFCURVE",
"458 431 OFFCURVE",
"456 341 CURVE SMOOTH",
"456 338 OFFCURVE",
"455 314 OFFCURVE",
"454 268 CURVE SMOOTH",
"453 222 OFFCURVE",
"452 198 OFFCURVE",
"452 196 CURVE",
"449 128 OFFCURVE",
"464 28 OFFCURVE",
"559 28 CURVE SMOOTH",
"574 28 OFFCURVE",
"589 32 OFFCURVE",
"602 41 CURVE SMOOTH",
"649 72 OFFCURVE",
"673 141 OFFCURVE",
"673 250 CURVE SMOOTH",
"673 379 OFFCURVE",
"636 482 OFFCURVE",
"562 557 CURVE",
"606 584 LINE",
"621 569 OFFCURVE",
"636 550 OFFCURVE",
"651 527 CURVE SMOOTH",
"700 448 OFFCURVE",
"724 357 OFFCURVE",
"724 253 CURVE SMOOTH",
"724 210 OFFCURVE",
"720 170 OFFCURVE",
"711 133 CURVE SMOOTH",
"688 29 OFFCURVE",
"637 -23 OFFCURVE",
"560 -23 CURVE SMOOTH",
"527 -23 OFFCURVE",
"499 -14 OFFCURVE",
"475 3 CURVE SMOOTH",
"425 39 OFFCURVE",
"402 102 OFFCURVE",
"405 193 CURVE SMOOTH",
"405 196 OFFCURVE",
"406 223 OFFCURVE",
"407 276 CURVE SMOOTH",
"408 323 OFFCURVE",
"408 348 OFFCURVE",
"408 350 CURVE SMOOTH",
"409 425 OFFCURVE",
"379 524 OFFCURVE",
"264 524 CURVE SMOOTH",
"244 524 OFFCURVE",
"225 520 OFFCURVE",
"207 513 CURVE SMOOTH",
"142 486 OFFCURVE",
"104 414 OFFCURVE",
"93 297 CURVE",
"119 335 OFFCURVE",
"152 354 OFFCURVE",
"193 355 CURVE SMOOTH",
"215 355 OFFCURVE",
"235 349 OFFCURVE",
"254 336 CURVE SMOOTH",
"299 305 OFFCURVE",
"322 250 OFFCURVE",
"322 172 CURVE SMOOTH",
"322 88 OFFCURVE",
"290 -20 OFFCURVE",
"186 -20 CURVE SMOOTH"
);
},
{
closed = 1;
nodes = (
"201 29 OFFCURVE",
"212 32 OFFCURVE",
"223 38 CURVE",
"257 59 OFFCURVE",
"274 104 OFFCURVE",
"274 173 CURVE SMOOTH",
"274 225 OFFCURVE",
"261 310 OFFCURVE",
"189 310 CURVE SMOOTH",
"168 310 OFFCURVE",
"150 302 OFFCURVE",
"135 285 CURVE SMOOTH",
"106 254 OFFCURVE",
"94 210 OFFCURVE",
"98 151 CURVE",
"112 71 OFFCURVE",
"142 30 OFFCURVE",
"188 29 CURVE SMOOTH"
);
}
);
width = 766;
},
{
layerId = "0EF112A6-69F8-47E9-9D72-C545F6D6A613";
width = 600;
}
);
note = tml_La;
unicode = 0BB2;
},
{
glyphname = tml_Lla;
lastChange = "2017-08-07 23:54:18 +0000";
layers = (
{
layerId = "B24528F6-199A-4A7E-931E-F430756048DC";
paths = (
{
closed = 1;
nodes = (
"159 -21 OFFCURVE",
"134 -12 OFFCURVE",
"113 7 CURVE SMOOTH",
"66 49 OFFCURVE",
"42 126 OFFCURVE",
"42 238 CURVE SMOOTH",
"42 320 OFFCURVE",
"55 389 OFFCURVE",
"82 445 CURVE SMOOTH",
"163 613 OFFCURVE",
"357 601 OFFCURVE",
"433 477 CURVE",
"433 560 LINE",
"863 560 LINE",
"863 511 LINE",
"731 511 LINE",
"731 1 LINE",
"681 1 LINE",
"681 511 LINE",
"482 511 LINE",
"482 1 LINE",
"431 1 LINE",
"431 278 LINE SMOOTH",
"431 383 OFFCURVE",
"404 524 OFFCURVE",
"271 524 CURVE SMOOTH",
"242 524 OFFCURVE",
"215 517 OFFCURVE",
"192 502 CURVE SMOOTH",
"137 466 OFFCURVE",
"104 398 OFFCURVE",
"94 297 CURVE",
"119 335 OFFCURVE",
"152 354 OFFCURVE",
"193 355 CURVE SMOOTH",
"215 355 OFFCURVE",
"235 349 OFFCURVE",
"254 336 CURVE SMOOTH",
"299 305 OFFCURVE",
"322 250 OFFCURVE",
"322 171 CURVE SMOOTH",
"322 86 OFFCURVE",
"289 -21 OFFCURVE",
"186 -21 CURVE SMOOTH"
);
},
{
closed = 1;
nodes = (
"201 29 OFFCURVE",
"212 32 OFFCURVE",
"223 38 CURVE",
"257 59 OFFCURVE",
"274 104 OFFCURVE",
"274 173 CURVE SMOOTH",
"274 221 OFFCURVE",
"266 310 OFFCURVE",
"189 310 CURVE SMOOTH",
"168 310 OFFCURVE",
"150 302 OFFCURVE",
"134 285 CURVE SMOOTH",
"105 255 OFFCURVE",
"93 210 OFFCURVE",
"98 150 CURVE",
"112 71 OFFCURVE",
"142 30 OFFCURVE",
"188 29 CURVE SMOOTH"
);
}
);
width = 872;
},
{
layerId = "0EF112A6-69F8-47E9-9D72-C545F6D6A613";
width = 600;
}
);
note = tml_Lla;
unicode = 0BB3;
},
{
glyphname = tml_Llla;
lastChange = "2017-08-26 21:58:59 +0000";
layers = (
{
layerId = "B24528F6-199A-4A7E-931E-F430756048DC";
paths = (
{
closed = 1;
nodes = (
"450 -303 OFFCURVE",
"492 -164 OFFCURVE",
"495 -152 CURVE",
"570 -152 LINE",
"570 -55 LINE",
"482 -55 LINE SMOOTH",
"430 -55 OFFCURVE",
"406 -43 OFFCURVE",
"397 -10 CURVE SMOOTH",
"395 -3 OFFCURVE",
"395 3 OFFCURVE",
"395 10 CURVE",
"371 10 LINE",
"274 10 LINE",
"271 -70 OFFCURVE",
"296 -129 OFFCURVE",
"376 -148 CURVE",
"357 -188 OFFCURVE",
"301 -193 OFFCURVE",
"264 -193 CURVE SMOOTH",
"167 -193 OFFCURVE",
"134 -127 OFFCURVE",
"134 -73 CURVE",
"22 -73 LINE",
"22 -224 OFFCURVE",
"138 -303 OFFCURVE",
"253 -303 CURVE SMOOTH"
);
},
{
closed = 1;
nodes = (
"410 3 LINE",
"415 104 LINE",
"166 104 LINE",
"166 469 LINE",
"46 463 LINE",
"46 3 LINE"
);
},
{
closed = 1;
nodes = (
"550 3 OFFCURVE",
"629 95 OFFCURVE",
"628 230 CURVE SMOOTH",
"627 361 OFFCURVE",
"555 486 OFFCURVE",
"405 484 CURVE SMOOTH",
"330 483 OFFCURVE",
"277 439 OFFCURVE",
"277 363 CURVE SMOOTH",
"277 65 LINE",
"392 65 LINE",
"392 332 LINE SMOOTH",
"392 364 OFFCURVE",
"400 383 OFFCURVE",
"426 383 CURVE SMOOTH",
"479 383 OFFCURVE",
"530 315 OFFCURVE",
"530 237 CURVE SMOOTH",
"530 177 OFFCURVE",
"508 103 OFFCURVE",
"408 104 CURVE",
"406 3 LINE"
);
}
);
width = 642;
},
{
layerId = "0EF112A6-69F8-47E9-9D72-C545F6D6A613";
width = 600;
}
);
note = tml_Llla;
unicode = 0BB4;
},
{
glyphname = tml_Va;
lastChange = "2017-09-05 07:17:53 +0000";
layers = (
{
layerId = "B24528F6-199A-4A7E-931E-F430756048DC";
paths = (
{
closed = 1;
nodes = (
"554 221 CURVE SMOOTH",
"554 167 OFFCURVE",
"542 114 OFFCURVE",
"521 58 CURVE",
"471 83 LINE",
"638 83 LINE",
"638 463 LINE",
"755 473 LINE",
"755 0 LINE",
"425 0 LINE",
"396 49 LINE",
"420 86 OFFCURVE",
"438 138 OFFCURVE",
"438 200 CURVE SMOOTH",
"438 317 OFFCURVE",
"361 375 OFFCURVE",
"277 374 CURVE SMOOTH",
"196 373 OFFCURVE",
"133 318 OFFCURVE",
"127 229 CURVE SMOOTH",
"125 197 OFFCURVE",
"142 84 OFFCURVE",
"226 84 CURVE SMOOTH",
"254 84 OFFCURVE",
"283 98 OFFCURVE",
"283 134 CURVE SMOOTH",
"283 159 OFFCURVE",
"263 179 OFFCURVE",
"227 179 CURVE SMOOTH",
"195 179 OFFCURVE",
"148 152 OFFCURVE",
"138 117 CURVE",
"111 180 LINE",
"120 220 OFFCURVE",
"169 278 OFFCURVE",
"248 278 CURVE SMOOTH",
"331 278 OFFCURVE",
"388 217 OFFCURVE",
"388 137 CURVE SMOOTH",
"388 53 OFFCURVE",
"333 -12 OFFCURVE",
"228 -12 CURVE SMOOTH",
"96 -12 OFFCURVE",
"23 91 OFFCURVE",
"23 212 CURVE SMOOTH",
"23 392 OFFCURVE",
"143 489 OFFCURVE",
"289 489 CURVE SMOOTH",
"441 489 OFFCURVE",
"554 385 OFFCURVE"
);
}
);
width = 805;
},
{
layerId = "0EF112A6-69F8-47E9-9D72-C545F6D6A613";
width = 600;
}
);
note = tml_Va;
rightMetricsKey = "=tml_Pa";
unicode = 0BB5;
},
{
glyphname = tml_Sha;
lastChange = "2017-08-07 23:54:18 +0000";
layers = (
{
layerId = "B24528F6-199A-4A7E-931E-F430756048DC";
paths = (
{
closed = 1;
nodes = (
"99 156 LINE SMOOTH",
"100 75 OFFCURVE",
"131 34 OFFCURVE",
"193 33 CURVE SMOOTH",
"255 34 OFFCURVE",
"287 75 OFFCURVE",
"288 156 CURVE SMOOTH",
"288 560 LINE",
"554 560 LINE SMOOTH",
"603 559 OFFCURVE",
"642 550 OFFCURVE",
"669 533 CURVE SMOOTH",
"722 498 OFFCURVE",
"749 415 OFFCURVE",
"748 284 CURVE SMOOTH",
"747 156 OFFCURVE",
"720 -15 OFFCURVE",
"579 -15 CURVE SMOOTH",
"566 -15 OFFCURVE",
"554 -14 OFFCURVE",
"543 -12 CURVE SMOOTH",
"483 0 OFFCURVE",
"453 52 OFFCURVE",
"453 143 CURVE SMOOTH",
"453 511 LINE",
"339 511 LINE",
"339 156 LINE SMOOTH",
"339 131 OFFCURVE",
"336 109 OFFCURVE",
"331 88 CURVE SMOOTH",
"312 18 OFFCURVE",
"266 -17 OFFCURVE",
"193 -17 CURVE SMOOTH",
"182 -17 OFFCURVE",
"171 -16 OFFCURVE",
"160 -14 CURVE SMOOTH",
"86 -1 OFFCURVE",
"49 55 OFFCURVE",
"49 156 CURVE SMOOTH",
"49 560 LINE",
"99 560 LINE"
);
},
{
closed = 1;
nodes = (
"597 35 OFFCURVE",
"612 40 OFFCURVE",
"627 51 CURVE SMOOTH",
"674 86 OFFCURVE",
"698 163 OFFCURVE",
"698 284 CURVE SMOOTH",
"698 453 OFFCURVE",
"666 511 OFFCURVE",
"563 511 CURVE SMOOTH",
"503 511 LINE",
"503 143 LINE SMOOTH",
"503 124 OFFCURVE",
"504 108 OFFCURVE",
"507 94 CURVE SMOOTH",
"516 55 OFFCURVE",
"540 35 OFFCURVE",
"580 35 CURVE SMOOTH"
);
}
);
width = 790;
},
{
layerId = "0EF112A6-69F8-47E9-9D72-C545F6D6A613";
width = 600;
}
);
note = tml_Sha;
unicode = 0BB6;
},
{
glyphname = tml_Ssa;
lastChange = "2017-08-07 23:54:18 +0000";
layers = (
{
layerId = "B24528F6-199A-4A7E-931E-F430756048DC";
paths = (
{
closed = 1;
nodes = (
"42 402 OFFCURVE",
"102 571 OFFCURVE",
"270 571 CURVE SMOOTH",
"313 571 OFFCURVE",
"352 558 OFFCURVE",
"385 532 CURVE SMOOTH",
"449 482 OFFCURVE",
"481 398 OFFCURVE",
"481 280 CURVE SMOOTH",
"481 209 OFFCURVE",
"466 132 OFFCURVE",
"437 50 CURVE",
"727 50 LINE",
"727 156 LINE",
"686 159 OFFCURVE",
"650 172 OFFCURVE",
"617 194 CURVE SMOOTH",
"551 240 OFFCURVE",
"517 312 OFFCURVE",
"516 410 CURVE",
"516 490 OFFCURVE",
"566 573 OFFCURVE",
"657 573 CURVE SMOOTH",
"679 573 OFFCURVE",
"699 569 OFFCURVE",
"716 561 CURVE SMOOTH",
"759 541 OFFCURVE",
"779 499 OFFCURVE",
"777 435 CURVE SMOOTH",
"777 208 LINE",
"842 223 OFFCURVE",
"875 280 OFFCURVE",
"877 379 CURVE SMOOTH",
"877 472 LINE",
"928 472 LINE",
"928 1 LINE",
"777 1 LINE",
"777 -146 LINE",
"727 -146 LINE",
"727 1 LINE",
"380 1 LINE",
"380 40 LINE",
"381 43 OFFCURVE",
"383 47 OFFCURVE",
"385 52 CURVE SMOOTH",
"416 125 OFFCURVE",
"431 200 OFFCURVE",
"431 279 CURVE SMOOTH",
"431 392 OFFCURVE",
"391 524 OFFCURVE",
"272 524 CURVE SMOOTH",
"244 524 OFFCURVE",
"218 517 OFFCURVE",
"195 503 CURVE SMOOTH",
"139 469 OFFCURVE",
"105 402 OFFCURVE",
"94 303 CURVE",
"145 371 OFFCURVE",
"216 362 OFFCURVE",
"255 335 CURVE SMOOTH",
"300 304 OFFCURVE",
"323 249 OFFCURVE",
"323 171 CURVE SMOOTH",
"323 87 OFFCURVE",
"291 -21 OFFCURVE",
"186 -21 CURVE SMOOTH",
"159 -21 OFFCURVE",
"134 -12 OFFCURVE",
"113 7 CURVE SMOOTH",
"66 49 OFFCURVE",
"42 126 OFFCURVE",
"42 238 CURVE SMOOTH"
);
},
{
closed = 1;
nodes = (
"201 29 OFFCURVE",
"212 32 OFFCURVE",
"223 38 CURVE",
"257 59 OFFCURVE",
"274 104 OFFCURVE",
"274 173 CURVE SMOOTH",
"274 221 OFFCURVE",
"266 310 OFFCURVE",
"189 310 CURVE SMOOTH",
"168 310 OFFCURVE",
"150 302 OFFCURVE",
"134 285 CURVE SMOOTH",
"105 255 OFFCURVE",
"93 210 OFFCURVE",
"98 150 CURVE",
"112 71 OFFCURVE",
"142 30 OFFCURVE",
"188 29 CURVE SMOOTH"
);
},
{
closed = 1;
nodes = (
"566 328 OFFCURVE",
"604 218 OFFCURVE",
"727 206 CURVE",
"727 437 LINE SMOOTH",
"727 448 OFFCURVE",
"726 458 OFFCURVE",
"724 467 CURVE SMOOTH",
"716 505 OFFCURVE",
"696 524 OFFCURVE",
"664 524 CURVE SMOOTH",
"645 524 OFFCURVE",
"629 520 OFFCURVE",
"615 511 CURVE SMOOTH",
"582 491 OFFCURVE",
"566 454 OFFCURVE",
"566 400 CURVE SMOOTH"
);
},
{
closed = 1;
nodes = (
"854 184 OFFCURVE",
"821 164 OFFCURVE",
"777 157 CURVE",
"777 50 LINE",
"877 50 LINE",
"877 215 LINE"
);
}
);
width = 979;
},
{
layerId = "0EF112A6-69F8-47E9-9D72-C545F6D6A613";
width = 600;
}
);
note = tml_Ssa;
unicode = 0BB7;
},
{
glyphname = tml_Sa;
lastChange = "2017-08-07 23:54:18 +0000";
layers = (
{
layerId = "B24528F6-199A-4A7E-931E-F430756048DC";
paths = (
{
closed = 1;
nodes = (
"201 29 OFFCURVE",
"212 32 OFFCURVE",
"223 38 CURVE",
"257 59 OFFCURVE",
"274 104 OFFCURVE",
"274 173 CURVE SMOOTH",
"274 221 OFFCURVE",
"266 310 OFFCURVE",
"189 310 CURVE SMOOTH",
"168 310 OFFCURVE",
"150 302 OFFCURVE",
"134 285 CURVE SMOOTH",
"105 255 OFFCURVE",
"93 210 OFFCURVE",
"98 150 CURVE",
"112 71 OFFCURVE",
"142 30 OFFCURVE",
"188 29 CURVE SMOOTH"
);
},
{
closed = 1;
nodes = (
"761 -23 OFFCURVE",
"735 -16 OFFCURVE",
"714 -1 CURVE SMOOTH",
"680 24 OFFCURVE",
"663 76 OFFCURVE",
"663 154 CURVE SMOOTH",
"663 376 LINE SMOOTH",
"663 387 OFFCURVE",
"663 396 OFFCURVE",
"662 404 CURVE",
"655 564 OFFCURVE",
"537 537 OFFCURVE",
"504 482 CURVE SMOOTH",
"488 454 OFFCURVE",
"480 404 OFFCURVE",
"480 331 CURVE SMOOTH",
"480 323 LINE",
"480 0 LINE",
"430 0 LINE",
"430 323 LINE",
"429 456 OFFCURVE",
"378 523 OFFCURVE",
"276 524 CURVE SMOOTH",
"246 524 OFFCURVE",
"218 516 OFFCURVE",
"193 500 CURVE SMOOTH",
"138 464 OFFCURVE",
"105 397 OFFCURVE",
"94 298 CURVE",
"119 335 OFFCURVE",
"152 354 OFFCURVE",
"193 355 CURVE SMOOTH",
"215 355 OFFCURVE",
"235 349 OFFCURVE",
"254 336 CURVE SMOOTH",
"299 305 OFFCURVE",
"322 250 OFFCURVE",
"322 171 CURVE SMOOTH",
"322 86 OFFCURVE",
"289 -21 OFFCURVE",
"186 -21 CURVE SMOOTH",
"159 -21 OFFCURVE",
"134 -12 OFFCURVE",
"113 7 CURVE SMOOTH",
"66 49 OFFCURVE",
"42 126 OFFCURVE",
"42 238 CURVE SMOOTH",
"42 406 OFFCURVE",
"107 571 OFFCURVE",
"274 571 CURVE SMOOTH",
"359 571 OFFCURVE",
"418 539 OFFCURVE",
"451 474 CURVE",
"474 540 OFFCURVE",
"516 573 OFFCURVE",
"577 574 CURVE SMOOTH",
"584 574 OFFCURVE",
"592 574 OFFCURVE",
"599 573 CURVE SMOOTH",
"675 564 OFFCURVE",
"713 500 OFFCURVE",
"713 382 CURVE SMOOTH",
"713 145 LINE SMOOTH",
"713 134 OFFCURVE",
"713 124 OFFCURVE",
"714 115 CURVE SMOOTH",
"719 56 OFFCURVE",
"745 26 OFFCURVE",
"793 26 CURVE SMOOTH",
"859 27 OFFCURVE",
"892 103 OFFCURVE",
"893 255 CURVE",
"892 372 OFFCURVE",
"863 470 OFFCURVE",
"804 547 CURVE",
"848 573 LINE",
"855 564 OFFCURVE",
"863 554 OFFCURVE",
"870 543 CURVE SMOOTH",
"919 468 OFFCURVE",
"944 372 OFFCURVE",
"944 255 CURVE SMOOTH",
"944 251 OFFCURVE",
"944 247 OFFCURVE",
"944 242 CURVE SMOOTH",
"941 65 OFFCURVE",
"891 -23 OFFCURVE",
"793 -23 CURVE SMOOTH"
);
}
);
width = 986;
},
{
layerId = "0EF112A6-69F8-47E9-9D72-C545F6D6A613";
width = 600;
}
);
note = tml_Sa;
unicode = 0BB8;
},
{
glyphname = tml_Ha;
lastChange = "2017-08-07 23:54:18 +0000";
layers = (
{
layerId = "B24528F6-199A-4A7E-931E-F430756048DC";
paths = (
{
closed = 1;
nodes = (
"201 29 OFFCURVE",
"212 32 OFFCURVE",
"223 38 CURVE",
"257 59 OFFCURVE",
"274 104 OFFCURVE",
"274 173 CURVE SMOOTH",
"274 221 OFFCURVE",
"266 310 OFFCURVE",
"189 310 CURVE SMOOTH",
"168 310 OFFCURVE",
"150 302 OFFCURVE",
"134 285 CURVE SMOOTH",
"105 255 OFFCURVE",
"93 210 OFFCURVE",
"98 150 CURVE",
"112 71 OFFCURVE",
"142 30 OFFCURVE",
"188 29 CURVE SMOOTH"
);
},
{
closed = 1;
nodes = (
"72 -232 OFFCURVE",
"72 -227 OFFCURVE",
"73 -222 CURVE",
"78 -135 OFFCURVE",
"122 -91 OFFCURVE",
"205 -91 CURVE SMOOTH",
"951 -91 LINE SMOOTH",
"1033 -91 OFFCURVE",
"1091 -67 OFFCURVE",
"1126 -20 CURVE SMOOTH",
"1194 73 OFFCURVE",
"1184 377 OFFCURVE",
"1151 458 CURVE SMOOTH",
"1114 546 OFFCURVE",
"949 561 OFFCURVE",
"937 409 CURVE",
"934 0 LINE",
"884 0 LINE",
"884 398 LINE SMOOTH",
"884 414 OFFCURVE",
"883 429 OFFCURVE",
"880 443 CURVE SMOOTH",
"870 496 OFFCURVE",
"837 523 OFFCURVE",
"782 523 CURVE SMOOTH",
"771 523 OFFCURVE",
"761 522 OFFCURVE",
"751 519 CURVE",
"700 506 OFFCURVE",
"675 465 OFFCURVE",
"675 394 CURVE SMOOTH",
"675 1 LINE",
"381 1 LINE",
"381 41 LINE",
"382 44 OFFCURVE",
"384 47 OFFCURVE",
"385 50 CURVE",
"416 123 OFFCURVE",
"431 200 OFFCURVE",
"431 279 CURVE SMOOTH",
"431 392 OFFCURVE",
"391 524 OFFCURVE",
"272 524 CURVE SMOOTH",
"243 524 OFFCURVE",
"217 517 OFFCURVE",
"193 502 CURVE SMOOTH",
"137 466 OFFCURVE",
"104 398 OFFCURVE",
"94 297 CURVE",
"119 335 OFFCURVE",
"152 354 OFFCURVE",
"193 355 CURVE SMOOTH",
"215 355 OFFCURVE",
"235 349 OFFCURVE",
"254 336 CURVE SMOOTH",
"299 305 OFFCURVE",
"322 250 OFFCURVE",
"322 171 CURVE SMOOTH",
"322 86 OFFCURVE",
"289 -21 OFFCURVE",
"186 -21 CURVE SMOOTH",
"159 -21 OFFCURVE",
"134 -12 OFFCURVE",
"113 7 CURVE SMOOTH",
"66 49 OFFCURVE",
"42 126 OFFCURVE",
"42 238 CURVE SMOOTH",
"42 402 OFFCURVE",
"102 571 OFFCURVE",
"270 571 CURVE SMOOTH",
"314 571 OFFCURVE",
"353 558 OFFCURVE",
"386 531 CURVE SMOOTH",
"514 430 OFFCURVE",
"495 219 OFFCURVE",
"438 51 CURVE",
"625 51 LINE",
"625 407 LINE SMOOTH",
"625 440 OFFCURVE",
"631 469 OFFCURVE",
"644 495 CURVE SMOOTH",
"671 548 OFFCURVE",
"719 575 OFFCURVE",
"786 574 CURVE SMOOTH",
"793 574 OFFCURVE",
"800 573 OFFCURVE",
"807 572 CURVE SMOOTH",
"860 565 OFFCURVE",
"897 537 OFFCURVE",
"916 488 CURVE",
"917 490 OFFCURVE",
"918 492 OFFCURVE",
"919 494 CURVE",
"943 547 OFFCURVE",
"986 573 OFFCURVE",
"1047 573 CURVE SMOOTH",
"1102 573 OFFCURVE",
"1144 555 OFFCURVE",
"1172 519 CURVE SMOOTH",
"1209 471 OFFCURVE",
"1227 376 OFFCURVE",
"1227 234 CURVE SMOOTH",
"1227 -1 OFFCURVE",
"1184 -141 OFFCURVE",
"957 -141 CURVE SMOOTH",
"210 -142 LINE SMOOTH",
"194 -142 OFFCURVE",
"180 -144 OFFCURVE",
"167 -149 CURVE",
"139 -161 OFFCURVE",
"124 -190 OFFCURVE",
"123 -237 CURVE",
"72 -237 LINE"
);
}
);
width = 1269;
},
{
layerId = "0EF112A6-69F8-47E9-9D72-C545F6D6A613";
width = 600;
}
);
note = tml_Ha;
unicode = 0BB9;
},
{
glyphname = tml_Om;
lastChange = "2017-08-07 23:54:18 +0000";
layers = (
{
layerId = "B24528F6-199A-4A7E-931E-F430756048DC";
paths = (
{
closed = 1;
nodes = (
"176 -2 OFFCURVE",
"185 -27 OFFCURVE",
"203 -51 CURVE SMOOTH",
"234 -94 OFFCURVE",
"278 -115 OFFCURVE",
"333 -115 CURVE SMOOTH",
"394 -115 OFFCURVE",
"487 -82 OFFCURVE",
"496 31 CURVE",
"483 32 OFFCURVE",
"470 36 OFFCURVE",
"457 41 CURVE",
"410 61 OFFCURVE",
"387 104 OFFCURVE",
"387 169 CURVE SMOOTH",
"387 299 LINE",
"436 299 LINE",
"436 290 OFFCURVE",
"437 282 OFFCURVE",
"438 273 CURVE",
"447 224 OFFCURVE",
"472 200 OFFCURVE",
"513 200 CURVE SMOOTH",
"530 200 OFFCURVE",
"545 204 OFFCURVE",
"559 212 CURVE SMOOTH",
"598 234 OFFCURVE",
"617 278 OFFCURVE",
"617 345 CURVE",
"616 470 OFFCURVE",
"502 561 OFFCURVE",
"366 561 CURVE SMOOTH",
"331 561 OFFCURVE",
"297 556 OFFCURVE",
"266 545 CURVE SMOOTH",
"193 521 OFFCURVE",
"141 474 OFFCURVE",
"112 404 CURVE",
"133 416 OFFCURVE",
"156 422 OFFCURVE",
"182 422 CURVE SMOOTH",
"206 422 OFFCURVE",
"228 415 OFFCURVE",
"249 401 CURVE SMOOTH",
"286 376 OFFCURVE",
"304 337 OFFCURVE",
"304 285 CURVE SMOOTH",
"304 225 OFFCURVE",
"268 146 OFFCURVE",
"177 146 CURVE SMOOTH",
"154 146 OFFCURVE",
"133 151 OFFCURVE",
"114 160 CURVE SMOOTH",
"66 184 OFFCURVE",
"42 233 OFFCURVE",
"42 307 CURVE SMOOTH",
"42 459 OFFCURVE",
"143 610 OFFCURVE",
"366 610 CURVE SMOOTH",
"527 610 OFFCURVE",
"667 505 OFFCURVE",
"667 341 CURVE SMOOTH",
"667 252 OFFCURVE",
"621 152 OFFCURVE",
"513 152 CURVE SMOOTH",
"482 152 OFFCURVE",
"456 161 OFFCURVE",
"435 179 CURVE",
"435 168 LINE SMOOTH",
"436 108 OFFCURVE",
"461 77 OFFCURVE",
"510 76 CURVE SMOOTH",
"631 76 LINE",
"631 29 LINE",
"545 29 LINE",
"541 -62 OFFCURVE",
"469 -164 OFFCURVE",
"333 -164 CURVE SMOOTH",
"236 -164 OFFCURVE",
"126 -96 OFFCURVE",
"126 23 CURVE",
"176 23 LINE"
);
},
{
closed = 1;
nodes = (
"301 53 LINE",
"301 -47 LINE",
"330 -47 LINE",
"330 27 LINE",
"331 46 OFFCURVE",
"340 57 OFFCURVE",
"358 58 CURVE",
"366 58 OFFCURVE",
"374 56 OFFCURVE",
"381 53 CURVE",
"400 42 OFFCURVE",
"410 24 OFFCURVE",
"410 -1 CURVE SMOOTH",
"410 -12 OFFCURVE",
"408 -23 OFFCURVE",
"404 -33 CURVE",
"395 -58 OFFCURVE",
"379 -71 OFFCURVE",
"356 -71 CURVE SMOOTH",
"277 -71 LINE",
"277 53 LINE"
);
},
{
closed = 1;
nodes = (
"356 -47 OFFCURVE",
"358 -47 OFFCURVE",
"361 -46 CURVE",
"378 -41 OFFCURVE",
"386 -26 OFFCURVE",
"386 -1 CURVE",
"384 18 OFFCURVE",
"377 30 OFFCURVE",
"365 33 CURVE",
"358 32 OFFCURVE",
"354 28 OFFCURVE",
"353 20 CURVE",
"353 -47 LINE"
);
},
{
closed = 1;
nodes = (
"316 99 OFFCURVE",
"322 106 OFFCURVE",
"333 107 CURVE",
"334 107 OFFCURVE",
"336 107 OFFCURVE",
"338 106 CURVE",
"358 102 OFFCURVE",
"358 71 OFFCURVE",
"333 68 CURVE",
"322 69 OFFCURVE",
"316 75 OFFCURVE",
"315 86 CURVE"
);
},
{
closed = 1;
nodes = (
"188 194 OFFCURVE",
"201 197 OFFCURVE",
"214 204 CURVE",
"243 221 OFFCURVE",
"257 248 OFFCURVE",
"257 286 CURVE SMOOTH",
"257 299 OFFCURVE",
"255 312 OFFCURVE",
"251 323 CURVE SMOOTH",
"238 358 OFFCURVE",
"214 375 OFFCURVE",
"177 375 CURVE SMOOTH",
"164 375 OFFCURVE",
"153 373 OFFCURVE",
"142 369 CURVE SMOOTH",
"108 357 OFFCURVE",
"91 331 OFFCURVE",
"90 290 CURVE",
"91 277 OFFCURVE",
"93 264 OFFCURVE",
"96 252 CURVE",
"109 213 OFFCURVE",
"134 194 OFFCURVE",
"173 194 CURVE SMOOTH"
);
}
);
width = 709;
},
{
layerId = "0EF112A6-69F8-47E9-9D72-C545F6D6A613";
width = 600;
}
);
note = tml_Om;
unicode = 0BD0;
},
{
glyphname = tml_Visarga;
lastChange = "2017-08-07 23:54:18 +0000";
layers = (
{
layerId = "B24528F6-199A-4A7E-931E-F430756048DC";
paths = (
{
closed = 1;
nodes = (
"512 219 OFFCURVE",
"466 141 OFFCURVE",
"371 141 CURVE SMOOTH",
"308 141 OFFCURVE",
"229 187 OFFCURVE",
"229 282 CURVE SMOOTH",
"229 343 OFFCURVE",
"275 423 OFFCURVE",
"371 423 CURVE SMOOTH",
"434 423 OFFCURVE",
"512 377 OFFCURVE",
"512 282 CURVE SMOOTH"
);
},
{
closed = 1;
nodes = (
"277 267 OFFCURVE",
"282 250 OFFCURVE",
"291 235 CURVE SMOOTH",
"310 205 OFFCURVE",
"336 190 OFFCURVE",
"371 190 CURVE SMOOTH",
"388 190 OFFCURVE",
"405 195 OFFCURVE",
"420 204 CURVE",
"449 223 OFFCURVE",
"463 249 OFFCURVE",
"463 284 CURVE SMOOTH",
"463 301 OFFCURVE",
"459 318 OFFCURVE",
"450 333 CURVE SMOOTH",
"432 362 OFFCURVE",
"406 377 OFFCURVE",
"371 377 CURVE SMOOTH",
"354 377 OFFCURVE",
"337 372 OFFCURVE",
"321 363 CURVE",
"292 345 OFFCURVE",
"277 319 OFFCURVE",
"277 284 CURVE SMOOTH"
);
},
{
closed = 1;
nodes = (
"711 -132 OFFCURVE",
"665 -210 OFFCURVE",
"570 -210 CURVE SMOOTH",
"507 -210 OFFCURVE",
"428 -164 OFFCURVE",
"428 -69 CURVE SMOOTH",
"428 -8 OFFCURVE",
"474 72 OFFCURVE",
"570 72 CURVE SMOOTH",
"633 72 OFFCURVE",
"711 26 OFFCURVE",
"711 -69 CURVE SMOOTH"
);
},
{
closed = 1;
nodes = (
"476 -84 OFFCURVE",
"481 -101 OFFCURVE",
"491 -117 CURVE SMOOTH",
"510 -147 OFFCURVE",
"536 -162 OFFCURVE",
"570 -162 CURVE SMOOTH",
"587 -162 OFFCURVE",
"604 -157 OFFCURVE",
"619 -147 CURVE SMOOTH",
"648 -128 OFFCURVE",
"662 -101 OFFCURVE",
"662 -67 CURVE SMOOTH",
"662 -50 OFFCURVE",
"658 -33 OFFCURVE",
"649 -18 CURVE SMOOTH",
"631 11 OFFCURVE",
"605 26 OFFCURVE",
"570 26 CURVE SMOOTH",
"553 26 OFFCURVE",
"536 21 OFFCURVE",
"520 12 CURVE",
"491 -6 OFFCURVE",
"476 -32 OFFCURVE",
"476 -67 CURVE SMOOTH"
);
},
{
closed = 1;
nodes = (
"332 -132 OFFCURVE",
"286 -210 OFFCURVE",
"191 -210 CURVE SMOOTH",
"128 -210 OFFCURVE",
"49 -164 OFFCURVE",
"49 -69 CURVE SMOOTH",
"49 -8 OFFCURVE",
"95 72 OFFCURVE",
"191 72 CURVE SMOOTH",
"254 72 OFFCURVE",
"332 26 OFFCURVE",
"332 -69 CURVE SMOOTH"
);
},
{
closed = 1;
nodes = (
"97 -85 OFFCURVE",
"102 -102 OFFCURVE",
"112 -117 CURVE SMOOTH",
"131 -147 OFFCURVE",
"157 -162 OFFCURVE",
"191 -162 CURVE SMOOTH",
"208 -162 OFFCURVE",
"225 -157 OFFCURVE",
"240 -147 CURVE SMOOTH",
"269 -128 OFFCURVE",
"283 -101 OFFCURVE",
"283 -67 CURVE SMOOTH",
"283 -50 OFFCURVE",
"279 -33 OFFCURVE",
"270 -18 CURVE SMOOTH",
"252 11 OFFCURVE",
"226 26 OFFCURVE",
"191 26 CURVE SMOOTH",
"174 26 OFFCURVE",
"157 21 OFFCURVE",
"141 12 CURVE",
"112 -6 OFFCURVE",
"97 -32 OFFCURVE",
"97 -67 CURVE SMOOTH"
);
}
);
width = 760;
},
{
layerId = "0EF112A6-69F8-47E9-9D72-C545F6D6A613";
width = 600;
}
);
note = tml_Visarga;
unicode = 0B83;
},
{
glyphname = tml_Ten;
lastChange = "2017-08-09 10:52:40 +0000";
layers = (
{
layerId = "B24528F6-199A-4A7E-931E-F430756048DC";
paths = (
{
closed = 1;
nodes = (
"398 275 LINE",
"403 139 OFFCURVE",
"413 37 OFFCURVE",
"518 40 CURVE SMOOTH",
"531 40 OFFCURVE",
"544 42 OFFCURVE",
"555 46 CURVE",
"624 68 OFFCURVE",
"658 148 OFFCURVE",
"658 286 CURVE SMOOTH",
"658 347 OFFCURVE",
"645 401 OFFCURVE",
"619 448 CURVE SMOOTH",
"558 557 OFFCURVE",
"460 551 OFFCURVE",
"369 463 CURVE",
"337 499 LINE",
"338 500 OFFCURVE",
"340 502 OFFCURVE",
"342 504 CURVE SMOOTH",
"388 551 OFFCURVE",
"439 575 OFFCURVE",
"496 575 CURVE SMOOTH",
"546 575 OFFCURVE",
"588 559 OFFCURVE",
"623 527 CURVE SMOOTH",
"680 472 OFFCURVE",
"709 384 OFFCURVE",
"709 261 CURVE SMOOTH",
"709 198 OFFCURVE",
"699 145 OFFCURVE",
"679 100 CURVE SMOOTH",
"612 -47 OFFCURVE",
"430 -39 OFFCURVE",
"379 80 CURVE",
"378 77 OFFCURVE",
"376 74 OFFCURVE",
"375 70 CURVE",
"351 12 OFFCURVE",
"301 -17 OFFCURVE",
"224 -17 CURVE SMOOTH",
"192 -17 OFFCURVE",
"164 -10 OFFCURVE",
"139 5 CURVE SMOOTH",
"74 43 OFFCURVE",
"42 119 OFFCURVE",
"42 234 CURVE SMOOTH",
"42 266 OFFCURVE",
"45 298 OFFCURVE",
"52 330 CURVE SMOOTH",
"63 388 OFFCURVE",
"91 461 OFFCURVE",
"135 550 CURVE",
"182 525 LINE",
"181 522 OFFCURVE",
"178 517 OFFCURVE",
"174 510 CURVE SMOOTH",
"120 410 OFFCURVE",
"93 320 OFFCURVE",
"93 241 CURVE SMOOTH",
"93 156 OFFCURVE",
"114 33 OFFCURVE",
"225 33 CURVE SMOOTH",
"266 33 OFFCURVE",
"297 46 OFFCURVE",
"316 72 CURVE SMOOTH",
"341 106 OFFCURVE",
"352 179 OFFCURVE",
"349 292 CURVE",
"398 292 LINE"
);
}
);
width = 751;
},
{
layerId = "0EF112A6-69F8-47E9-9D72-C545F6D6A613";
width = 600;
}
);
note = tml_Ten;
unicode = 0BF0;
},
{
glyphname = tml_Hundred;
lastChange = "2017-08-09 10:52:40 +0000";
layers = (
{
layerId = "B24528F6-199A-4A7E-931E-F430756048DC";
paths = (
{
closed = 1;
nodes = (
"230 578 OFFCURVE",
"268 559 OFFCURVE",
"293 521 CURVE",
"303 561 LINE",
"711 561 LINE",
"711 511 LINE",
"602 511 LINE",
"602 1 LINE",
"552 1 LINE",
"552 512 LINE",
"337 512 LINE",
"337 1 LINE",
"286 1 LINE",
"286 390 LINE SMOOTH",
"286 409 OFFCURVE",
"285 425 OFFCURVE",
"282 440 CURVE",
"263 557 OFFCURVE",
"93 565 OFFCURVE",
"92 413 CURVE SMOOTH",
"92 1 LINE",
"42 1 LINE",
"42 424 LINE SMOOTH",
"42 449 OFFCURVE",
"46 471 OFFCURVE",
"53 492 CURVE SMOOTH",
"73 549 OFFCURVE",
"115 578 OFFCURVE",
"179 578 CURVE SMOOTH"
);
}
);
width = 711;
},
{
layerId = "0EF112A6-69F8-47E9-9D72-C545F6D6A613";
width = 600;
}
);
note = tml_Hundred;
unicode = 0BF1;
},
{
glyphname = tml_Thousand;
lastChange = "2017-08-09 10:52:40 +0000";
layers = (
{
layerId = "B24528F6-199A-4A7E-931E-F430756048DC";
paths = (
{
closed = 1;
nodes = (
"357 341 LINE",
"357 511 LINE",
"209 511 LINE",
"209 341 LINE"
);
},
{
closed = 1;
nodes = (
"239 48 OFFCURVE",
"253 50 OFFCURVE",
"267 54 CURVE SMOOTH",
"326 72 OFFCURVE",
"355 123 OFFCURVE",
"355 207 CURVE SMOOTH",
"355 289 LINE",
"355 292 LINE",
"216 292 LINE SMOOTH",
"196 292 OFFCURVE",
"178 289 OFFCURVE",
"161 283 CURVE SMOOTH",
"116 266 OFFCURVE",
"93 231 OFFCURVE",
"93 176 CURVE SMOOTH",
"93 151 OFFCURVE",
"99 129 OFFCURVE",
"110 109 CURVE SMOOTH",
"133 68 OFFCURVE",
"171 48 OFFCURVE",
"224 48 CURVE SMOOTH"
);
},
{
closed = 1;
nodes = (
"734 -101 OFFCURVE",
"803 -63 OFFCURVE",
"803 25 CURVE SMOOTH",
"803 28 OFFCURVE",
"803 32 OFFCURVE",
"803 36 CURVE",
"800 115 OFFCURVE",
"763 158 OFFCURVE",
"690 165 CURVE",
"690 96 LINE SMOOTH",
"690 91 OFFCURVE",
"690 85 OFFCURVE",
"690 80 CURVE",
"685 -8 OFFCURVE",
"642 -52 OFFCURVE",
"559 -51 CURVE SMOOTH",
"479 -51 OFFCURVE",
"417 3 OFFCURVE",
"417 80 CURVE SMOOTH",
"417 101 OFFCURVE",
"422 121 OFFCURVE",
"432 141 CURVE SMOOTH",
"456 190 OFFCURVE",
"496 214 OFFCURVE",
"551 214 CURVE SMOOTH",
"641 214 LINE",
"641 292 LINE",
"406 292 LINE",
"406 207 LINE SMOOTH",
"406 180 OFFCURVE",
"403 154 OFFCURVE",
"397 131 CURVE SMOOTH",
"376 43 OFFCURVE",
"319 -1 OFFCURVE",
"227 -1 CURVE SMOOTH",
"152 -1 OFFCURVE",
"47 32 OFFCURVE",
"44 175 CURVE SMOOTH",
"43 199 OFFCURVE",
"47 222 OFFCURVE",
"54 243 CURVE SMOOTH",
"71 294 OFFCURVE",
"107 326 OFFCURVE",
"161 337 CURVE",
"161 560 LINE",
"526 560 LINE",
"526 511 LINE",
"406 511 LINE",
"406 341 LINE",
"795 341 LINE",
"795 292 LINE",
"690 292 LINE",
"690 213 LINE",
"699 212 OFFCURVE",
"709 211 OFFCURVE",
"718 210 CURVE",
"807 194 OFFCURVE",
"852 132 OFFCURVE",
"852 24 CURVE SMOOTH",
"852 -49 OFFCURVE",
"807 -150 OFFCURVE",
"676 -150 CURVE SMOOTH",
"607 -150 LINE SMOOTH",
"555 -151 OFFCURVE",
"544 -181 OFFCURVE",
"544 -237 CURVE",
"492 -237 LINE",
"492 -224 OFFCURVE",
"492 -214 OFFCURVE",
"493 -205 CURVE SMOOTH",
"499 -138 OFFCURVE",
"539 -103 OFFCURVE",
"613 -102 CURVE SMOOTH",
"671 -102 LINE SMOOTH"
);
},
{
closed = 1;
nodes = (
"570 -3 OFFCURVE",
"579 -2 OFFCURVE",
"588 0 CURVE SMOOTH",
"623 9 OFFCURVE",
"641 43 OFFCURVE",
"641 102 CURVE SMOOTH",
"641 166 LINE",
"554 166 LINE SMOOTH",
"541 166 OFFCURVE",
"529 164 OFFCURVE",
"518 160 CURVE SMOOTH",
"483 148 OFFCURVE",
"466 121 OFFCURVE",
"466 80 CURVE SMOOTH",
"466 66 OFFCURVE",
"469 53 OFFCURVE",
"476 41 CURVE SMOOTH",
"493 12 OFFCURVE",
"520 -3 OFFCURVE",
"559 -3 CURVE SMOOTH"
);
}
);
width = 894;
},
{
layerId = "0EF112A6-69F8-47E9-9D72-C545F6D6A613";
width = 600;
}
);
note = tml_Thousand;
unicode = 0BF2;
},
{
glyphname = tml_One;
lastChange = "2017-08-09 10:52:40 +0000";
layers = (
{
layerId = "B24528F6-199A-4A7E-931E-F430756048DC";
paths = (
{
closed = 1;
nodes = (
"453 49 LINE SMOOTH",
"457 49 OFFCURVE",
"462 49 OFFCURVE",
"467 49 CURVE",
"538 54 OFFCURVE",
"574 93 OFFCURVE",
"574 167 CURVE SMOOTH",
"574 171 OFFCURVE",
"574 175 OFFCURVE",
"574 179 CURVE",
"569 254 OFFCURVE",
"522 292 OFFCURVE",
"432 292 CURVE SMOOTH",
"405 292 LINE",
"405 207 LINE SMOOTH",
"405 180 OFFCURVE",
"402 155 OFFCURVE",
"397 132 CURVE SMOOTH",
"376 44 OFFCURVE",
"319 0 OFFCURVE",
"226 0 CURVE SMOOTH",
"189 0 OFFCURVE",
"157 7 OFFCURVE",
"129 22 CURVE SMOOTH",
"73 51 OFFCURVE",
"44 102 OFFCURVE",
"42 175 CURVE SMOOTH",
"41 198 OFFCURVE",
"44 220 OFFCURVE",
"51 241 CURVE SMOOTH",
"68 294 OFFCURVE",
"105 326 OFFCURVE",
"160 337 CURVE",
"160 560 LINE",
"525 560 LINE",
"525 511 LINE",
"405 511 LINE",
"405 341 LINE",
"445 341 LINE SMOOTH",
"455 341 OFFCURVE",
"465 341 OFFCURVE",
"476 340 CURVE SMOOTH",
"672 319 OFFCURVE",
"677 3 OFFCURVE",
"458 0 CURVE SMOOTH",
"437 0 LINE",
"437 49 LINE"
);
},
{
closed = 1;
nodes = (
"355 341 LINE",
"355 511 LINE",
"207 511 LINE",
"207 341 LINE"
);
},
{
closed = 1;
nodes = (
"237 49 OFFCURVE",
"251 51 OFFCURVE",
"265 55 CURVE SMOOTH",
"324 72 OFFCURVE",
"354 123 OFFCURVE",
"354 207 CURVE SMOOTH",
"354 289 LINE",
"354 292 LINE",
"215 292 LINE SMOOTH",
"195 292 OFFCURVE",
"177 289 OFFCURVE",
"160 283 CURVE SMOOTH",
"115 266 OFFCURVE",
"92 231 OFFCURVE",
"92 176 CURVE SMOOTH",
"92 151 OFFCURVE",
"97 129 OFFCURVE",
"108 110 CURVE SMOOTH",
"131 69 OFFCURVE",
"169 49 OFFCURVE",
"222 49 CURVE SMOOTH"
);
}
);
width = 664;
},
{
layerId = "0EF112A6-69F8-47E9-9D72-C545F6D6A613";
width = 600;
}
);
note = tml_One;
unicode = 0BE7;
},
{
glyphname = tml_Two;
lastChange = "2017-08-09 10:52:40 +0000";
layers = (
{
layerId = "B24528F6-199A-4A7E-931E-F430756048DC";
paths = (
{
closed = 1;
nodes = (
"196 287 OFFCURVE",
"211 291 OFFCURVE",
"224 298 CURVE",
"252 315 OFFCURVE",
"266 343 OFFCURVE",
"266 384 CURVE SMOOTH",
"266 401 OFFCURVE",
"263 416 OFFCURVE",
"257 429 CURVE SMOOTH",
"242 460 OFFCURVE",
"215 475 OFFCURVE",
"176 475 CURVE SMOOTH",
"165 475 OFFCURVE",
"154 473 OFFCURVE",
"143 469 CURVE SMOOTH",
"108 456 OFFCURVE",
"90 425 OFFCURVE",
"90 376 CURVE SMOOTH",
"90 362 OFFCURVE",
"93 348 OFFCURVE",
"100 335 CURVE SMOOTH",
"117 303 OFFCURVE",
"144 287 OFFCURVE",
"181 287 CURVE SMOOTH"
);
},
{
closed = 1;
nodes = (
"153 1 OFFCURVE",
"140 2 OFFCURVE",
"129 4 CURVE SMOOTH",
"75 15 OFFCURVE",
"48 45 OFFCURVE",
"48 94 CURVE SMOOTH",
"48 113 OFFCURVE",
"52 129 OFFCURVE",
"61 144 CURVE SMOOTH",
"80 175 OFFCURVE",
"112 191 OFFCURVE",
"157 191 CURVE SMOOTH",
"229 191 LINE SMOOTH",
"357 192 OFFCURVE",
"422 249 OFFCURVE",
"423 362 CURVE SMOOTH",
"423 458 OFFCURVE",
"364 542 OFFCURVE",
"244 542 CURVE SMOOTH",
"209 542 OFFCURVE",
"178 533 OFFCURVE",
"153 516 CURVE",
"164 517 OFFCURVE",
"173 518 OFFCURVE",
"180 518 CURVE SMOOTH",
"201 518 OFFCURVE",
"222 514 OFFCURVE",
"241 505 CURVE SMOOTH",
"290 483 OFFCURVE",
"314 442 OFFCURVE",
"314 383 CURVE SMOOTH",
"314 322 OFFCURVE",
"279 239 OFFCURVE",
"180 239 CURVE SMOOTH",
"151 239 OFFCURVE",
"126 247 OFFCURVE",
"103 263 CURVE SMOOTH",
"62 292 OFFCURVE",
"42 337 OFFCURVE",
"42 397 CURVE SMOOTH",
"42 481 OFFCURVE",
"95 588 OFFCURVE",
"247 589 CURVE SMOOTH",
"358 589 OFFCURVE",
"474 523 OFFCURVE",
"474 363 CURVE SMOOTH",
"474 329 OFFCURVE",
"469 298 OFFCURVE",
"458 270 CURVE SMOOTH",
"427 187 OFFCURVE",
"356 144 OFFCURVE",
"246 142 CURVE SMOOTH",
"159 141 LINE SMOOTH",
"154 141 OFFCURVE",
"149 141 OFFCURVE",
"144 140 CURVE",
"87 131 OFFCURVE",
"80 50 OFFCURVE",
"168 49 CURVE SMOOTH",
"525 49 LINE",
"525 0 LINE",
"166 0 LINE"
);
}
);
width = 567;
},
{
layerId = "0EF112A6-69F8-47E9-9D72-C545F6D6A613";
width = 600;
}
);
note = tml_Two;
unicode = 0BE8;
},
{
glyphname = tml_Three;
lastChange = "2017-08-09 10:52:40 +0000";
layers = (
{
layerId = "B24528F6-199A-4A7E-931E-F430756048DC";
paths = (
{
closed = 1;
nodes = (
"414 560 LINE",
"414 511 LINE",
"304 511 LINE",
"304 366 LINE",
"349 421 OFFCURVE",
"424 413 OFFCURVE",
"463 392 CURVE SMOOTH",
"508 366 OFFCURVE",
"530 319 OFFCURVE",
"530 250 CURVE SMOOTH",
"530 156 OFFCURVE",
"497 89 OFFCURVE",
"430 49 CURVE",
"667 49 LINE",
"667 0 LINE",
"253 0 LINE",
"253 49 LINE",
"271 49 LINE SMOOTH",
"380 49 OFFCURVE",
"480 107 OFFCURVE",
"480 246 CURVE SMOOTH",
"480 259 OFFCURVE",
"479 271 OFFCURVE",
"477 282 CURVE SMOOTH",
"467 335 OFFCURVE",
"438 362 OFFCURVE",
"389 362 CURVE SMOOTH",
"372 362 OFFCURVE",
"357 358 OFFCURVE",
"344 350 CURVE SMOOTH",
"317 333 OFFCURVE",
"304 306 OFFCURVE",
"304 271 CURVE SMOOTH",
"304 164 LINE",
"253 164 LINE",
"253 511 LINE",
"102 511 LINE",
"102 0 LINE",
"51 0 LINE",
"51 560 LINE"
);
}
);
width = 698;
},
{
layerId = "0EF112A6-69F8-47E9-9D72-C545F6D6A613";
width = 600;
}
);
note = tml_Three;
unicode = 0BE9;
},
{
glyphname = tml_Four;
lastChange = "2017-08-09 10:52:40 +0000";
layers = (
{
layerId = "B24528F6-199A-4A7E-931E-F430756048DC";
paths = (
{
closed = 1;
nodes = (
"357 341 LINE",
"357 511 LINE",
"209 511 LINE",
"209 341 LINE"
);
},
{
closed = 1;
nodes = (
"239 48 OFFCURVE",
"253 50 OFFCURVE",
"267 54 CURVE SMOOTH",
"326 72 OFFCURVE",
"355 123 OFFCURVE",
"355 207 CURVE SMOOTH",
"355 289 LINE",
"355 292 LINE",
"216 292 LINE SMOOTH",
"196 292 OFFCURVE",
"178 289 OFFCURVE",
"161 283 CURVE SMOOTH",
"116 266 OFFCURVE",
"93 231 OFFCURVE",
"93 176 CURVE SMOOTH",
"93 151 OFFCURVE",
"99 128 OFFCURVE",
"111 107 CURVE SMOOTH",
"134 68 OFFCURVE",
"172 48 OFFCURVE",
"224 48 CURVE SMOOTH"
);
},
{
closed = 1;
nodes = (
"636 560 LINE",
"636 292 LINE",
"406 292 LINE",
"406 207 LINE SMOOTH",
"406 180 OFFCURVE",
"403 154 OFFCURVE",
"397 131 CURVE SMOOTH",
"376 43 OFFCURVE",
"319 -1 OFFCURVE",
"227 -1 CURVE SMOOTH",
"152 -1 OFFCURVE",
"47 32 OFFCURVE",
"44 175 CURVE SMOOTH",
"43 199 OFFCURVE",
"47 222 OFFCURVE",
"54 243 CURVE SMOOTH",
"71 294 OFFCURVE",
"107 326 OFFCURVE",
"161 337 CURVE",
"161 560 LINE",
"526 560 LINE",
"526 511 LINE",
"406 511 LINE",
"406 341 LINE",
"588 341 LINE",
"588 560 LINE"
);
}
);
width = 678;
},
{
layerId = "0EF112A6-69F8-47E9-9D72-C545F6D6A613";
width = 600;
}
);
note = tml_Four;
unicode = 0BEA;
},
{
glyphname = tml_Five;
lastChange = "2017-08-09 10:52:40 +0000";
layers = (
{
layerId = "B24528F6-199A-4A7E-931E-F430756048DC";
paths = (
{
closed = 1;
nodes = (
"755 560 LINE",
"755 511 LINE",
"638 511 LINE",
"638 304 LINE",
"681 352 OFFCURVE",
"755 352 OFFCURVE",
"803 309 CURVE SMOOTH",
"849 269 OFFCURVE",
"872 203 OFFCURVE",
"872 110 CURVE SMOOTH",
"872 35 OFFCURVE",
"858 -31 OFFCURVE",
"830 -89 CURVE SMOOTH",
"771 -207 OFFCURVE",
"663 -266 OFFCURVE",
"505 -265 CURVE SMOOTH",
"490 -265 OFFCURVE",
"475 -264 OFFCURVE",
"460 -263 CURVE",
"237 -239 OFFCURVE",
"42 -50 OFFCURVE",
"42 253 CURVE SMOOTH",
"42 572 OFFCURVE",
"226 800 OFFCURVE",
"541 801 CURVE SMOOTH",
"862 801 OFFCURVE",
"1065 614 OFFCURVE",
"1065 310 CURVE SMOOTH",
"1065 -1 LINE",
"1013 -1 LINE",
"1013 284 LINE SMOOTH",
"1013 579 OFFCURVE",
"835 750 OFFCURVE",
"547 750 CURVE SMOOTH",
"312 750 OFFCURVE",
"94 613 OFFCURVE",
"94 253 CURVE SMOOTH",
"94 239 OFFCURVE",
"95 225 OFFCURVE",
"96 211 CURVE SMOOTH",
"113 -38 OFFCURVE",
"291 -216 OFFCURVE",
"515 -215 CURVE SMOOTH",
"706 -214 OFFCURVE",
"822 -84 OFFCURVE",
"822 111 CURVE SMOOTH",
"822 208 OFFCURVE",
"789 295 OFFCURVE",
"714 295 CURVE SMOOTH",
"698 295 OFFCURVE",
"684 290 OFFCURVE",
"671 281 CURVE",
"649 264 OFFCURVE",
"638 238 OFFCURVE",
"638 204 CURVE SMOOTH",
"638 0 LINE",
"587 0 LINE",
"587 511 LINE",
"393 511 LINE",
"393 0 LINE",
"342 0 LINE",
"342 560 LINE"
);
}
);
width = 1117;
},
{
layerId = "0EF112A6-69F8-47E9-9D72-C545F6D6A613";
width = 600;
}
);
note = tml_Five;
unicode = 0BEB;
},
{
glyphname = tml_Six;
lastChange = "2017-08-09 10:52:40 +0000";
layers = (
{
layerId = "B24528F6-199A-4A7E-931E-F430756048DC";
paths = (
{
closed = 1;
nodes = (
"355 341 LINE",
"355 511 LINE",
"207 511 LINE",
"207 341 LINE"
);
},
{
closed = 1;
nodes = (
"189 -1 OFFCURVE",
"156 7 OFFCURVE",
"128 22 CURVE SMOOTH",
"73 51 OFFCURVE",
"44 102 OFFCURVE",
"42 175 CURVE SMOOTH",
"41 199 OFFCURVE",
"45 222 OFFCURVE",
"52 243 CURVE SMOOTH",
"69 294 OFFCURVE",
"105 326 OFFCURVE",
"160 337 CURVE",
"160 560 LINE",
"525 560 LINE",
"525 511 LINE",
"404 511 LINE",
"404 341 LINE",
"447 341 LINE SMOOTH",
"492 340 OFFCURVE",
"527 322 OFFCURVE",
"552 286 CURVE",
"581 322 OFFCURVE",
"623 340 OFFCURVE",
"679 341 CURVE SMOOTH",
"844 341 LINE",
"844 292 LINE",
"762 292 LINE",
"762 0 LINE",
"712 0 LINE",
"712 292 LINE",
"641 292 OFFCURVE",
"574 288 OFFCURVE",
"574 185 CURVE SMOOTH",
"574 0 LINE",
"525 0 LINE",
"525 209 LINE SMOOTH",
"525 215 OFFCURVE",
"524 221 OFFCURVE",
"523 228 CURVE",
"514 271 OFFCURVE",
"486 292 OFFCURVE",
"438 292 CURVE SMOOTH",
"404 292 LINE",
"404 207 LINE SMOOTH",
"404 181 OFFCURVE",
"402 157 OFFCURVE",
"397 135 CURVE SMOOTH",
"376 44 OFFCURVE",
"319 -1 OFFCURVE",
"226 -1 CURVE SMOOTH"
);
},
{
closed = 1;
nodes = (
"238 48 OFFCURVE",
"253 50 OFFCURVE",
"266 54 CURVE SMOOTH",
"325 73 OFFCURVE",
"354 124 OFFCURVE",
"354 207 CURVE SMOOTH",
"354 289 LINE",
"354 292 LINE",
"214 292 LINE SMOOTH",
"194 292 OFFCURVE",
"176 289 OFFCURVE",
"160 283 CURVE SMOOTH",
"115 266 OFFCURVE",
"92 231 OFFCURVE",
"92 176 CURVE SMOOTH",
"92 151 OFFCURVE",
"98 129 OFFCURVE",
"109 108 CURVE",
"132 68 OFFCURVE",
"170 48 OFFCURVE",
"222 48 CURVE SMOOTH"
);
}
);
width = 886;
},
{
layerId = "0EF112A6-69F8-47E9-9D72-C545F6D6A613";
width = 600;
}
);
note = tml_Six;
unicode = 0BEC;
},
{
glyphname = tml_Seven;
lastChange = "2017-08-09 10:52:40 +0000";
layers = (
{
layerId = "B24528F6-199A-4A7E-931E-F430756048DC";
paths = (
{
closed = 1;
nodes = (
"159 -24 OFFCURVE",
"136 -15 OFFCURVE",
"115 2 CURVE SMOOTH",
"66 43 OFFCURVE",
"42 121 OFFCURVE",
"42 235 CURVE SMOOTH",
"42 391 OFFCURVE",
"97 560 OFFCURVE",
"270 560 CURVE SMOOTH",
"488 560 LINE",
"488 0 LINE",
"437 0 LINE",
"437 512 LINE",
"272 512 LINE SMOOTH",
"245 512 OFFCURVE",
"221 506 OFFCURVE",
"198 494 CURVE SMOOTH",
"139 461 OFFCURVE",
"104 395 OFFCURVE",
"94 294 CURVE",
"119 332 OFFCURVE",
"152 351 OFFCURVE",
"193 352 CURVE SMOOTH",
"215 352 OFFCURVE",
"236 345 OFFCURVE",
"255 332 CURVE SMOOTH",
"300 301 OFFCURVE",
"322 246 OFFCURVE",
"322 168 CURVE SMOOTH",
"322 83 OFFCURVE",
"289 -24 OFFCURVE",
"186 -24 CURVE SMOOTH"
);
},
{
closed = 1;
nodes = (
"201 25 OFFCURVE",
"213 28 OFFCURVE",
"224 35 CURVE SMOOTH",
"257 56 OFFCURVE",
"274 100 OFFCURVE",
"274 169 CURVE SMOOTH",
"274 217 OFFCURVE",
"266 306 OFFCURVE",
"189 306 CURVE SMOOTH",
"168 306 OFFCURVE",
"149 298 OFFCURVE",
"133 281 CURVE SMOOTH",
"105 251 OFFCURVE",
"93 206 OFFCURVE",
"98 147 CURVE",
"112 67 OFFCURVE",
"142 26 OFFCURVE",
"188 25 CURVE SMOOTH"
);
}
);
width = 539;
},
{
layerId = "0EF112A6-69F8-47E9-9D72-C545F6D6A613";
width = 600;
}
);
note = tml_Seven;
unicode = 0BED;
},
{
glyphname = tml_Eight;
lastChange = "2017-08-09 10:52:40 +0000";
layers = (
{
layerId = "B24528F6-199A-4A7E-931E-F430756048DC";
paths = (
{
closed = 1;
nodes = (
"670 172 LINE",
"645 44 OFFCURVE",
"547 -104 OFFCURVE",
"304 -104 CURVE SMOOTH",
"172 -104 OFFCURVE",
"44 -51 OFFCURVE",
"44 77 CURVE SMOOTH",
"44 95 OFFCURVE",
"47 112 OFFCURVE",
"53 129 CURVE SMOOTH",
"76 190 OFFCURVE",
"134 221 OFFCURVE",
"227 221 CURVE SMOOTH",
"623 221 LINE",
"624 236 OFFCURVE",
"625 248 OFFCURVE",
"625 257 CURVE SMOOTH",
"625 357 OFFCURVE",
"590 525 OFFCURVE",
"418 525 CURVE SMOOTH",
"388 525 OFFCURVE",
"360 519 OFFCURVE",
"335 508 CURVE",
"339 508 LINE SMOOTH",
"362 508 OFFCURVE",
"383 502 OFFCURVE",
"404 491 CURVE SMOOTH",
"445 468 OFFCURVE",
"465 431 OFFCURVE",
"465 380 CURVE SMOOTH",
"465 355 OFFCURVE",
"459 331 OFFCURVE",
"448 310 CURVE SMOOTH",
"425 269 OFFCURVE",
"388 249 OFFCURVE",
"337 249 CURVE SMOOTH",
"314 249 OFFCURVE",
"292 254 OFFCURVE",
"272 264 CURVE SMOOTH",
"228 287 OFFCURVE",
"206 327 OFFCURVE",
"206 385 CURVE SMOOTH",
"206 468 OFFCURVE",
"264 573 OFFCURVE",
"419 573 CURVE SMOOTH",
"564 573 OFFCURVE",
"678 460 OFFCURVE",
"678 257 CURVE SMOOTH",
"678 242 OFFCURVE",
"678 230 OFFCURVE",
"677 221 CURVE",
"770 221 LINE",
"770 559 LINE",
"820 559 LINE",
"820 -85 LINE",
"770 -85 LINE",
"770 172 LINE"
);
},
{
closed = 1;
nodes = (
"351 296 OFFCURVE",
"363 299 OFFCURVE",
"374 304 CURVE",
"403 319 OFFCURVE",
"417 345 OFFCURVE",
"417 383 CURVE SMOOTH",
"417 398 OFFCURVE",
"413 412 OFFCURVE",
"406 425 CURVE",
"391 450 OFFCURVE",
"367 463 OFFCURVE",
"335 463 CURVE SMOOTH",
"320 463 OFFCURVE",
"306 460 OFFCURVE",
"293 453 CURVE",
"268 438 OFFCURVE",
"255 415 OFFCURVE",
"255 384 CURVE SMOOTH",
"255 369 OFFCURVE",
"258 355 OFFCURVE",
"263 342 CURVE SMOOTH",
"276 311 OFFCURVE",
"301 296 OFFCURVE",
"338 296 CURVE SMOOTH"
);
},
{
closed = 1;
nodes = (
"423 -54 OFFCURVE",
"571 -1 OFFCURVE",
"615 172 CURVE",
"234 172 LINE SMOOTH",
"142 171 OFFCURVE",
"95 140 OFFCURVE",
"94 79 CURVE SMOOTH",
"94 55 OFFCURVE",
"101 33 OFFCURVE",
"115 13 CURVE",
"149 -32 OFFCURVE",
"211 -54 OFFCURVE",
"300 -54 CURVE SMOOTH"
);
}
);
width = 870;
},
{
layerId = "0EF112A6-69F8-47E9-9D72-C545F6D6A613";
width = 600;
}
);
note = tml_Eight;
unicode = 0BEE;
},
{
glyphname = tml_Nine;
lastChange = "2017-08-09 10:52:40 +0000";
layers = (
{
layerId = "B24528F6-199A-4A7E-931E-F430756048DC";
paths = (
{
closed = 1;
nodes = (
"357 341 LINE",
"357 511 LINE",
"209 511 LINE",
"209 341 LINE"
);
},
{
closed = 1;
nodes = (
"239 48 OFFCURVE",
"253 50 OFFCURVE",
"267 54 CURVE SMOOTH",
"326 72 OFFCURVE",
"355 123 OFFCURVE",
"355 207 CURVE SMOOTH",
"355 289 LINE",
"355 292 LINE",
"216 292 LINE SMOOTH",
"196 292 OFFCURVE",
"178 289 OFFCURVE",
"161 283 CURVE SMOOTH",
"116 266 OFFCURVE",
"93 231 OFFCURVE",
"93 176 CURVE SMOOTH",
"93 151 OFFCURVE",
"99 129 OFFCURVE",
"110 109 CURVE SMOOTH",
"133 68 OFFCURVE",
"171 48 OFFCURVE",
"224 48 CURVE SMOOTH"
);
},
{
closed = 1;
nodes = (
"525 342 OFFCURVE",
"550 341 OFFCURVE",
"570 336 CURVE",
"602 352 OFFCURVE",
"640 360 OFFCURVE",
"683 360 CURVE SMOOTH",
"780 360 OFFCURVE",
"890 302 OFFCURVE",
"890 165 CURVE SMOOTH",
"890 146 OFFCURVE",
"888 126 OFFCURVE",
"883 107 CURVE SMOOTH",
"871 55 OFFCURVE",
"847 15 OFFCURVE",
"812 -14 CURVE",
"776 20 LINE",
"778 22 OFFCURVE",
"780 24 OFFCURVE",
"782 27 CURVE",
"822 70 OFFCURVE",
"842 117 OFFCURVE",
"842 166 CURVE SMOOTH",
"842 231 OFFCURVE",
"794 313 OFFCURVE",
"683 313 CURVE SMOOTH",
"666 313 OFFCURVE",
"650 312 OFFCURVE",
"636 309 CURVE",
"684 275 OFFCURVE",
"708 220 OFFCURVE",
"709 144 CURVE SMOOTH",
"709 115 OFFCURVE",
"704 90 OFFCURVE",
"694 69 CURVE SMOOTH",
"673 22 OFFCURVE",
"635 -1 OFFCURVE",
"580 -1 CURVE SMOOTH",
"557 -1 OFFCURVE",
"537 4 OFFCURVE",
"518 15 CURVE SMOOTH",
"477 40 OFFCURVE",
"456 82 OFFCURVE",
"456 142 CURVE SMOOTH",
"456 203 OFFCURVE",
"473 253 OFFCURVE",
"508 292 CURVE",
"406 292 LINE",
"406 207 LINE SMOOTH",
"406 180 OFFCURVE",
"403 154 OFFCURVE",
"397 131 CURVE SMOOTH",
"376 43 OFFCURVE",
"319 -1 OFFCURVE",
"227 -1 CURVE SMOOTH",
"152 -1 OFFCURVE",
"47 32 OFFCURVE",
"44 175 CURVE SMOOTH",
"43 199 OFFCURVE",
"47 222 OFFCURVE",
"54 243 CURVE SMOOTH",
"71 294 OFFCURVE",
"107 326 OFFCURVE",
"161 337 CURVE",
"161 560 LINE",
"526 560 LINE",
"526 511 LINE",
"406 511 LINE",
"406 341 LINE",
"495 341 LINE SMOOTH"
);
},
{
closed = 1;
nodes = (
"598 46 OFFCURVE",
"613 51 OFFCURVE",
"627 61 CURVE",
"650 80 OFFCURVE",
"662 107 OFFCURVE",
"662 143 CURVE SMOOTH",
"662 156 OFFCURVE",
"661 168 OFFCURVE",
"659 180 CURVE SMOOTH",
"649 234 OFFCURVE",
"621 269 OFFCURVE",
"574 285 CURVE",
"528 255 OFFCURVE",
"505 209 OFFCURVE",
"504 146 CURVE SMOOTH",
"504 129 OFFCURVE",
"507 114 OFFCURVE",
"512 100 CURVE SMOOTH",
"525 64 OFFCURVE",
"548 46 OFFCURVE",
"581 46 CURVE SMOOTH"
);
}
);
width = 932;
},
{
layerId = "0EF112A6-69F8-47E9-9D72-C545F6D6A613";
width = 600;
}
);
note = tml_Nine;
unicode = 0BEF;
},
{
glyphname = comma;
lastChange = "2017-09-04 10:06:52 +0000";
layers = (
{
layerId = "B24528F6-199A-4A7E-931E-F430756048DC";
paths = (
{
closed = 1;
nodes = (
"153 -79 OFFCURVE",
"178 24 OFFCURVE",
"167 91 CURVE",
"40 90 LINE",
"48 39 OFFCURVE",
"49 -47 OFFCURVE",
"40 -95 CURVE",
"134 -110 LINE"
);
}
);
width = 180;
},
{
layerId = "0EF112A6-69F8-47E9-9D72-C545F6D6A613";
width = 600;
}
);
unicode = 002C;
},
{
glyphname = hyphen;
lastChange = "2017-08-06 08:35:16 +0000";
layers = (
{
layerId = "0EF112A6-69F8-47E9-9D72-C545F6D6A613";
paths = (
{
closed = 1;
nodes = (
"10 203 LINE",
"404 203 LINE",
"404 321 LINE",
"10 321 LINE"
);
}
);
width = 414;
},
{
layerId = "B24528F6-199A-4A7E-931E-F430756048DC";
paths = (
{
closed = 1;
nodes = (
"10 203 LINE",
"404 203 LINE",
"404 321 LINE",
"10 321 LINE"
);
}
);
width = 414;
}
);
unicode = 002D;
},
{
glyphname = tml_Rupee;
lastChange = "2017-08-09 10:52:40 +0000";
layers = (
{
layerId = "B24528F6-199A-4A7E-931E-F430756048DC";
paths = (
{
closed = 1;
nodes = (
"736 560 LINE",
"736 511 LINE",
"604 511 LINE",
"604 321 LINE",
"648 369 OFFCURVE",
"712 363 OFFCURVE",
"748 344 CURVE SMOOTH",
"805 313 OFFCURVE",
"834 237 OFFCURVE",
"834 118 CURVE SMOOTH",
"834 -93 OFFCURVE",
"701 -267 OFFCURVE",
"468 -267 CURVE SMOOTH",
"225 -266 OFFCURVE",
"42 -57 OFFCURVE",
"42 323 CURVE SMOOTH",
"42 346 OFFCURVE",
"43 368 OFFCURVE",
"44 390 CURVE SMOOTH",
"67 747 OFFCURVE",
"263 954 OFFCURVE",
"492 954 CURVE SMOOTH",
"656 954 OFFCURVE",
"799 881 OFFCURVE",
"799 734 CURVE SMOOTH",
"799 708 OFFCURVE",
"793 684 OFFCURVE",
"782 663 CURVE SMOOTH",
"759 622 OFFCURVE",
"722 601 OFFCURVE",
"671 601 CURVE SMOOTH",
"618 601 OFFCURVE",
"544 635 OFFCURVE",
"544 728 CURVE SMOOTH",
"544 783 OFFCURVE",
"575 860 OFFCURVE",
"668 860 CURVE SMOOTH",
"673 860 OFFCURVE",
"678 860 OFFCURVE",
"682 859 CURVE",
"631 890 OFFCURVE",
"568 905 OFFCURVE",
"492 904 CURVE SMOOTH",
"491 904 OFFCURVE",
"490 904 OFFCURVE",
"489 904 CURVE SMOOTH",
"248 897 OFFCURVE",
"93 654 OFFCURVE",
"93 323 CURVE SMOOTH",
"93 20 OFFCURVE",
"222 -217 OFFCURVE",
"469 -217 CURVE SMOOTH",
"649 -217 OFFCURVE",
"784 -89 OFFCURVE",
"784 119 CURVE SMOOTH",
"784 135 OFFCURVE",
"783 151 OFFCURVE",
"782 166 CURVE SMOOTH",
"773 262 OFFCURVE",
"742 310 OFFCURVE",
"687 310 CURVE SMOOTH",
"677 310 OFFCURVE",
"667 308 OFFCURVE",
"658 304 CURVE SMOOTH",
"622 287 OFFCURVE",
"604 245 OFFCURVE",
"604 179 CURVE SMOOTH",
"604 1 LINE",
"553 1 LINE",
"553 511 LINE",
"357 511 LINE",
"357 1 LINE",
"306 1 LINE",
"306 560 LINE"
);
},
{
closed = 1;
nodes = (
"686 648 OFFCURVE",
"699 651 OFFCURVE",
"711 657 CURVE SMOOTH",
"738 671 OFFCURVE",
"752 694 OFFCURVE",
"751 727 CURVE",
"751 734 OFFCURVE",
"751 739 OFFCURVE",
"750 742 CURVE",
"749 747 OFFCURVE",
"749 752 OFFCURVE",
"748 757 CURVE SMOOTH",
"739 796 OFFCURVE",
"713 815 OFFCURVE",
"670 815 CURVE SMOOTH",
"657 815 OFFCURVE",
"646 812 OFFCURVE",
"635 807 CURVE",
"606 792 OFFCURVE",
"591 766 OFFCURVE",
"591 729 CURVE SMOOTH",
"591 714 OFFCURVE",
"594 701 OFFCURVE",
"601 689 CURVE SMOOTH",
"616 662 OFFCURVE",
"640 648 OFFCURVE",
"672 648 CURVE SMOOTH"
);
}
);
width = 876;
},
{
layerId = "0EF112A6-69F8-47E9-9D72-C545F6D6A613";
width = 600;
}
);
note = tml_Rupee;
unicode = 0BF9;
},
{
glyphname = greater;
lastChange = "2017-09-05 11:02:02 +0000";
layers = (
{
layerId = "B24528F6-199A-4A7E-931E-F430756048DC";
paths = (
{
closed = 1;
nodes = (
"10 203 LINE",
"404 203 LINE",
"404 321 LINE",
"10 321 LINE"
);
}
);
width = 600;
},
{
layerId = "0EF112A6-69F8-47E9-9D72-C545F6D6A613";
width = 600;
}
);
unicode = 003E;
},
{
glyphname = less;
lastChange = "2017-09-05 11:02:32 +0000";
layers = (
{
layerId = "B24528F6-199A-4A7E-931E-F430756048DC";
paths = (
{
closed = 1;
nodes = (
"10 203 LINE",
"404 203 LINE",
"404 321 LINE",
"10 321 LINE"
);
}
);
width = 600;
},
{
layerId = "0EF112A6-69F8-47E9-9D72-C545F6D6A613";
width = 600;
}
);
unicode = 003C;
},
{
glyphname = tml_Day;
lastChange = "2017-08-09 10:52:40 +0000";
layers = (
{
layerId = "B24528F6-199A-4A7E-931E-F430756048DC";
paths = (
{
closed = 1;
nodes = (
"159 -21 OFFCURVE",
"134 -12 OFFCURVE",
"113 7 CURVE SMOOTH",
"66 49 OFFCURVE",
"42 126 OFFCURVE",
"42 238 CURVE SMOOTH",
"42 402 OFFCURVE",
"102 571 OFFCURVE",
"270 571 CURVE SMOOTH",
"314 571 OFFCURVE",
"353 558 OFFCURVE",
"386 531 CURVE SMOOTH",
"514 430 OFFCURVE",
"496 214 OFFCURVE",
"437 50 CURVE",
"601 50 LINE",
"601 1 LINE",
"381 1 LINE",
"381 41 LINE",
"382 44 OFFCURVE",
"384 47 OFFCURVE",
"385 50 CURVE",
"416 123 OFFCURVE",
"431 200 OFFCURVE",
"431 279 CURVE SMOOTH",
"431 391 OFFCURVE",
"392 523 OFFCURVE",
"272 523 CURVE SMOOTH",
"243 523 OFFCURVE",
"216 516 OFFCURVE",
"192 501 CURVE SMOOTH",
"137 465 OFFCURVE",
"104 397 OFFCURVE",
"94 297 CURVE",
"119 335 OFFCURVE",
"152 354 OFFCURVE",
"193 355 CURVE SMOOTH",
"215 355 OFFCURVE",
"235 349 OFFCURVE",
"254 336 CURVE SMOOTH",
"299 305 OFFCURVE",
"322 250 OFFCURVE",
"322 171 CURVE SMOOTH",
"322 86 OFFCURVE",
"289 -21 OFFCURVE",
"186 -21 CURVE SMOOTH"
);
},
{
closed = 1;
nodes = (
"201 29 OFFCURVE",
"212 32 OFFCURVE",
"223 38 CURVE",
"257 59 OFFCURVE",
"274 104 OFFCURVE",
"274 173 CURVE SMOOTH",
"274 221 OFFCURVE",
"266 310 OFFCURVE",
"189 310 CURVE SMOOTH",
"168 310 OFFCURVE",
"150 302 OFFCURVE",
"134 285 CURVE SMOOTH",
"105 255 OFFCURVE",
"93 210 OFFCURVE",
"98 150 CURVE",
"112 71 OFFCURVE",
"142 30 OFFCURVE",
"188 29 CURVE SMOOTH"
);
}
);
width = 612;
},
{
layerId = "0EF112A6-69F8-47E9-9D72-C545F6D6A613";
width = 600;
}
);
note = tml_Day;
unicode = 0BF3;
},
{
glyphname = tml_Month;
lastChange = "2017-08-09 10:52:40 +0000";
layers = (
{
layerId = "B24528F6-199A-4A7E-931E-F430756048DC";
paths = (
{
closed = 1;
nodes = (
"108 559 LINE",
"108 49 LINE",
"285 49 LINE",
"285 435 LINE SMOOTH",
"285 449 OFFCURVE",
"286 463 OFFCURVE",
"288 476 CURVE SMOOTH",
"299 537 OFFCURVE",
"332 570 OFFCURVE",
"386 575 CURVE",
"357 692 OFFCURVE",
"425 800 OFFCURVE",
"574 800 CURVE SMOOTH",
"606 800 OFFCURVE",
"634 796 OFFCURVE",
"658 788 CURVE",
"681 796 OFFCURVE",
"707 800 OFFCURVE",
"737 800 CURVE SMOOTH",
"840 800 OFFCURVE",
"953 725 OFFCURVE",
"904 605 CURVE",
"1035 605 LINE",
"1035 557 LINE",
"852 557 LINE",
"852 593 LINE",
"905 673 OFFCURVE",
"840 753 OFFCURVE",
"739 753 CURVE SMOOTH",
"730 753 OFFCURVE",
"724 753 OFFCURVE",
"719 752 CURVE",
"749 723 OFFCURVE",
"764 686 OFFCURVE",
"765 640 CURVE SMOOTH",
"765 619 OFFCURVE",
"761 601 OFFCURVE",
"752 584 CURVE SMOOTH",
"733 549 OFFCURVE",
"701 532 OFFCURVE",
"656 532 CURVE SMOOTH",
"641 532 OFFCURVE",
"626 534 OFFCURVE",
"613 539 CURVE SMOOTH",
"570 554 OFFCURVE",
"548 588 OFFCURVE",
"548 640 CURVE SMOOTH",
"548 684 OFFCURVE",
"564 721 OFFCURVE",
"596 752 CURVE",
"591 753 OFFCURVE",
"584 753 OFFCURVE",
"574 753 CURVE SMOOTH",
"528 753 OFFCURVE",
"491 741 OFFCURVE",
"463 716 CURVE SMOOTH",
"426 681 OFFCURVE",
"416 633 OFFCURVE",
"435 573 CURVE",
"478 566 OFFCURVE",
"515 546 OFFCURVE",
"544 515 CURVE SMOOTH",
"639 414 OFFCURVE",
"622 240 OFFCURVE",
"599 159 CURVE SMOOTH",
"567 53 OFFCURVE",
"498 0 OFFCURVE",
"391 0 CURVE SMOOTH",
"57 0 LINE",
"57 559 LINE"
);
},
{
closed = 1;
nodes = (
"397 49 OFFCURVE",
"416 51 OFFCURVE",
"434 56 CURVE SMOOTH",
"523 79 OFFCURVE",
"567 160 OFFCURVE",
"567 299 CURVE SMOOTH",
"567 414 OFFCURVE",
"515 528 OFFCURVE",
"408 528 CURVE SMOOTH",
"403 528 OFFCURVE",
"399 528 OFFCURVE",
"394 527 CURVE SMOOTH",
"355 520 OFFCURVE",
"335 488 OFFCURVE",
"335 432 CURVE SMOOTH",
"335 49 LINE",
"377 49 LINE SMOOTH"
);
},
{
closed = 1;
nodes = (
"665 578 OFFCURVE",
"673 580 OFFCURVE",
"681 583 CURVE SMOOTH",
"706 593 OFFCURVE",
"718 612 OFFCURVE",
"718 640 CURVE",
"715 678 OFFCURVE",
"694 710 OFFCURVE",
"655 736 CURVE",
"654 735 OFFCURVE",
"653 735 OFFCURVE",
"651 734 CURVE",
"614 713 OFFCURVE",
"595 682 OFFCURVE",
"595 640 CURVE SMOOTH",
"595 632 OFFCURVE",
"596 624 OFFCURVE",
"599 617 CURVE",
"608 591 OFFCURVE",
"627 578 OFFCURVE",
"656 578 CURVE SMOOTH"
);
}
);
width = 1031;
},
{
layerId = "0EF112A6-69F8-47E9-9D72-C545F6D6A613";
width = 600;
}
);
note = tml_Month;
unicode = 0BF4;
},
{
glyphname = tml_Year;
lastChange = "2017-08-09 10:52:40 +0000";
layers = (
{
layerId = "B24528F6-199A-4A7E-931E-F430756048DC";
paths = (
{
closed = 1;
nodes = (
"261 402 OFFCURVE",
"321 571 OFFCURVE",
"489 571 CURVE SMOOTH",
"533 571 OFFCURVE",
"572 558 OFFCURVE",
"605 531 CURVE SMOOTH",
"733 430 OFFCURVE",
"714 219 OFFCURVE",
"657 51 CURVE",
"843 51 LINE",
"843 560 LINE",
"1278 560 LINE",
"1278 511 LINE",
"1148 511 LINE",
"1147 305 LINE",
"1188 352 OFFCURVE",
"1263 352 OFFCURVE",
"1312 309 CURVE SMOOTH",
"1358 268 OFFCURVE",
"1381 202 OFFCURVE",
"1381 110 CURVE SMOOTH",
"1381 0 OFFCURVE",
"1347 -93 OFFCURVE",
"1278 -170 CURVE SMOOTH",
"1174 -285 OFFCURVE",
"1008 -343 OFFCURVE",
"780 -343 CURVE SMOOTH",
"759 -343 OFFCURVE",
"737 -342 OFFCURVE",
"715 -341 CURVE SMOOTH",
"315 -320 OFFCURVE",
"42 -100 OFFCURVE",
"42 245 CURVE SMOOTH",
"42 259 OFFCURVE",
"42 273 OFFCURVE",
"43 287 CURVE SMOOTH",
"66 634 OFFCURVE",
"358 850 OFFCURVE",
"801 850 CURVE SMOOTH",
"842 850 OFFCURVE",
"884 848 OFFCURVE",
"926 843 CURVE SMOOTH",
"1263 806 OFFCURVE",
"1515 629 OFFCURVE",
"1515 396 CURVE SMOOTH",
"1516 334 OFFCURVE",
"1541 302 OFFCURVE",
"1592 301 CURVE SMOOTH",
"1601 301 OFFCURVE",
"1609 302 OFFCURVE",
"1617 305 CURVE",
"1650 316 OFFCURVE",
"1666 344 OFFCURVE",
"1666 389 CURVE SMOOTH",
"1666 560 LINE",
"1717 560 LINE",
"1717 383 LINE SMOOTH",
"1717 360 OFFCURVE",
"1713 339 OFFCURVE",
"1705 320 CURVE SMOOTH",
"1685 273 OFFCURVE",
"1647 250 OFFCURVE",
"1592 251 CURVE SMOOTH",
"1567 252 OFFCURVE",
"1544 258 OFFCURVE",
"1525 270 CURVE SMOOTH",
"1486 295 OFFCURVE",
"1466 337 OFFCURVE",
"1465 395 CURVE SMOOTH",
"1464 424 OFFCURVE",
"1460 453 OFFCURVE",
"1451 481 CURVE SMOOTH",
"1387 670 OFFCURVE",
"1108 800 OFFCURVE",
"801 800 CURVE SMOOTH",
"366 800 OFFCURVE",
"92 586 OFFCURVE",
"92 245 CURVE SMOOTH",
"92 233 OFFCURVE",
"92 221 OFFCURVE",
"93 210 CURVE SMOOTH",
"112 -90 OFFCURVE",
"374 -293 OFFCURVE",
"781 -293 CURVE SMOOTH",
"1098 -293 OFFCURVE",
"1331 -152 OFFCURVE",
"1331 111 CURVE SMOOTH",
"1331 208 OFFCURVE",
"1298 295 OFFCURVE",
"1223 295 CURVE SMOOTH",
"1207 295 OFFCURVE",
"1193 290 OFFCURVE",
"1180 281 CURVE",
"1158 264 OFFCURVE",
"1147 238 OFFCURVE",
"1147 204 CURVE SMOOTH",
"1146 0 LINE",
"1093 0 LINE",
"1095 511 LINE",
"894 511 LINE",
"894 1 LINE",
"600 1 LINE",
"600 41 LINE",
"601 44 OFFCURVE",
"603 47 OFFCURVE",
"604 50 CURVE",
"635 123 OFFCURVE",
"650 200 OFFCURVE",
"650 279 CURVE SMOOTH",
"650 392 OFFCURVE",
"610 524 OFFCURVE",
"491 524 CURVE SMOOTH",
"462 524 OFFCURVE",
"436 517 OFFCURVE",
"412 502 CURVE SMOOTH",
"356 466 OFFCURVE",
"323 398 OFFCURVE",
"313 297 CURVE",
"338 335 OFFCURVE",
"371 354 OFFCURVE",
"412 355 CURVE SMOOTH",
"434 355 OFFCURVE",
"454 349 OFFCURVE",
"473 336 CURVE SMOOTH",
"518 305 OFFCURVE",
"541 250 OFFCURVE",
"541 171 CURVE SMOOTH",
"541 86 OFFCURVE",
"508 -21 OFFCURVE",
"405 -21 CURVE SMOOTH",
"378 -21 OFFCURVE",
"353 -12 OFFCURVE",
"332 7 CURVE SMOOTH",
"285 49 OFFCURVE",
"261 126 OFFCURVE",
"261 238 CURVE SMOOTH"
);
},
{
closed = 1;
nodes = (
"420 29 OFFCURVE",
"433 32 OFFCURVE",
"444 39 CURVE SMOOTH",
"477 60 OFFCURVE",
"494 105 OFFCURVE",
"494 173 CURVE SMOOTH",
"494 224 OFFCURVE",
"484 310 OFFCURVE",
"408 310 CURVE SMOOTH",
"387 310 OFFCURVE",
"369 302 OFFCURVE",
"353 285 CURVE SMOOTH",
"324 255 OFFCURVE",
"312 210 OFFCURVE",
"317 150 CURVE",
"331 71 OFFCURVE",
"361 30 OFFCURVE",
"407 29 CURVE SMOOTH"
);
}
);
width = 1759;
},
{
layerId = "0EF112A6-69F8-47E9-9D72-C545F6D6A613";
width = 600;
}
);
note = tml_Year;
unicode = 0BF5;
},
{
glyphname = tml_Debit;
lastChange = "2017-08-09 10:52:40 +0000";
layers = (
{
layerId = "B24528F6-199A-4A7E-931E-F430756048DC";
paths = (
{
closed = 1;
nodes = (
"226 -343 OFFCURVE",
"175 -333 OFFCURVE",
"132 -313 CURVE SMOOTH",
"12 -256 OFFCURVE",
"5 -104 OFFCURVE",
"157 -101 CURVE SMOOTH",
"481 -100 LINE",
"486 -67 OFFCURVE",
"489 -34 OFFCURVE",
"489 1 CURVE",
"101 1 LINE",
"101 560 LINE",
"154 560 LINE",
"154 49 LINE",
"499 49 LINE",
"499 560 LINE",
"551 560 LINE",
"551 1 LINE",
"540 1 LINE",
"540 -33 OFFCURVE",
"537 -67 OFFCURVE",
"532 -100 CURVE",
"646 -100 LINE",
"646 560 LINE",
"696 560 LINE",
"696 -149 LINE",
"522 -149 LINE",
"520 -155 OFFCURVE",
"518 -161 OFFCURVE",
"516 -168 CURVE",
"477 -285 OFFCURVE",
"400 -343 OFFCURVE",
"285 -343 CURVE SMOOTH"
);
},
{
closed = 1;
nodes = (
"378 -293 OFFCURVE",
"440 -245 OFFCURVE",
"470 -149 CURVE",
"158 -149 LINE SMOOTH",
"73 -150 OFFCURVE",
"85 -210 OFFCURVE",
"113 -241 CURVE SMOOTH",
"146 -276 OFFCURVE",
"203 -294 OFFCURVE",
"284 -294 CURVE SMOOTH"
);
}
);
width = 740;
},
{
layerId = "0EF112A6-69F8-47E9-9D72-C545F6D6A613";
width = 600;
}
);
note = tml_Debit;
unicode = 0BF6;
},
{
glyphname = tml_Credit;
lastChange = "2017-08-09 10:52:40 +0000";
layers = (
{
layerId = "B24528F6-199A-4A7E-931E-F430756048DC";
paths = (
{
closed = 1;
nodes = (
"162 -24 OFFCURVE",
"139 -16 OFFCURVE",
"119 0 CURVE SMOOTH",
"69 40 OFFCURVE",
"44 118 OFFCURVE",
"44 235 CURVE SMOOTH",
"44 390 OFFCURVE",
"96 560 OFFCURVE",
"271 560 CURVE SMOOTH",
"592 560 LINE",
"592 512 LINE",
"489 512 LINE",
"489 305 LINE",
"580 305 LINE SMOOTH",
"593 305 OFFCURVE",
"604 305 OFFCURVE",
"612 304 CURVE",
"654 370 OFFCURVE",
"718 403 OFFCURVE",
"804 404 CURVE SMOOTH",
"939 404 OFFCURVE",
"1033 312 OFFCURVE",
"1033 183 CURVE SMOOTH",
"1033 132 OFFCURVE",
"1021 88 OFFCURVE",
"998 49 CURVE",
"1117 49 LINE",
"1116 0 LINE",
"931 0 LINE",
"931 38 LINE",
"1002 115 OFFCURVE",
"993 220 OFFCURVE",
"960 277 CURVE SMOOTH",
"928 330 OFFCURVE",
"876 357 OFFCURVE",
"805 357 CURVE SMOOTH",
"752 357 OFFCURVE",
"709 339 OFFCURVE",
"675 302 CURVE",
"706 300 OFFCURVE",
"732 296 OFFCURVE",
"754 291 CURVE SMOOTH",
"835 271 OFFCURVE",
"876 219 OFFCURVE",
"875 134 CURVE SMOOTH",
"874 71 OFFCURVE",
"847 -25 OFFCURVE",
"732 -25 CURVE SMOOTH",
"663 -25 OFFCURVE",
"571 22 OFFCURVE",
"571 151 CURVE SMOOTH",
"571 188 OFFCURVE",
"577 223 OFFCURVE",
"589 256 CURVE",
"489 256 LINE",
"489 0 LINE",
"439 0 LINE",
"439 512 LINE",
"272 512 LINE SMOOTH",
"245 512 OFFCURVE",
"219 505 OFFCURVE",
"196 492 CURVE SMOOTH",
"139 459 OFFCURVE",
"105 393 OFFCURVE",
"95 293 CURVE",
"120 332 OFFCURVE",
"153 351 OFFCURVE",
"195 352 CURVE SMOOTH",
"217 352 OFFCURVE",
"238 345 OFFCURVE",
"257 332 CURVE SMOOTH",
"301 301 OFFCURVE",
"323 246 OFFCURVE",
"323 168 CURVE SMOOTH",
"323 83 OFFCURVE",
"292 -24 OFFCURVE",
"188 -24 CURVE SMOOTH"
);
},
{
closed = 1;
nodes = (
"203 25 OFFCURVE",
"216 29 OFFCURVE",
"227 36 CURVE SMOOTH",
"260 58 OFFCURVE",
"276 102 OFFCURVE",
"276 169 CURVE SMOOTH",
"276 221 OFFCURVE",
"264 306 OFFCURVE",
"191 306 CURVE SMOOTH",
"170 306 OFFCURVE",
"152 298 OFFCURVE",
"136 282 CURVE SMOOTH",
"107 252 OFFCURVE",
"95 207 OFFCURVE",
"99 147 CURVE",
"113 67 OFFCURVE",
"143 26 OFFCURVE",
"190 25 CURVE SMOOTH"
);
},
{
closed = 1;
nodes = (
"749 25 OFFCURVE",
"764 29 OFFCURVE",
"778 37 CURVE SMOOTH",
"809 55 OFFCURVE",
"824 87 OFFCURVE",
"824 134 CURVE SMOOTH",
"824 153 OFFCURVE",
"821 170 OFFCURVE",
"815 184 CURVE SMOOTH",
"794 231 OFFCURVE",
"737 255 OFFCURVE",
"644 256 CURVE",
"629 223 OFFCURVE",
"621 188 OFFCURVE",
"621 150 CURVE SMOOTH",
"621 129 OFFCURVE",
"625 109 OFFCURVE",
"632 91 CURVE SMOOTH",
"650 47 OFFCURVE",
"683 25 OFFCURVE",
"732 25 CURVE SMOOTH"
);
}
);
width = 1128;
},
{
layerId = "0EF112A6-69F8-47E9-9D72-C545F6D6A613";
width = 600;
}
);
note = tml_Credit;
unicode = 0BF7;
},
{
glyphname = tml_Above;
lastChange = "2017-08-09 10:52:40 +0000";
layers = (
{
layerId = "B24528F6-199A-4A7E-931E-F430756048DC";
paths = (
{
closed = 1;
nodes = (
"542 754 OFFCURVE",
"667 617 OFFCURVE",
"686 393 CURVE",
"707 386 OFFCURVE",
"727 376 OFFCURVE",
"744 361 CURVE SMOOTH",
"789 322 OFFCURVE",
"811 268 OFFCURVE",
"809 197 CURVE SMOOTH",
"809 195 OFFCURVE",
"809 193 OFFCURVE",
"809 191 CURVE",
"806 138 OFFCURVE",
"791 91 OFFCURVE",
"763 49 CURVE",
"932 49 LINE",
"959 169 LINE",
"919 194 LINE",
"861 227 OFFCURVE",
"831 268 OFFCURVE",
"830 316 CURVE",
"830 337 OFFCURVE",
"834 355 OFFCURVE",
"841 371 CURVE SMOOTH",
"858 407 OFFCURVE",
"890 425 OFFCURVE",
"936 425 CURVE SMOOTH",
"961 425 OFFCURVE",
"983 418 OFFCURVE",
"1000 403 CURVE SMOOTH",
"1035 373 OFFCURVE",
"1045 324 OFFCURVE",
"1030 256 CURVE SMOOTH",
"1015 192 LINE",
"1060 163 LINE",
"1095 143 OFFCURVE",
"1134 121 OFFCURVE",
"1134 80 CURVE SMOOTH",
"1133 28 OFFCURVE",
"1105 1 OFFCURVE",
"1050 0 CURVE SMOOTH",
"972 0 LINE",
"938 -148 LINE",
"887 -148 LINE",
"921 0 LINE",
"696 0 LINE",
"696 37 LINE",
"738 92 OFFCURVE",
"759 145 OFFCURVE",
"760 195 CURVE",
"759 263 OFFCURVE",
"735 310 OFFCURVE",
"688 337 CURVE",
"687 140 OFFCURVE",
"639 -31 OFFCURVE",
"511 -31 CURVE SMOOTH",
"505 -31 OFFCURVE",
"499 -31 OFFCURVE",
"492 -30 CURVE SMOOTH",
"423 -21 OFFCURVE",
"388 30 OFFCURVE",
"388 124 CURVE SMOOTH",
"388 268 OFFCURVE",
"484 402 OFFCURVE",
"624 402 CURVE SMOOTH",
"635 402 LINE",
"620 529 OFFCURVE",
"550 702 OFFCURVE",
"382 702 CURVE SMOOTH",
"251 701 OFFCURVE",
"108 575 OFFCURVE",
"95 339 CURVE",
"142 418 OFFCURVE",
"229 410 OFFCURVE",
"277 367 CURVE SMOOTH",
"320 328 OFFCURVE",
"342 268 OFFCURVE",
"342 185 CURVE SMOOTH",
"342 157 OFFCURVE",
"340 131 OFFCURVE",
"336 106 CURVE SMOOTH",
"304 -75 OFFCURVE",
"161 -49 OFFCURVE",
"105 32 CURVE SMOOTH",
"63 95 OFFCURVE",
"42 190 OFFCURVE",
"42 319 CURVE SMOOTH",
"42 576 OFFCURVE",
"190 755 OFFCURVE",
"386 755 CURVE SMOOTH"
);
},
{
closed = 1;
nodes = (
"975 239 LINE",
"990 298 OFFCURVE",
"997 376 OFFCURVE",
"934 376 CURVE SMOOTH",
"926 376 OFFCURVE",
"918 375 OFFCURVE",
"911 372 CURVE SMOOTH",
"868 355 OFFCURVE",
"867 287 OFFCURVE",
"918 254 CURVE SMOOTH",
"971 220 LINE"
);
},
{
closed = 1;
nodes = (
"525 18 OFFCURVE",
"542 25 OFFCURVE",
"558 38 CURVE SMOOTH",
"611 83 OFFCURVE",
"638 187 OFFCURVE",
"638 351 CURVE SMOOTH",
"638 352 LINE",
"635 353 OFFCURVE",
"630 353 OFFCURVE",
"623 353 CURVE SMOOTH",
"573 352 OFFCURVE",
"530 330 OFFCURVE",
"494 287 CURVE SMOOTH",
"418 194 OFFCURVE",
"415 21 OFFCURVE",
"506 18 CURVE SMOOTH"
);
},
{
closed = 1;
nodes = (
"220 19 OFFCURVE",
"228 20 OFFCURVE",
"235 23 CURVE SMOOTH",
"274 39 OFFCURVE",
"294 91 OFFCURVE",
"294 180 CURVE SMOOTH",
"294 210 OFFCURVE",
"290 238 OFFCURVE",
"282 264 CURVE SMOOTH",
"247 379 OFFCURVE",
"160 364 OFFCURVE",
"125 305 CURVE",
"102 262 OFFCURVE",
"98 208 OFFCURVE",
"114 143 CURVE",
"113 144 LINE",
"134 62 OFFCURVE",
"167 20 OFFCURVE",
"212 19 CURVE SMOOTH"
);
},
{
closed = 1;
nodes = (
"1049 49 OFFCURVE",
"1053 49 OFFCURVE",
"1056 49 CURVE",
"1078 50 OFFCURVE",
"1089 58 OFFCURVE",
"1089 73 CURVE SMOOTH",
"1089 75 OFFCURVE",
"1089 77 OFFCURVE",
"1088 80 CURVE",
"1086 87 OFFCURVE",
"1073 98 OFFCURVE",
"1048 113 CURVE SMOOTH",
"1004 141 LINE",
"983 49 LINE",
"1046 49 LINE SMOOTH"
);
}
);
width = 1175;
},
{
layerId = "0EF112A6-69F8-47E9-9D72-C545F6D6A613";
width = 600;
}
);
note = tml_Above;
unicode = 0BF8;
},
{
glyphname = tml_Number;
lastChange = "2017-08-09 10:52:40 +0000";
layers = (
{
layerId = "B24528F6-199A-4A7E-931E-F430756048DC";
paths = (
{
closed = 1;
nodes = (
"783 253 OFFCURVE",
"770 427 OFFCURVE",
"734 523 CURVE",
"675 518 OFFCURVE",
"605 469 OFFCURVE",
"605 374 CURVE SMOOTH",
"605 358 OFFCURVE",
"607 343 OFFCURVE",
"610 328 CURVE SMOOTH",
"621 277 OFFCURVE",
"646 252 OFFCURVE",
"686 252 CURVE SMOOTH"
);
},
{
closed = 1;
nodes = (
"334 560 LINE",
"315 643 OFFCURVE",
"357 755 OFFCURVE",
"494 755 CURVE SMOOTH",
"527 755 OFFCURVE",
"560 749 OFFCURVE",
"592 737 CURVE SMOOTH",
"668 708 OFFCURVE",
"726 654 OFFCURVE",
"765 573 CURVE",
"802 570 OFFCURVE",
"835 560 OFFCURVE",
"864 541 CURVE SMOOTH",
"935 497 OFFCURVE",
"970 419 OFFCURVE",
"971 308 CURVE SMOOTH",
"971 282 OFFCURVE",
"968 256 OFFCURVE",
"963 230 CURVE SMOOTH",
"948 158 OFFCURVE",
"917 98 OFFCURVE",
"868 49 CURVE",
"1017 49 LINE",
"1017 0 LINE",
"791 0 LINE",
"790 39 LINE",
"877 117 OFFCURVE",
"920 206 OFFCURVE",
"921 306 CURVE SMOOTH",
"921 377 OFFCURVE",
"903 495 OFFCURVE",
"786 520 CURVE",
"801 474 OFFCURVE",
"809 424 OFFCURVE",
"809 369 CURVE SMOOTH",
"809 347 OFFCURVE",
"807 326 OFFCURVE",
"803 307 CURVE SMOOTH",
"787 238 OFFCURVE",
"748 204 OFFCURVE",
"686 204 CURVE SMOOTH",
"663 204 OFFCURVE",
"642 210 OFFCURVE",
"623 221 CURVE",
"579 249 OFFCURVE",
"557 301 OFFCURVE",
"557 376 CURVE SMOOTH",
"557 451 OFFCURVE",
"591 551 OFFCURVE",
"712 571 CURVE",
"702 588 OFFCURVE",
"691 605 OFFCURVE",
"678 621 CURVE SMOOTH",
"629 679 OFFCURVE",
"569 708 OFFCURVE",
"500 707 CURVE SMOOTH",
"427 706 OFFCURVE",
"357 660 OFFCURVE",
"382 560 CURVE",
"407 560 LINE",
"407 511 LINE",
"297 511 LINE",
"297 371 LINE",
"346 419 OFFCURVE",
"418 416 OFFCURVE",
"461 385 CURVE",
"502 353 OFFCURVE",
"523 301 OFFCURVE",
"523 229 CURVE SMOOTH",
"523 121 OFFCURVE",
"475 0 OFFCURVE",
"363 0 CURVE",
"363 46 LINE",
"383 47 OFFCURVE",
"402 56 OFFCURVE",
"421 74 CURVE SMOOTH",
"456 109 OFFCURVE",
"474 160 OFFCURVE",
"474 225 CURVE SMOOTH",
"474 244 OFFCURVE",
"472 262 OFFCURVE",
"468 278 CURVE SMOOTH",
"456 333 OFFCURVE",
"427 360 OFFCURVE",
"380 360 CURVE SMOOTH",
"364 360 OFFCURVE",
"350 356 OFFCURVE",
"337 349 CURVE",
"310 333 OFFCURVE",
"297 307 OFFCURVE",
"297 271 CURVE SMOOTH",
"297 0 LINE",
"246 0 LINE",
"246 511 LINE",
"95 511 LINE",
"95 0 LINE",
"44 0 LINE",
"44 560 LINE"
);
}
);
width = 1028;
},
{
layerId = "0EF112A6-69F8-47E9-9D72-C545F6D6A613";
width = 600;
}
);
note = tml_Number;
unicode = 0BFA;
},
{
glyphname = tml_MatraAa;
lastChange = "2017-08-09 10:52:40 +0000";
layers = (
{
layerId = "B24528F6-199A-4A7E-931E-F430756048DC";
paths = (
{
closed = 1;
nodes = (
"95 511 LINE",
"315 511 LINE",
"312 0 LINE",
"366 0 LINE",
"368 511 LINE",
"497 511 LINE",
"497 560 LINE",
"44 560 LINE",
"44 0 LINE",
"95 0 LINE"
);
}
);
width = 497;
},
{
layerId = "0EF112A6-69F8-47E9-9D72-C545F6D6A613";
width = 600;
}
);
note = tml_MatraAa;
unicode = 0BBE;
},
{
glyphname = tml_MatraI;
lastChange = "2017-08-07 23:30:13 +0000";
layers = (
{
layerId = "B24528F6-199A-4A7E-931E-F430756048DC";
paths = (
{
closed = 1;
nodes = (
"194 -6 LINE",
"192 406 LINE SMOOTH",
"191 594 OFFCURVE",
"72 694 OFFCURVE",
"-88 692 CURVE SMOOTH",
"-188 691 OFFCURVE",
"-298 637 OFFCURVE",
"-298 526 CURVE SMOOTH",
"-298 462 OFFCURVE",
"-261 417 OFFCURVE",
"-215 417 CURVE",
"-167 460 LINE",
"-183 460 OFFCURVE",
"-207 482 OFFCURVE",
"-207 505 CURVE SMOOTH",
"-207 550 OFFCURVE",
"-158 572 OFFCURVE",
"-92 572 CURVE SMOOTH",
"6 572 OFFCURVE",
"92 505 OFFCURVE",
"92 389 CURVE SMOOTH",
"93 -6 LINE"
);
}
);
width = 244;
},
{
layerId = "0EF112A6-69F8-47E9-9D72-C545F6D6A613";
width = 600;
}
);
note = tml_MatraI;
unicode = 0BBF;
},
{
glyphname = tml_MatraI.alt1;
lastChange = "2017-08-09 10:52:40 +0000";
layers = (
{
layerId = "B24528F6-199A-4A7E-931E-F430756048DC";
paths = (
{
closed = 1;
nodes = (
"-220 522 OFFCURVE",
"-233 525 OFFCURVE",
"-248 531 CURVE SMOOTH",
"-291 548 OFFCURVE",
"-313 577 OFFCURVE",
"-313 619 CURVE SMOOTH",
"-313 650 OFFCURVE",
"-302 678 OFFCURVE",
"-280 702 CURVE SMOOTH",
"-245 739 OFFCURVE",
"-195 758 OFFCURVE",
"-130 758 CURVE SMOOTH",
"-109 758 OFFCURVE",
"-89 756 OFFCURVE",
"-70 751 CURVE SMOOTH",
"37 725 OFFCURVE",
"91 630 OFFCURVE",
"92 467 CURVE SMOOTH",
"94 1 LINE",
"43 1 LINE",
"42 471 LINE",
"42 571 OFFCURVE",
"18 707 OFFCURVE",
"-131 707 CURVE SMOOTH",
"-180 707 OFFCURVE",
"-264 694 OFFCURVE",
"-264 619 CURVE SMOOTH",
"-264 612 OFFCURVE",
"-263 606 OFFCURVE",
"-260 599 CURVE",
"-251 573 OFFCURVE",
"-228 560 OFFCURVE",
"-191 560 CURVE",
"-208 522 LINE"
);
}
);
width = 134;
},
{
layerId = "0EF112A6-69F8-47E9-9D72-C545F6D6A613";
width = 600;
}
);
note = tml_MatraI.alt1;
},
{
glyphname = tml_MatraI.alt2;
lastChange = "2017-08-09 10:52:40 +0000";
layers = (
{
layerId = "B24528F6-199A-4A7E-931E-F430756048DC";
paths = (
{
closed = 1;
nodes = (
"-144 561 OFFCURVE",
"-173 584 OFFCURVE",
"-178 629 CURVE",
"-178 639 OFFCURVE",
"-176 649 OFFCURVE",
"-171 659 CURVE SMOOTH",
"-156 691 OFFCURVE",
"-123 707 OFFCURVE",
"-74 707 CURVE SMOOTH",
"-49 707 OFFCURVE",
"-28 702 OFFCURVE",
"-9 691 CURVE SMOOTH",
"39 664 OFFCURVE",
"63 594 OFFCURVE",
"63 482 CURVE SMOOTH",
"64 1 LINE",
"115 1 LINE",
"113 478 LINE SMOOTH",
"112 527 OFFCURVE",
"108 570 OFFCURVE",
"101 606 CURVE SMOOTH",
"78 707 OFFCURVE",
"20 758 OFFCURVE",
"-74 758 CURVE SMOOTH",
"-142 758 OFFCURVE",
"-228 722 OFFCURVE",
"-228 629 CURVE SMOOTH",
"-228 611 OFFCURVE",
"-225 594 OFFCURVE",
"-218 579 CURVE SMOOTH",
"-199 540 OFFCURVE",
"-159 520 OFFCURVE",
"-99 520 CURVE",
"-89 560 LINE"
);
}
);
width = 155;
},
{
layerId = "0EF112A6-69F8-47E9-9D72-C545F6D6A613";
width = 600;
}
);
note = tml_MatraI.alt2;
},
{
glyphname = tml_MatraI.alt3;
lastChange = "2017-08-09 10:52:40 +0000";
layers = (
{
layerId = "B24528F6-199A-4A7E-931E-F430756048DC";
paths = (
{
closed = 1;
nodes = (
"-114 456 OFFCURVE",
"-136 460 OFFCURVE",
"-157 467 CURVE SMOOTH",
"-214 488 OFFCURVE",
"-242 531 OFFCURVE",
"-242 595 CURVE SMOOTH",
"-242 672 OFFCURVE",
"-186 758 OFFCURVE",
"-62 758 CURVE SMOOTH",
"-25 758 OFFCURVE",
"7 750 OFFCURVE",
"36 735 CURVE SMOOTH",
"104 697 OFFCURVE",
"138 621 OFFCURVE",
"139 506 CURVE SMOOTH",
"141 1 LINE",
"91 1 LINE",
"90 510 LINE",
"90 591 OFFCURVE",
"65 707 OFFCURVE",
"-62 707 CURVE SMOOTH",
"-114 707 OFFCURVE",
"-193 684 OFFCURVE",
"-193 595 CURVE SMOOTH",
"-193 584 OFFCURVE",
"-192 574 OFFCURVE",
"-189 564 CURVE SMOOTH",
"-176 524 OFFCURVE",
"-144 504 OFFCURVE",
"-91 504 CURVE",
"-91 456 LINE"
);
}
);
width = 181;
},
{
layerId = "0EF112A6-69F8-47E9-9D72-C545F6D6A613";
width = 600;
}
);
note = tml_MatraI.alt3;
},
{
glyphname = tml_MatraI.alt4;
lastChange = "2017-08-09 10:52:40 +0000";
layers = (
{
layerId = "B24528F6-199A-4A7E-931E-F430756048DC";
paths = (
{
closed = 1;
nodes = (
"-105 512 OFFCURVE",
"-126 516 OFFCURVE",
"-146 523 CURVE SMOOTH",
"-196 542 OFFCURVE",
"-221 577 OFFCURVE",
"-221 627 CURVE SMOOTH",
"-221 653 OFFCURVE",
"-212 677 OFFCURVE",
"-194 699 CURVE SMOOTH",
"-161 738 OFFCURVE",
"-115 758 OFFCURVE",
"-55 758 CURVE SMOOTH",
"-17 758 OFFCURVE",
"17 750 OFFCURVE",
"46 733 CURVE SMOOTH",
"112 694 OFFCURVE",
"145 619 OFFCURVE",
"146 506 CURVE SMOOTH",
"148 0 LINE",
"98 0 LINE",
"97 510 LINE",
"97 590 OFFCURVE",
"73 707 OFFCURVE",
"-56 707 CURVE SMOOTH",
"-103 707 OFFCURVE",
"-171 684 OFFCURVE",
"-171 627 CURVE SMOOTH",
"-171 620 OFFCURVE",
"-170 614 OFFCURVE",
"-168 608 CURVE",
"-159 576 OFFCURVE",
"-131 560 OFFCURVE",
"-84 560 CURVE",
"-84 512 LINE"
);
}
);
width = 188;
},
{
layerId = "0EF112A6-69F8-47E9-9D72-C545F6D6A613";
width = 600;
}
);
note = tml_MatraI.alt4;
},
{
glyphname = tml_MatraI.alt5;
lastChange = "2017-08-09 10:52:40 +0000";
layers = (
{
layerId = "B24528F6-199A-4A7E-931E-F430756048DC";
paths = (
{
closed = 1;
nodes = (
"-219 498 OFFCURVE",
"-306 533 OFFCURVE",
"-306 620 CURVE SMOOTH",
"-306 648 OFFCURVE",
"-297 673 OFFCURVE",
"-279 696 CURVE SMOOTH",
"-246 737 OFFCURVE",
"-196 758 OFFCURVE",
"-131 758 CURVE SMOOTH",
"-89 758 OFFCURVE",
"-52 749 OFFCURVE",
"-19 731 CURVE SMOOTH",
"54 690 OFFCURVE",
"90 612 OFFCURVE",
"91 497 CURVE SMOOTH",
"93 1 LINE",
"42 1 LINE",
"41 501 LINE",
"41 586 OFFCURVE",
"14 707 OFFCURVE",
"-131 707 CURVE SMOOTH",
"-176 707 OFFCURVE",
"-256 689 OFFCURVE",
"-256 620 CURVE SMOOTH",
"-255 576 OFFCURVE",
"-215 548 OFFCURVE",
"-176 573 CURVE",
"-158 533 LINE"
);
}
);
width = 133;
},
{
layerId = "0EF112A6-69F8-47E9-9D72-C545F6D6A613";
width = 600;
}
);
note = tml_MatraI.alt5;
},
{
glyphname = tml_MatraI.alt6;
lastChange = "2017-08-09 10:52:40 +0000";
layers = (
{
layerId = "B24528F6-199A-4A7E-931E-F430756048DC";
paths = (
{
closed = 1;
nodes = (
"-282 554 OFFCURVE",
"-261 652 OFFCURVE",
"-224 699 CURVE SMOOTH",
"-193 738 OFFCURVE",
"-146 757 OFFCURVE",
"-83 757 CURVE SMOOTH",
"-43 757 OFFCURVE",
"-8 749 OFFCURVE",
"22 732 CURVE SMOOTH",
"91 693 OFFCURVE",
"126 615 OFFCURVE",
"127 500 CURVE SMOOTH",
"127 0 LINE",
"77 0 LINE",
"76 480 LINE SMOOTH",
"75 629 OFFCURVE",
"22 705 OFFCURVE",
"-83 706 CURVE SMOOTH",
"-126 706 OFFCURVE",
"-202 691 OFFCURVE",
"-202 618 CURVE SMOOTH",
"-202 595 OFFCURVE",
"-194 584 OFFCURVE",
"-147 560 CURVE",
"-159 525 LINE"
);
}
);
width = 167;
},
{
layerId = "0EF112A6-69F8-47E9-9D72-C545F6D6A613";
width = 600;
}
);
note = tml_MatraI.alt6;
},
{
glyphname = tml_MatraI.alt7;
lastChange = "2017-08-09 10:52:40 +0000";
layers = (
{
layerId = "B24528F6-199A-4A7E-931E-F430756048DC";
paths = (
{
closed = 1;
nodes = (
"-137 526 OFFCURVE",
"-144 529 OFFCURVE",
"-151 532 CURVE SMOOTH",
"-199 551 OFFCURVE",
"-223 580 OFFCURVE",
"-223 619 CURVE SMOOTH",
"-223 649 OFFCURVE",
"-214 676 OFFCURVE",
"-196 699 CURVE SMOOTH",
"-165 738 OFFCURVE",
"-117 757 OFFCURVE",
"-54 757 CURVE SMOOTH",
"-14 757 OFFCURVE",
"21 749 OFFCURVE",
"51 732 CURVE SMOOTH",
"120 693 OFFCURVE",
"154 615 OFFCURVE",
"155 500 CURVE SMOOTH",
"155 0 LINE",
"104 0 LINE",
"104 480 LINE",
"103 629 OFFCURVE",
"51 705 OFFCURVE",
"-54 706 CURVE SMOOTH",
"-95 706 OFFCURVE",
"-173 695 OFFCURVE",
"-173 620 CURVE SMOOTH",
"-173 617 OFFCURVE",
"-173 613 OFFCURVE",
"-172 609 CURVE",
"-167 592 OFFCURVE",
"-150 576 OFFCURVE",
"-120 561 CURVE",
"-130 525 LINE"
);
}
);
width = 195;
},
{
layerId = "0EF112A6-69F8-47E9-9D72-C545F6D6A613";
width = 600;
}
);
note = tml_MatraI.alt7;
},
{
glyphname = tml_MatraI.alt8;
lastChange = "2017-08-09 10:52:40 +0000";
layers = (
{
layerId = "B24528F6-199A-4A7E-931E-F430756048DC";
paths = (
{
closed = 1;
nodes = (
"-229 521 OFFCURVE",
"-233 523 OFFCURVE",
"-238 524 CURVE",
"-289 541 OFFCURVE",
"-314 572 OFFCURVE",
"-314 615 CURVE SMOOTH",
"-314 645 OFFCURVE",
"-303 672 OFFCURVE",
"-282 696 CURVE SMOOTH",
"-246 737 OFFCURVE",
"-193 757 OFFCURVE",
"-123 757 CURVE SMOOTH",
"2 757 OFFCURVE",
"159 698 OFFCURVE",
"159 487 CURVE SMOOTH",
"159 0 LINE",
"109 0 LINE",
"108 472 LINE",
"108 514 OFFCURVE",
"102 551 OFFCURVE",
"90 582 CURVE SMOOTH",
"57 665 OFFCURVE",
"-14 706 OFFCURVE",
"-123 706 CURVE SMOOTH",
"-172 706 OFFCURVE",
"-263 697 OFFCURVE",
"-263 616 CURVE SMOOTH",
"-263 592 OFFCURVE",
"-253 579 OFFCURVE",
"-209 554 CURVE",
"-224 520 LINE"
);
}
);
width = 199;
},
{
layerId = "0EF112A6-69F8-47E9-9D72-C545F6D6A613";
width = 600;
}
);
note = tml_MatraI.alt8;
},
{
glyphname = tml_MatraI.stylalt1;
lastChange = "2017-08-09 10:52:40 +0000";
layers = (
{
layerId = "B24528F6-199A-4A7E-931E-F430756048DC";
paths = (
{
closed = 1;
nodes = (
"-574 259 OFFCURVE",
"-576 260 OFFCURVE",
"-577 261 CURVE",
"-651 308 OFFCURVE",
"-688 379 OFFCURVE",
"-688 476 CURVE SMOOTH",
"-688 639 OFFCURVE",
"-578 800 OFFCURVE",
"-309 800 CURVE SMOOTH",
"-220 800 OFFCURVE",
"-145 780 OFFCURVE",
"-84 741 CURVE SMOOTH",
"27 668 OFFCURVE",
"82 540 OFFCURVE",
"82 355 CURVE SMOOTH",
"82 -2 LINE",
"32 -2 LINE",
"32 354 LINE SMOOTH",
"32 466 OFFCURVE",
"8 556 OFFCURVE",
"-39 623 CURVE SMOOTH",
"-160 794 OFFCURVE",
"-397 763 OFFCURVE",
"-506 704 CURVE SMOOTH",
"-682 608 OFFCURVE",
"-669 379 OFFCURVE",
"-542 300 CURVE",
"-573 258 LINE"
);
}
);
width = 125;
},
{
layerId = "0EF112A6-69F8-47E9-9D72-C545F6D6A613";
width = 600;
}
);
note = tml_MatraI.stylalt1;
},
{
glyphname = tml_MatraIi;
lastChange = "2017-08-09 10:52:40 +0000";
layers = (
{
layerId = "B24528F6-199A-4A7E-931E-F430756048DC";
paths = (
{
closed = 1;
nodes = (
"131 636 OFFCURVE",
"141 639 OFFCURVE",
"151 644 CURVE",
"178 660 OFFCURVE",
"191 691 OFFCURVE",
"191 738 CURVE SMOOTH",
"191 755 OFFCURVE",
"189 772 OFFCURVE",
"185 788 CURVE SMOOTH",
"174 833 OFFCURVE",
"151 856 OFFCURVE",
"116 856 CURVE SMOOTH",
"103 856 OFFCURVE",
"90 851 OFFCURVE",
"79 842 CURVE",
"56 821 OFFCURVE",
"44 786 OFFCURVE",
"44 738 CURVE SMOOTH",
"44 721 OFFCURVE",
"46 706 OFFCURVE",
"50 692 CURVE",
"62 655 OFFCURVE",
"86 636 OFFCURVE",
"121 636 CURVE SMOOTH"
);
},
{
closed = 1;
nodes = (
"-22 517 OFFCURVE",
"-36 521 OFFCURVE",
"-51 528 CURVE SMOOTH",
"-102 554 OFFCURVE",
"-127 608 OFFCURVE",
"-127 691 CURVE SMOOTH",
"-127 800 OFFCURVE",
"-58 903 OFFCURVE",
"97 902 CURVE SMOOTH",
"124 901 OFFCURVE",
"147 896 OFFCURVE",
"167 886 CURVE SMOOTH",
"215 861 OFFCURVE",
"239 811 OFFCURVE",
"239 738 CURVE SMOOTH",
"239 667 OFFCURVE",
"209 590 OFFCURVE",
"121 590 CURVE SMOOTH",
"102 590 OFFCURVE",
"85 594 OFFCURVE",
"68 601 CURVE",
"21 623 OFFCURVE",
"-3 668 OFFCURVE",
"-3 737 CURVE SMOOTH",
"-3 780 OFFCURVE",
"7 815 OFFCURVE",
"28 843 CURVE",
"24 842 OFFCURVE",
"20 840 OFFCURVE",
"15 838 CURVE SMOOTH",
"-46 812 OFFCURVE",
"-77 762 OFFCURVE",
"-77 688 CURVE SMOOTH",
"-77 613 OFFCURVE",
"-44 560 OFFCURVE",
"0 560 CURVE",
"-9 517 LINE"
);
}
);
width = 0;
},
{
layerId = "0EF112A6-69F8-47E9-9D72-C545F6D6A613";
width = 600;
}
);
note = tml_MatraIi;
unicode = 0BC0;
},
{
glyphname = tml_MatraIi.alt1;
lastChange = "2017-08-09 10:52:40 +0000";
layers = (
{
layerId = "B24528F6-199A-4A7E-931E-F430756048DC";
paths = (
{
closed = 1;
nodes = (
"121 636 OFFCURVE",
"131 639 OFFCURVE",
"140 645 CURVE SMOOTH",
"167 662 OFFCURVE",
"180 693 OFFCURVE",
"180 738 CURVE SMOOTH",
"180 755 OFFCURVE",
"178 772 OFFCURVE",
"174 788 CURVE SMOOTH",
"163 833 OFFCURVE",
"140 856 OFFCURVE",
"105 856 CURVE SMOOTH",
"92 856 OFFCURVE",
"79 851 OFFCURVE",
"68 842 CURVE",
"45 821 OFFCURVE",
"33 786 OFFCURVE",
"33 738 CURVE SMOOTH",
"33 723 OFFCURVE",
"35 708 OFFCURVE",
"38 695 CURVE",
"49 656 OFFCURVE",
"73 636 OFFCURVE",
"110 636 CURVE SMOOTH"
);
},
{
closed = 1;
nodes = (
"-138 799 OFFCURVE",
"-70 903 OFFCURVE",
"85 902 CURVE SMOOTH",
"110 901 OFFCURVE",
"132 897 OFFCURVE",
"151 888 CURVE SMOOTH",
"202 864 OFFCURVE",
"227 814 OFFCURVE",
"227 738 CURVE SMOOTH",
"227 669 OFFCURVE",
"199 590 OFFCURVE",
"110 590 CURVE SMOOTH",
"91 590 OFFCURVE",
"74 594 OFFCURVE",
"57 601 CURVE",
"-38 645 OFFCURVE",
"-25 787 OFFCURVE",
"16 842 CURVE",
"10 840 OFFCURVE",
"4 838 OFFCURVE",
"-2 835 CURVE SMOOTH",
"-59 808 OFFCURVE",
"-88 759 OFFCURVE",
"-88 688 CURVE SMOOTH",
"-88 644 OFFCURVE",
"-77 596 OFFCURVE",
"-8 559 CURVE SMOOTH",
"-4 557 OFFCURVE",
"-1 556 OFFCURVE",
"0 555 CURVE",
"-10 515 LINE",
"-11 515 LINE",
"-36 523 OFFCURVE",
"-55 532 OFFCURVE",
"-86 556 CURVE SMOOTH",
"-118 580 OFFCURVE",
"-138 628 OFFCURVE",
"-138 691 CURVE SMOOTH"
);
}
);
width = 0;
},
{
layerId = "0EF112A6-69F8-47E9-9D72-C545F6D6A613";
width = 600;
}
);
note = tml_MatraIi.alt1;
},
{
glyphname = tml_MatraIi.alt2;
lastChange = "2017-08-09 10:52:40 +0000";
layers = (
{
layerId = "B24528F6-199A-4A7E-931E-F430756048DC";
paths = (
{
closed = 1;
nodes = (
"107 636 OFFCURVE",
"117 639 OFFCURVE",
"126 645 CURVE SMOOTH",
"153 662 OFFCURVE",
"166 693 OFFCURVE",
"166 738 CURVE SMOOTH",
"166 755 OFFCURVE",
"164 772 OFFCURVE",
"160 788 CURVE SMOOTH",
"149 833 OFFCURVE",
"126 856 OFFCURVE",
"91 856 CURVE SMOOTH",
"78 856 OFFCURVE",
"65 851 OFFCURVE",
"54 842 CURVE",
"31 821 OFFCURVE",
"19 786 OFFCURVE",
"19 738 CURVE SMOOTH",
"19 723 OFFCURVE",
"21 708 OFFCURVE",
"24 695 CURVE",
"35 656 OFFCURVE",
"59 636 OFFCURVE",
"96 636 CURVE SMOOTH"
);
},
{
closed = 1;
nodes = (
"-168 804 OFFCURVE",
"-77 903 OFFCURVE",
"71 902 CURVE SMOOTH",
"96 901 OFFCURVE",
"118 897 OFFCURVE",
"137 888 CURVE SMOOTH",
"188 864 OFFCURVE",
"213 814 OFFCURVE",
"213 738 CURVE SMOOTH",
"213 667 OFFCURVE",
"183 590 OFFCURVE",
"95 590 CURVE SMOOTH",
"76 590 OFFCURVE",
"59 594 OFFCURVE",
"42 601 CURVE",
"-5 623 OFFCURVE",
"-29 668 OFFCURVE",
"-29 737 CURVE SMOOTH",
"-29 780 OFFCURVE",
"-18 816 OFFCURVE",
"3 844 CURVE",
"-6 841 OFFCURVE",
"-15 838 OFFCURVE",
"-23 834 CURVE",
"-86 806 OFFCURVE",
"-118 754 OFFCURVE",
"-118 677 CURVE SMOOTH",
"-117 577 OFFCURVE",
"-41 549 OFFCURVE",
"0 584 CURVE",
"-4 530 LINE",
"-5 529 OFFCURVE",
"-6 529 OFFCURVE",
"-7 528 CURVE",
"-30 518 OFFCURVE",
"-57 519 OFFCURVE",
"-87 531 CURVE SMOOTH",
"-141 553 OFFCURVE",
"-168 603 OFFCURVE",
"-168 680 CURVE SMOOTH"
);
}
);
width = 0;
},
{
layerId = "0EF112A6-69F8-47E9-9D72-C545F6D6A613";
width = 600;
}
);
note = tml_MatraIi.alt2;
},
{
glyphname = tml_MatraIi.alt3;
lastChange = "2017-08-09 10:52:40 +0000";
layers = (
{
layerId = "B24528F6-199A-4A7E-931E-F430756048DC";
paths = (
{
closed = 1;
nodes = (
"100 636 OFFCURVE",
"110 639 OFFCURVE",
"120 645 CURVE SMOOTH",
"147 662 OFFCURVE",
"160 693 OFFCURVE",
"160 738 CURVE SMOOTH",
"160 757 OFFCURVE",
"158 774 OFFCURVE",
"153 791 CURVE",
"142 834 OFFCURVE",
"119 856 OFFCURVE",
"85 856 CURVE SMOOTH",
"71 856 OFFCURVE",
"59 851 OFFCURVE",
"48 842 CURVE SMOOTH",
"24 821 OFFCURVE",
"12 786 OFFCURVE",
"12 738 CURVE SMOOTH",
"12 721 OFFCURVE",
"14 706 OFFCURVE",
"18 692 CURVE",
"30 655 OFFCURVE",
"54 636 OFFCURVE",
"89 636 CURVE SMOOTH"
);
},
{
closed = 1;
nodes = (
"-159 800 OFFCURVE",
"-90 903 OFFCURVE",
"65 902 CURVE SMOOTH",
"90 901 OFFCURVE",
"112 897 OFFCURVE",
"131 888 CURVE SMOOTH",
"182 864 OFFCURVE",
"207 814 OFFCURVE",
"207 738 CURVE SMOOTH",
"207 667 OFFCURVE",
"177 590 OFFCURVE",
"89 590 CURVE SMOOTH",
"70 590 OFFCURVE",
"53 594 OFFCURVE",
"36 601 CURVE",
"-11 623 OFFCURVE",
"-35 668 OFFCURVE",
"-35 737 CURVE SMOOTH",
"-35 780 OFFCURVE",
"-25 815 OFFCURVE",
"-4 843 CURVE",
"-8 842 OFFCURVE",
"-12 840 OFFCURVE",
"-17 838 CURVE SMOOTH",
"-78 812 OFFCURVE",
"-109 762 OFFCURVE",
"-109 688 CURVE SMOOTH",
"-109 603 OFFCURVE",
"-61 571 OFFCURVE",
"0 543 CURVE",
"-30 515 LINE",
"-31 515 LINE",
"-56 523 OFFCURVE",
"-76 532 OFFCURVE",
"-107 557 CURVE",
"-139 581 OFFCURVE",
"-159 628 OFFCURVE",
"-159 691 CURVE SMOOTH"
);
}
);
width = 0;
},
{
layerId = "0EF112A6-69F8-47E9-9D72-C545F6D6A613";
width = 600;
}
);
note = tml_MatraIi.alt3;
},
{
glyphname = tml_MatraIi.stylalt1;
lastChange = "2017-08-09 10:52:40 +0000";
layers = (
{
layerId = "B24528F6-199A-4A7E-931E-F430756048DC";
paths = (
{
closed = 1;
nodes = (
"-586 269 OFFCURVE",
"-603 287 OFFCURVE",
"-620 312 CURVE SMOOTH",
"-665 381 OFFCURVE",
"-688 459 OFFCURVE",
"-688 546 CURVE SMOOTH",
"-688 552 OFFCURVE",
"-688 558 OFFCURVE",
"-688 565 CURVE",
"-679 761 OFFCURVE",
"-543 954 OFFCURVE",
"-316 954 CURVE SMOOTH",
"-153 954 OFFCURVE",
"-12 879 OFFCURVE",
"-12 734 CURVE SMOOTH",
"-12 708 OFFCURVE",
"-18 684 OFFCURVE",
"-29 663 CURVE SMOOTH",
"-52 622 OFFCURVE",
"-89 601 OFFCURVE",
"-140 601 CURVE SMOOTH",
"-195 601 OFFCURVE",
"-268 636 OFFCURVE",
"-268 728 CURVE SMOOTH",
"-268 783 OFFCURVE",
"-236 860 OFFCURVE",
"-143 860 CURVE SMOOTH",
"-139 860 OFFCURVE",
"-133 859 OFFCURVE",
"-125 858 CURVE",
"-175 891 OFFCURVE",
"-237 906 OFFCURVE",
"-312 905 CURVE SMOOTH",
"-314 905 OFFCURVE",
"-316 905 OFFCURVE",
"-319 905 CURVE",
"-504 898 OFFCURVE",
"-638 734 OFFCURVE",
"-638 546 CURVE SMOOTH",
"-638 454 OFFCURVE",
"-595 334 OFFCURVE",
"-539 301 CURVE",
"-570 259 LINE"
);
},
{
closed = 1;
nodes = (
"-126 648 OFFCURVE",
"-113 651 OFFCURVE",
"-100 657 CURVE",
"-73 671 OFFCURVE",
"-59 694 OFFCURVE",
"-60 727 CURVE",
"-60 733 OFFCURVE",
"-60 738 OFFCURVE",
"-61 742 CURVE",
"-62 747 OFFCURVE",
"-62 752 OFFCURVE",
"-63 757 CURVE SMOOTH",
"-72 796 OFFCURVE",
"-98 815 OFFCURVE",
"-141 815 CURVE SMOOTH",
"-153 815 OFFCURVE",
"-165 812 OFFCURVE",
"-176 807 CURVE SMOOTH",
"-205 793 OFFCURVE",
"-220 767 OFFCURVE",
"-220 729 CURVE SMOOTH",
"-220 715 OFFCURVE",
"-217 702 OFFCURVE",
"-210 689 CURVE SMOOTH",
"-195 662 OFFCURVE",
"-172 648 OFFCURVE",
"-140 648 CURVE SMOOTH"
);
}
);
width = 30;
},
{
layerId = "0EF112A6-69F8-47E9-9D72-C545F6D6A613";
width = 600;
}
);
note = tml_MatraIi.stylalt1;
},
{
glyphname = tml_MatraU;
lastChange = "2017-08-09 10:52:40 +0000";
layers = (
{
layerId = "B24528F6-199A-4A7E-931E-F430756048DC";
paths = (
{
closed = 1;
nodes = (
"145 211 OFFCURVE",
"119 220 OFFCURVE",
"96 237 CURVE SMOOTH",
"56 267 OFFCURVE",
"36 312 OFFCURVE",
"36 373 CURVE SMOOTH",
"36 434 OFFCURVE",
"52 480 OFFCURVE",
"83 511 CURVE",
"-196 511 LINE",
"-196 560 LINE",
"149 560 LINE SMOOTH",
"155 560 OFFCURVE",
"161 560 OFFCURVE",
"167 559 CURVE",
"265 552 OFFCURVE",
"314 494 OFFCURVE",
"314 385 CURVE SMOOTH",
"314 312 OFFCURVE",
"288 211 OFFCURVE",
"176 211 CURVE SMOOTH"
);
},
{
closed = 1;
nodes = (
"188 260 OFFCURVE",
"203 264 OFFCURVE",
"216 272 CURVE",
"247 293 OFFCURVE",
"263 330 OFFCURVE",
"263 385 CURVE SMOOTH",
"263 394 OFFCURVE",
"263 402 OFFCURVE",
"262 411 CURVE SMOOTH",
"255 478 OFFCURVE",
"225 511 OFFCURVE",
"171 511 CURVE SMOOTH",
"157 511 OFFCURVE",
"144 507 OFFCURVE",
"132 499 CURVE SMOOTH",
"101 478 OFFCURVE",
"86 438 OFFCURVE",
"86 379 CURVE SMOOTH",
"86 334 OFFCURVE",
"101 260 OFFCURVE",
"172 260 CURVE SMOOTH"
);
}
);
width = 356;
},
{
layerId = "0EF112A6-69F8-47E9-9D72-C545F6D6A613";
width = 600;
}
);
note = tml_MatraU;
unicode = 0BC1;
},
{
glyphname = tml_MatraU.alt1;
lastChange = "2017-08-09 10:52:40 +0000";
layers = (
{
layerId = "B24528F6-199A-4A7E-931E-F430756048DC";
paths = (
{
closed = 1;
nodes = (
"-51 33 LINE",
"-102 33 LINE",
"-102 -153 LINE",
"-51 -153 LINE"
);
}
);
width = 0;
},
{
layerId = "0EF112A6-69F8-47E9-9D72-C545F6D6A613";
width = 600;
}
);
note = tml_MatraU.alt1;
},
{
glyphname = tml_MatraUu;
lastChange = "2017-08-09 10:52:40 +0000";
layers = (
{
layerId = "B24528F6-199A-4A7E-931E-F430756048DC";
paths = (
{
closed = 1;
nodes = (
"377 215 OFFCURVE",
"377 216 OFFCURVE",
"378 217 CURVE",
"413 270 OFFCURVE",
"431 333 OFFCURVE",
"431 404 CURVE SMOOTH",
"431 481 OFFCURVE",
"401 598 OFFCURVE",
"257 598 CURVE SMOOTH",
"211 598 OFFCURVE",
"171 584 OFFCURVE",
"137 557 CURVE",
"152 556 OFFCURVE",
"166 553 OFFCURVE",
"179 549 CURVE",
"261 527 OFFCURVE",
"302 469 OFFCURVE",
"302 376 CURVE SMOOTH",
"302 346 OFFCURVE",
"297 319 OFFCURVE",
"287 296 CURVE SMOOTH",
"265 244 OFFCURVE",
"224 218 OFFCURVE",
"165 218 CURVE SMOOTH",
"135 218 OFFCURVE",
"108 226 OFFCURVE",
"85 242 CURVE SMOOTH",
"41 274 OFFCURVE",
"19 326 OFFCURVE",
"19 397 CURVE SMOOTH",
"19 439 OFFCURVE",
"27 477 OFFCURVE",
"43 511 CURVE",
"-198 511 LINE",
"-198 560 LINE",
"72 560 LINE",
"117 616 OFFCURVE",
"178 644 OFFCURVE",
"257 645 CURVE SMOOTH",
"385 645 OFFCURVE",
"480 557 OFFCURVE",
"480 414 CURVE SMOOTH",
"480 350 OFFCURVE",
"467 290 OFFCURVE",
"442 235 CURVE",
"428 209 OFFCURVE",
"421 196 OFFCURVE",
"421 196 CURVE",
"376 214 LINE"
);
},
{
closed = 1;
nodes = (
"177 267 OFFCURVE",
"187 269 OFFCURVE",
"196 272 CURVE",
"233 286 OFFCURVE",
"251 324 OFFCURVE",
"251 385 CURVE SMOOTH",
"251 398 OFFCURVE",
"250 411 OFFCURVE",
"247 422 CURVE SMOOTH",
"232 480 OFFCURVE",
"182 510 OFFCURVE",
"98 511 CURVE",
"78 478 OFFCURVE",
"68 439 OFFCURVE",
"68 396 CURVE SMOOTH",
"68 340 OFFCURVE",
"95 267 OFFCURVE",
"168 267 CURVE SMOOTH"
);
}
);
width = 520;
},
{
layerId = "0EF112A6-69F8-47E9-9D72-C545F6D6A613";
width = 600;
}
);
note = tml_MatraUu;
unicode = 0BC2;
},
{
glyphname = tml_MatraE;
lastChange = "2017-08-09 10:52:40 +0000";
layers = (
{
layerId = "B24528F6-199A-4A7E-931E-F430756048DC";
paths = (
{
closed = 1;
nodes = (
"172 -30 OFFCURVE",
"150 -23 OFFCURVE",
"131 -10 CURVE SMOOTH",
"65 37 OFFCURVE",
"32 157 OFFCURVE",
"32 350 CURVE SMOOTH",
"32 578 OFFCURVE",
"124 807 OFFCURVE",
"340 807 CURVE SMOOTH",
"487 806 OFFCURVE",
"544 682 OFFCURVE",
"544 403 CURVE SMOOTH",
"544 0 LINE",
"493 0 LINE",
"492 393 LINE",
"492 481 OFFCURVE",
"487 549 OFFCURVE",
"478 598 CURVE SMOOTH",
"439 807 OFFCURVE",
"265 779 OFFCURVE",
"177 680 CURVE SMOOTH",
"114 606 OFFCURVE",
"82 495 OFFCURVE",
"82 348 CURVE SMOOTH",
"82 327 LINE",
"107 374 OFFCURVE",
"143 398 OFFCURVE",
"192 399 CURVE SMOOTH",
"219 399 OFFCURVE",
"243 391 OFFCURVE",
"264 375 CURVE SMOOTH",
"309 340 OFFCURVE",
"332 276 OFFCURVE",
"332 185 CURVE SMOOTH",
"332 100 OFFCURVE",
"307 -30 OFFCURVE",
"195 -30 CURVE SMOOTH"
);
},
{
closed = 1;
nodes = (
"208 19 OFFCURVE",
"219 22 OFFCURVE",
"230 28 CURVE SMOOTH",
"266 49 OFFCURVE",
"284 99 OFFCURVE",
"284 180 CURVE SMOOTH",
"284 205 OFFCURVE",
"282 228 OFFCURVE",
"278 249 CURVE SMOOTH",
"265 317 OFFCURVE",
"236 351 OFFCURVE",
"191 351 CURVE",
"168 350 OFFCURVE",
"148 341 OFFCURVE",
"131 322 CURVE",
"101 285 OFFCURVE",
"90 230 OFFCURVE",
"98 157 CURVE",
"98 154 OFFCURVE",
"99 150 OFFCURVE",
"100 143 CURVE",
"118 62 OFFCURVE",
"150 20 OFFCURVE",
"196 19 CURVE SMOOTH"
);
}
);
width = 604;
},
{
layerId = "0EF112A6-69F8-47E9-9D72-C545F6D6A613";
width = 600;
}
);
note = tml_MatraE;
unicode = 0BC6;
},
{
glyphname = tml_MatraEe;
lastChange = "2017-08-09 10:52:40 +0000";
layers = (
{
layerId = "B24528F6-199A-4A7E-931E-F430756048DC";
paths = (
{
closed = 1;
nodes = (
"309 490 OFFCURVE",
"317 492 OFFCURVE",
"325 496 CURVE SMOOTH",
"360 513 OFFCURVE",
"377 559 OFFCURVE",
"377 632 CURVE SMOOTH",
"377 646 OFFCURVE",
"376 660 OFFCURVE",
"374 673 CURVE SMOOTH",
"365 730 OFFCURVE",
"340 759 OFFCURVE",
"299 759 CURVE SMOOTH",
"287 759 OFFCURVE",
"276 756 OFFCURVE",
"266 749 CURVE",
"236 730 OFFCURVE",
"221 691 OFFCURVE",
"220 632 CURVE SMOOTH",
"219 575 OFFCURVE",
"231 490 OFFCURVE",
"300 490 CURVE SMOOTH"
);
},
{
closed = 1;
nodes = (
"237 -18 OFFCURVE",
"188 -1 OFFCURVE",
"146 34 CURVE SMOOTH",
"64 102 OFFCURVE",
"23 221 OFFCURVE",
"23 392 CURVE SMOOTH",
"23 651 OFFCURVE",
"147 806 OFFCURVE",
"292 806 CURVE SMOOTH",
"307 806 OFFCURVE",
"322 804 OFFCURVE",
"336 799 CURVE SMOOTH",
"395 780 OFFCURVE",
"425 722 OFFCURVE",
"425 626 CURVE SMOOTH",
"425 541 OFFCURVE",
"395 441 OFFCURVE",
"299 441 CURVE SMOOTH",
"273 441 OFFCURVE",
"250 449 OFFCURVE",
"229 465 CURVE SMOOTH",
"150 528 OFFCURVE",
"170 673 OFFCURVE",
"195 722 CURVE",
"178 709 OFFCURVE",
"163 692 OFFCURVE",
"148 672 CURVE SMOOTH",
"98 601 OFFCURVE",
"73 508 OFFCURVE",
"73 392 CURVE SMOOTH",
"73 363 OFFCURVE",
"75 334 OFFCURVE",
"78 306 CURVE SMOOTH",
"92 181 OFFCURVE",
"134 96 OFFCURVE",
"203 53 CURVE",
"185 82 OFFCURVE",
"175 118 OFFCURVE",
"174 160 CURVE SMOOTH",
"171 241 OFFCURVE",
"198 346 OFFCURVE",
"299 346 CURVE SMOOTH",
"320 346 OFFCURVE",
"339 340 OFFCURVE",
"357 329 CURVE SMOOTH",
"402 300 OFFCURVE",
"425 243 OFFCURVE",
"425 160 CURVE SMOOTH",
"425 144 OFFCURVE",
"424 129 OFFCURVE",
"422 114 CURVE SMOOTH",
"410 26 OFFCURVE",
"367 -18 OFFCURVE",
"292 -18 CURVE SMOOTH"
);
},
{
closed = 1;
nodes = (
"314 27 OFFCURVE",
"328 32 OFFCURVE",
"340 43 CURVE SMOOTH",
"364 66 OFFCURVE",
"376 103 OFFCURVE",
"376 154 CURVE SMOOTH",
"376 211 OFFCURVE",
"364 297 OFFCURVE",
"299 297 CURVE SMOOTH",
"295 297 OFFCURVE",
"291 297 OFFCURVE",
"286 296 CURVE SMOOTH",
"241 287 OFFCURVE",
"219 240 OFFCURVE",
"220 154 CURVE SMOOTH",
"221 109 OFFCURVE",
"238 27 OFFCURVE",
"298 27 CURVE SMOOTH",
"299 27 LINE SMOOTH"
);
}
);
width = 491;
},
{
layerId = "0EF112A6-69F8-47E9-9D72-C545F6D6A613";
width = 600;
}
);
note = tml_MatraEe;
unicode = 0BC7;
},
{
glyphname = tml_MatraAi;
lastChange = "2017-08-09 10:52:40 +0000";
layers = (
{
layerId = "B24528F6-199A-4A7E-931E-F430756048DC";
paths = (
{
closed = 1;
nodes = (
"160 -21 OFFCURVE",
"135 -12 OFFCURVE",
"113 7 CURVE SMOOTH",
"66 49 OFFCURVE",
"42 126 OFFCURVE",
"42 237 CURVE SMOOTH",
"42 425 OFFCURVE",
"158 569 OFFCURVE",
"342 569 CURVE SMOOTH",
"401 569 OFFCURVE",
"455 556 OFFCURVE",
"505 529 CURVE",
"589 581 OFFCURVE",
"712 578 OFFCURVE",
"789 542 CURVE SMOOTH",
"888 496 OFFCURVE",
"936 401 OFFCURVE",
"933 256 CURVE SMOOTH",
"932 163 OFFCURVE",
"912 8 OFFCURVE",
"756 -16 CURVE",
"748 32 LINE",
"765 35 OFFCURVE",
"782 43 OFFCURVE",
"799 55 CURVE SMOOTH",
"854 96 OFFCURVE",
"882 165 OFFCURVE",
"882 264 CURVE SMOOTH",
"882 377 OFFCURVE",
"842 521 OFFCURVE",
"657 521 CURVE SMOOTH",
"616 521 OFFCURVE",
"581 513 OFFCURVE",
"551 498 CURVE",
"630 435 OFFCURVE",
"669 339 OFFCURVE",
"670 212 CURVE SMOOTH",
"670 179 OFFCURVE",
"668 150 OFFCURVE",
"663 124 CURVE SMOOTH",
"645 26 OFFCURVE",
"598 -23 OFFCURVE",
"521 -23 CURVE SMOOTH",
"494 -23 OFFCURVE",
"469 -16 OFFCURVE",
"448 -2 CURVE SMOOTH",
"395 34 OFFCURVE",
"368 106 OFFCURVE",
"368 213 CURVE SMOOTH",
"368 338 OFFCURVE",
"399 432 OFFCURVE",
"462 495 CURVE",
"424 512 OFFCURVE",
"383 521 OFFCURVE",
"339 521 CURVE SMOOTH",
"248 521 OFFCURVE",
"126 463 OFFCURVE",
"97 302 CURVE",
"146 371 OFFCURVE",
"217 361 OFFCURVE",
"254 336 CURVE SMOOTH",
"299 305 OFFCURVE",
"322 250 OFFCURVE",
"322 171 CURVE SMOOTH",
"322 86 OFFCURVE",
"290 -21 OFFCURVE",
"187 -21 CURVE SMOOTH"
);
},
{
closed = 1;
nodes = (
"536 25 OFFCURVE",
"549 29 OFFCURVE",
"561 36 CURVE",
"640 87 OFFCURVE",
"656 361 OFFCURVE",
"507 469 CURVE",
"448 415 OFFCURVE",
"419 329 OFFCURVE",
"418 212 CURVE SMOOTH",
"418 151 OFFCURVE",
"426 25 OFFCURVE",
"521 25 CURVE SMOOTH"
);
},
{
closed = 1;
nodes = (
"201 27 OFFCURVE",
"214 31 OFFCURVE",
"226 39 CURVE SMOOTH",
"258 61 OFFCURVE",
"274 106 OFFCURVE",
"274 173 CURVE SMOOTH",
"274 224 OFFCURVE",
"262 310 OFFCURVE",
"189 310 CURVE SMOOTH",
"168 310 OFFCURVE",
"150 302 OFFCURVE",
"133 285 CURVE SMOOTH",
"105 255 OFFCURVE",
"93 211 OFFCURVE",
"97 154 CURVE",
"110 71 OFFCURVE",
"140 28 OFFCURVE",
"188 27 CURVE SMOOTH"
);
}
);
width = 975;
},
{
layerId = "0EF112A6-69F8-47E9-9D72-C545F6D6A613";
width = 600;
}
);
note = tml_MatraAi;
unicode = 0BC8;
},
{
glyphname = tml_MatraAi.alt;
lastChange = "2017-08-09 10:52:40 +0000";
layers = (
{
layerId = "B24528F6-199A-4A7E-931E-F430756048DC";
paths = (
{
closed = 1;
nodes = (
"-728 495 OFFCURVE",
"-754 449 OFFCURVE",
"-842 304 CURVE SMOOTH",
"-927 161 OFFCURVE",
"-937 31 OFFCURVE",
"-808 28 CURVE",
"-751 29 OFFCURVE",
"-723 85 OFFCURVE",
"-722 196 CURVE",
"-683 174 LINE",
"-683 145 OFFCURVE",
"-685 120 OFFCURVE",
"-690 97 CURVE SMOOTH",
"-705 18 OFFCURVE",
"-745 -21 OFFCURVE",
"-808 -21 CURVE SMOOTH",
"-826 -21 OFFCURVE",
"-843 -19 OFFCURVE",
"-859 -14 CURVE SMOOTH",
"-923 6 OFFCURVE",
"-955 56 OFFCURVE",
"-955 137 CURVE SMOOTH",
"-955 221 OFFCURVE",
"-928 262 OFFCURVE",
"-841 406 CURVE SMOOTH",
"-799 477 OFFCURVE",
"-778 533 OFFCURVE",
"-778 575 CURVE SMOOTH",
"-778 639 OFFCURVE",
"-809 752 OFFCURVE",
"-924 752 CURVE SMOOTH",
"-951 752 OFFCURVE",
"-977 745 OFFCURVE",
"-1001 732 CURVE",
"-991 733 OFFCURVE",
"-983 734 OFFCURVE",
"-976 734 CURVE SMOOTH",
"-952 734 OFFCURVE",
"-930 728 OFFCURVE",
"-910 716 CURVE SMOOTH",
"-871 691 OFFCURVE",
"-852 653 OFFCURVE",
"-852 602 CURVE SMOOTH",
"-852 550 OFFCURVE",
"-884 475 OFFCURVE",
"-979 475 CURVE SMOOTH",
"-1006 475 OFFCURVE",
"-1030 482 OFFCURVE",
"-1051 495 CURVE SMOOTH",
"-1091 520 OFFCURVE",
"-1111 559 OFFCURVE",
"-1111 612 CURVE SMOOTH",
"-1111 697 OFFCURVE",
"-1056 800 OFFCURVE",
"-924 800 CURVE SMOOTH",
"-832 800 OFFCURVE",
"-728 732 OFFCURVE",
"-728 575 CURVE SMOOTH"
);
},
{
closed = 1;
nodes = (
"-966 522 OFFCURVE",
"-953 525 OFFCURVE",
"-940 532 CURVE SMOOTH",
"-913 547 OFFCURVE",
"-899 571 OFFCURVE",
"-899 603 CURVE SMOOTH",
"-899 618 OFFCURVE",
"-902 632 OFFCURVE",
"-908 645 CURVE SMOOTH",
"-922 674 OFFCURVE",
"-945 689 OFFCURVE",
"-978 689 CURVE SMOOTH",
"-989 689 OFFCURVE",
"-999 688 OFFCURVE",
"-1009 685 CURVE SMOOTH",
"-1045 674 OFFCURVE",
"-1063 646 OFFCURVE",
"-1064 603 CURVE SMOOTH",
"-1064 601 LINE SMOOTH",
"-1064 588 OFFCURVE",
"-1061 576 OFFCURVE",
"-1055 564 CURVE SMOOTH",
"-1040 536 OFFCURVE",
"-1015 522 OFFCURVE",
"-980 522 CURVE SMOOTH"
);
}
);
width = 0;
},
{
layerId = "0EF112A6-69F8-47E9-9D72-C545F6D6A613";
width = 600;
}
);
note = tml_MatraAi.alt;
},
{
glyphname = tml_MatraO;
lastChange = "2017-08-09 10:52:40 +0000";
layers = (
{
layerId = "B24528F6-199A-4A7E-931E-F430756048DC";
paths = (
{
closed = 1;
nodes = (
"1100 560 LINE",
"1100 511 LINE",
"971 511 LINE",
"969 0 LINE",
"916 0 LINE",
"918 511 LINE",
"698 511 LINE",
"698 0 LINE",
"648 0 LINE",
"648 560 LINE"
);
},
{
closed = 1;
nodes = (
"169 -30 OFFCURVE",
"144 -21 OFFCURVE",
"123 -2 CURVE SMOOTH",
"63 51 OFFCURVE",
"33 168 OFFCURVE",
"33 350 CURVE SMOOTH",
"33 579 OFFCURVE",
"126 807 OFFCURVE",
"342 807 CURVE SMOOTH",
"495 806 OFFCURVE",
"545 670 OFFCURVE",
"546 403 CURVE SMOOTH",
"546 0 LINE",
"495 0 LINE",
"494 393 LINE",
"494 481 OFFCURVE",
"489 549 OFFCURVE",
"480 598 CURVE SMOOTH",
"441 807 OFFCURVE",
"267 779 OFFCURVE",
"179 680 CURVE SMOOTH",
"116 606 OFFCURVE",
"84 495 OFFCURVE",
"84 348 CURVE SMOOTH",
"84 327 LINE",
"109 374 OFFCURVE",
"145 398 OFFCURVE",
"194 399 CURVE SMOOTH",
"221 399 OFFCURVE",
"245 391 OFFCURVE",
"266 375 CURVE SMOOTH",
"311 340 OFFCURVE",
"334 276 OFFCURVE",
"334 185 CURVE SMOOTH",
"334 101 OFFCURVE",
"311 -30 OFFCURVE",
"196 -30 CURVE SMOOTH"
);
},
{
closed = 1;
nodes = (
"210 19 OFFCURVE",
"221 22 OFFCURVE",
"232 28 CURVE SMOOTH",
"268 49 OFFCURVE",
"286 99 OFFCURVE",
"286 180 CURVE SMOOTH",
"286 205 OFFCURVE",
"284 228 OFFCURVE",
"280 249 CURVE SMOOTH",
"267 317 OFFCURVE",
"238 351 OFFCURVE",
"193 351 CURVE",
"168 350 OFFCURVE",
"146 339 OFFCURVE",
"129 317 CURVE SMOOTH",
"100 277 OFFCURVE",
"90 220 OFFCURVE",
"101 145 CURVE",
"101 143 LINE",
"119 62 OFFCURVE",
"151 20 OFFCURVE",
"198 19 CURVE SMOOTH"
);
}
);
width = 1198;
},
{
layerId = "0EF112A6-69F8-47E9-9D72-C545F6D6A613";
width = 600;
}
);
note = tml_MatraO;
unicode = 0BCA;
},
{
glyphname = tml_MatraOo;
lastChange = "2017-08-09 10:52:40 +0000";
layers = (
{
layerId = "B24528F6-199A-4A7E-931E-F430756048DC";
paths = (
{
closed = 1;
nodes = (
"988 560 LINE",
"988 511 LINE",
"859 511 LINE",
"856 0 LINE",
"803 0 LINE",
"806 511 LINE",
"586 511 LINE",
"586 0 LINE",
"535 0 LINE",
"535 560 LINE"
);
},
{
closed = 1;
nodes = (
"312 490 OFFCURVE",
"320 492 OFFCURVE",
"328 496 CURVE SMOOTH",
"363 513 OFFCURVE",
"380 559 OFFCURVE",
"380 632 CURVE SMOOTH",
"380 646 OFFCURVE",
"379 660 OFFCURVE",
"377 673 CURVE SMOOTH",
"368 730 OFFCURVE",
"343 759 OFFCURVE",
"302 759 CURVE SMOOTH",
"291 759 OFFCURVE",
"281 756 OFFCURVE",
"271 751 CURVE",
"240 733 OFFCURVE",
"224 693 OFFCURVE",
"223 632 CURVE SMOOTH",
"222 575 OFFCURVE",
"234 490 OFFCURVE",
"303 490 CURVE SMOOTH"
);
},
{
closed = 1;
nodes = (
"240 -18 OFFCURVE",
"191 -1 OFFCURVE",
"149 34 CURVE SMOOTH",
"67 102 OFFCURVE",
"26 221 OFFCURVE",
"26 392 CURVE SMOOTH",
"26 651 OFFCURVE",
"150 806 OFFCURVE",
"295 806 CURVE SMOOTH",
"310 806 OFFCURVE",
"325 804 OFFCURVE",
"339 799 CURVE SMOOTH",
"398 780 OFFCURVE",
"428 722 OFFCURVE",
"428 626 CURVE SMOOTH",
"428 541 OFFCURVE",
"398 441 OFFCURVE",
"302 441 CURVE SMOOTH",
"275 441 OFFCURVE",
"251 449 OFFCURVE",
"230 466 CURVE SMOOTH",
"153 531 OFFCURVE",
"172 665 OFFCURVE",
"197 722 CURVE",
"181 709 OFFCURVE",
"166 693 OFFCURVE",
"152 674 CURVE SMOOTH",
"101 603 OFFCURVE",
"76 509 OFFCURVE",
"76 392 CURVE SMOOTH",
"76 359 OFFCURVE",
"78 328 OFFCURVE",
"82 298 CURVE SMOOTH",
"97 176 OFFCURVE",
"138 94 OFFCURVE",
"206 53 CURVE",
"188 81 OFFCURVE",
"178 117 OFFCURVE",
"177 160 CURVE SMOOTH",
"174 241 OFFCURVE",
"201 346 OFFCURVE",
"302 346 CURVE SMOOTH",
"323 346 OFFCURVE",
"342 340 OFFCURVE",
"360 329 CURVE SMOOTH",
"405 300 OFFCURVE",
"428 243 OFFCURVE",
"428 160 CURVE SMOOTH",
"428 144 OFFCURVE",
"427 129 OFFCURVE",
"425 114 CURVE SMOOTH",
"413 26 OFFCURVE",
"370 -18 OFFCURVE",
"295 -18 CURVE SMOOTH"
);
},
{
closed = 1;
nodes = (
"316 27 OFFCURVE",
"330 32 OFFCURVE",
"342 43 CURVE SMOOTH",
"367 65 OFFCURVE",
"379 102 OFFCURVE",
"379 154 CURVE SMOOTH",
"379 211 OFFCURVE",
"367 297 OFFCURVE",
"302 297 CURVE SMOOTH",
"297 297 OFFCURVE",
"291 296 OFFCURVE",
"285 295 CURVE",
"242 284 OFFCURVE",
"222 237 OFFCURVE",
"223 154 CURVE SMOOTH",
"224 109 OFFCURVE",
"241 27 OFFCURVE",
"301 27 CURVE SMOOTH"
);
}
);
width = 1086;
},
{
layerId = "0EF112A6-69F8-47E9-9D72-C545F6D6A613";
width = 600;
}
);
note = tml_MatraOo;
unicode = 0BCB;
},
{
glyphname = tml_MatraAu;
lastChange = "2017-08-09 10:52:40 +0000";
layers = (
{
layerId = "B24528F6-199A-4A7E-931E-F430756048DC";
paths = (
{
closed = 1;
nodes = (
"766 -21 OFFCURVE",
"743 -12 OFFCURVE",
"722 5 CURVE SMOOTH",
"673 46 OFFCURVE",
"649 123 OFFCURVE",
"649 238 CURVE SMOOTH",
"649 319 OFFCURVE",
"662 388 OFFCURVE",
"689 445 CURVE SMOOTH",
"769 613 OFFCURVE",
"963 601 OFFCURVE",
"1039 477 CURVE",
"1039 560 LINE",
"1470 560 LINE",
"1470 511 LINE",
"1338 511 LINE",
"1338 1 LINE",
"1287 1 LINE",
"1287 511 LINE",
"1089 511 LINE",
"1089 1 LINE",
"1037 1 LINE",
"1037 278 LINE SMOOTH",
"1037 379 OFFCURVE",
"1014 524 OFFCURVE",
"877 524 CURVE SMOOTH",
"848 524 OFFCURVE",
"822 516 OFFCURVE",
"798 501 CURVE SMOOTH",
"743 465 OFFCURVE",
"710 397 OFFCURVE",
"700 296 CURVE",
"725 335 OFFCURVE",
"758 354 OFFCURVE",
"799 355 CURVE SMOOTH",
"822 355 OFFCURVE",
"843 348 OFFCURVE",
"862 335 CURVE SMOOTH",
"907 304 OFFCURVE",
"929 249 OFFCURVE",
"929 171 CURVE SMOOTH",
"929 86 OFFCURVE",
"896 -21 OFFCURVE",
"793 -21 CURVE SMOOTH"
);
},
{
closed = 1;
nodes = (
"808 29 OFFCURVE",
"820 32 OFFCURVE",
"831 39 CURVE SMOOTH",
"864 60 OFFCURVE",
"881 105 OFFCURVE",
"881 173 CURVE SMOOTH",
"881 225 OFFCURVE",
"869 310 OFFCURVE",
"796 310 CURVE SMOOTH",
"775 310 OFFCURVE",
"757 302 OFFCURVE",
"741 286 CURVE SMOOTH",
"712 256 OFFCURVE",
"700 211 OFFCURVE",
"704 150 CURVE",
"718 71 OFFCURVE",
"748 30 OFFCURVE",
"795 29 CURVE SMOOTH"
);
},
{
closed = 1;
nodes = (
"169 -30 OFFCURVE",
"144 -21 OFFCURVE",
"123 -2 CURVE SMOOTH",
"63 51 OFFCURVE",
"33 168 OFFCURVE",
"33 350 CURVE SMOOTH",
"33 579 OFFCURVE",
"126 807 OFFCURVE",
"342 807 CURVE SMOOTH",
"495 806 OFFCURVE",
"545 670 OFFCURVE",
"546 403 CURVE SMOOTH",
"546 0 LINE",
"495 0 LINE",
"494 393 LINE",
"494 481 OFFCURVE",
"489 549 OFFCURVE",
"480 598 CURVE SMOOTH",
"441 807 OFFCURVE",
"267 779 OFFCURVE",
"179 680 CURVE SMOOTH",
"116 606 OFFCURVE",
"84 495 OFFCURVE",
"84 348 CURVE SMOOTH",
"84 327 LINE",
"109 374 OFFCURVE",
"145 398 OFFCURVE",
"194 399 CURVE SMOOTH",
"221 399 OFFCURVE",
"245 391 OFFCURVE",
"266 375 CURVE SMOOTH",
"311 340 OFFCURVE",
"334 276 OFFCURVE",
"334 185 CURVE SMOOTH",
"334 101 OFFCURVE",
"311 -30 OFFCURVE",
"196 -30 CURVE SMOOTH"
);
},
{
closed = 1;
nodes = (
"210 19 OFFCURVE",
"221 22 OFFCURVE",
"232 28 CURVE SMOOTH",
"268 49 OFFCURVE",
"286 99 OFFCURVE",
"286 180 CURVE SMOOTH",
"286 205 OFFCURVE",
"284 228 OFFCURVE",
"280 249 CURVE SMOOTH",
"267 317 OFFCURVE",
"238 351 OFFCURVE",
"193 351 CURVE",
"168 350 OFFCURVE",
"146 339 OFFCURVE",
"129 317 CURVE SMOOTH",
"100 277 OFFCURVE",
"90 220 OFFCURVE",
"101 145 CURVE",
"101 143 LINE",
"119 62 OFFCURVE",
"151 20 OFFCURVE",
"198 19 CURVE SMOOTH"
);
}
);
width = 1489;
},
{
layerId = "0EF112A6-69F8-47E9-9D72-C545F6D6A613";
width = 600;
}
);
note = tml_MatraAu;
unicode = 0BCC;
},
{
glyphname = tml_Virama;
lastChange = "2017-08-26 21:59:30 +0000";
layers = (
{
layerId = "B24528F6-199A-4A7E-931E-F430756048DC";
paths = (
{
closed = 1;
nodes = (
"-108 670 OFFCURVE",
"-105 654 OFFCURVE",
"-98 642 CURVE",
"-80 599 OFFCURVE",
"-47 576 OFFCURVE",
"1 576 CURVE SMOOTH",
"13 576 OFFCURVE",
"26 579 OFFCURVE",
"39 584 CURVE SMOOTH",
"84 601 OFFCURVE",
"107 637 OFFCURVE",
"107 685 CURVE SMOOTH",
"107 697 OFFCURVE",
"104 713 OFFCURVE",
"99 725 CURVE SMOOTH",
"82 768 OFFCURVE",
"49 791 OFFCURVE",
"1 791 CURVE SMOOTH",
"-14 791 OFFCURVE",
"-30 788 OFFCURVE",
"-42 783 CURVE",
"-85 763 OFFCURVE",
"-108 730 OFFCURVE",
"-108 685 CURVE SMOOTH"
);
}
);
width = 0;
},
{
layerId = "0EF112A6-69F8-47E9-9D72-C545F6D6A613";
width = 600;
}
);
note = tml_Virama;
unicode = 0BCD;
},
{
glyphname = tml_AuLengthmark;
lastChange = "2017-08-09 10:52:40 +0000";
layers = (
{
layerId = "B24528F6-199A-4A7E-931E-F430756048DC";
paths = (
{
closed = 1;
nodes = (
"163 -21 OFFCURVE",
"138 -12 OFFCURVE",
"117 6 CURVE SMOOTH",
"69 47 OFFCURVE",
"45 125 OFFCURVE",
"45 238 CURVE SMOOTH",
"45 320 OFFCURVE",
"58 389 OFFCURVE",
"85 445 CURVE SMOOTH",
"166 613 OFFCURVE",
"360 601 OFFCURVE",
"436 477 CURVE",
"436 560 LINE",
"866 560 LINE",
"866 511 LINE",
"735 511 LINE",
"735 1 LINE",
"684 1 LINE",
"684 511 LINE",
"485 511 LINE",
"485 1 LINE",
"434 1 LINE",
"434 278 LINE SMOOTH",
"434 379 OFFCURVE",
"411 524 OFFCURVE",
"274 524 CURVE SMOOTH",
"244 524 OFFCURVE",
"217 516 OFFCURVE",
"193 500 CURVE SMOOTH",
"139 464 OFFCURVE",
"107 396 OFFCURVE",
"97 297 CURVE",
"122 335 OFFCURVE",
"155 354 OFFCURVE",
"196 355 CURVE SMOOTH",
"218 355 OFFCURVE",
"238 349 OFFCURVE",
"257 336 CURVE SMOOTH",
"302 305 OFFCURVE",
"325 250 OFFCURVE",
"325 171 CURVE SMOOTH",
"325 86 OFFCURVE",
"294 -21 OFFCURVE",
"190 -21 CURVE SMOOTH"
);
},
{
closed = 1;
nodes = (
"204 29 OFFCURVE",
"217 32 OFFCURVE",
"228 39 CURVE SMOOTH",
"261 60 OFFCURVE",
"278 105 OFFCURVE",
"278 173 CURVE SMOOTH",
"278 224 OFFCURVE",
"268 310 OFFCURVE",
"192 310 CURVE SMOOTH",
"172 310 OFFCURVE",
"154 302 OFFCURVE",
"139 287 CURVE SMOOTH",
"110 257 OFFCURVE",
"97 211 OFFCURVE",
"101 150 CURVE",
"115 71 OFFCURVE",
"145 30 OFFCURVE",
"191 29 CURVE SMOOTH"
);
}
);
width = 864;
},
{
layerId = "0EF112A6-69F8-47E9-9D72-C545F6D6A613";
width = 600;
}
);
note = tml_AuLengthmark;
unicode = 0BD7;
},
